<svg xmlns="http://www.w3.org/2000/svg" xmlns:xlink="http://www.w3.org/1999/xlink" width="500" zoomAndPan="magnify" viewBox="0 0 375 374.999991" height="500" preserveAspectRatio="xMidYMid meet" version="1.0"><defs><clipPath id="95ca03b485"><path d="M 239.839844 171.140625 L 257.628906 171.140625 L 257.628906 174.078125 L 239.839844 174.078125 Z M 239.839844 171.140625 " clip-rule="nonzero"/></clipPath><clipPath id="7633b84235"><path d="M 254.6875 173.382812 L 257.625 173.382812 L 257.625 177.773438 L 254.6875 177.773438 Z M 254.6875 173.382812 " clip-rule="nonzero"/></clipPath><clipPath id="689cec471d"><path d="M 244.800781 176.085938 L 257.625 176.085938 L 257.625 179.019531 L 244.800781 179.019531 Z M 244.800781 176.085938 " clip-rule="nonzero"/></clipPath><clipPath id="da48e89736"><path d="M 249.328125 180.988281 L 252.167969 180.988281 L 252.167969 201.007812 L 249.328125 201.007812 Z M 249.328125 180.988281 " clip-rule="nonzero"/></clipPath><clipPath id="38cc8a4021"><path d="M 244.808594 178.925781 L 247.648438 178.925781 L 247.648438 203.265625 L 244.808594 203.265625 Z M 244.808594 178.925781 " clip-rule="nonzero"/></clipPath><clipPath id="193f15a525"><path d="M 238.78125 176.082031 L 242.832031 176.082031 L 242.832031 179.019531 L 238.78125 179.019531 Z M 238.78125 176.082031 " clip-rule="nonzero"/></clipPath><clipPath id="6186ae51e2"><path d="M 265.484375 171.765625 L 283.273438 171.765625 L 283.273438 174.703125 L 265.484375 174.703125 Z M 265.484375 171.765625 " clip-rule="nonzero"/></clipPath><clipPath id="46e6d7169b"><path d="M 280.332031 174.015625 L 283.269531 174.015625 L 283.269531 176.875 L 280.332031 176.875 Z M 280.332031 174.015625 " clip-rule="nonzero"/></clipPath><clipPath id="c1504b185f"><path d="M 274.378906 176.878906 L 283.273438 176.878906 L 283.273438 179.816406 L 274.378906 179.816406 Z M 274.378906 176.878906 " clip-rule="nonzero"/></clipPath><clipPath id="d6560c3a5e"><path d="M 274.382812 176.875 L 277.222656 176.875 L 277.222656 195.574219 L 274.382812 195.574219 Z M 274.382812 176.875 " clip-rule="nonzero"/></clipPath><clipPath id="73dc80810d"><path d="M 274.390625 195.578125 L 282.351562 195.578125 L 282.351562 198.515625 L 274.390625 198.515625 Z M 274.390625 195.578125 " clip-rule="nonzero"/></clipPath><clipPath id="22cf9f2a57"><path d="M 264.105469 197.042969 L 267.042969 197.042969 L 267.042969 203.402344 L 264.105469 203.402344 Z M 264.105469 197.042969 " clip-rule="nonzero"/></clipPath><clipPath id="1ae434a58b"><path d="M 264.109375 200.457031 L 282.011719 200.457031 L 282.011719 203.394531 L 264.109375 203.394531 Z M 264.109375 200.457031 " clip-rule="nonzero"/></clipPath><clipPath id="d49379a5e5"><path d="M 264.097656 195.578125 L 267.035156 195.578125 L 267.035156 198.511719 L 264.097656 198.511719 Z M 264.097656 195.578125 " clip-rule="nonzero"/></clipPath><clipPath id="3d2bdaaf6b"><path d="M 264.394531 176.878906 L 272.152344 176.878906 L 272.152344 179.816406 L 264.394531 179.816406 Z M 264.394531 176.878906 " clip-rule="nonzero"/></clipPath><clipPath id="4f55d16f15"><path d="M 269.316406 178.34375 L 272.15625 178.34375 L 272.15625 195.574219 L 269.316406 195.574219 Z M 269.316406 178.34375 " clip-rule="nonzero"/></clipPath><clipPath id="7b892a32d3"><path d="M 264.394531 195.578125 L 272.152344 195.578125 L 272.152344 198.515625 L 264.394531 198.515625 Z M 264.394531 195.578125 " clip-rule="nonzero"/></clipPath><clipPath id="2d56cd3547"><path d="M 333.539062 186.640625 L 336.378906 186.640625 L 336.378906 200.464844 L 333.539062 200.464844 Z M 333.539062 186.640625 " clip-rule="nonzero"/></clipPath><clipPath id="68fa07b730"><path d="M 325.96875 184.703125 L 336.371094 184.703125 L 336.371094 187.640625 L 325.96875 187.640625 Z M 325.96875 184.703125 " clip-rule="nonzero"/></clipPath><clipPath id="b8b07734ab"><path d="M 325.96875 185.578125 L 328.90625 185.578125 L 328.90625 189.652344 L 325.96875 189.652344 Z M 325.96875 185.578125 " clip-rule="nonzero"/></clipPath><clipPath id="d1fa16a658"><path d="M 325.96875 189.328125 L 331.34375 189.328125 L 331.34375 192.261719 L 325.96875 192.261719 Z M 325.96875 189.328125 " clip-rule="nonzero"/></clipPath><clipPath id="5852b3bee2"><path d="M 328.511719 191.613281 L 331.351562 191.613281 L 331.351562 196.789062 L 328.511719 196.789062 Z M 328.511719 191.613281 " clip-rule="nonzero"/></clipPath><clipPath id="9305c73dab"><path d="M 317.4375 195.226562 L 331.347656 195.226562 L 331.347656 198.160156 L 317.4375 198.160156 Z M 317.4375 195.226562 " clip-rule="nonzero"/></clipPath><clipPath id="2564b755f5"><path d="M 317.433594 197.757812 L 320.371094 197.757812 L 320.371094 203.078125 L 317.433594 203.078125 Z M 317.433594 197.757812 " clip-rule="nonzero"/></clipPath><clipPath id="f22b416182"><path d="M 317.4375 200.078125 L 331.347656 200.078125 L 331.347656 203.015625 L 317.4375 203.015625 Z M 317.4375 200.078125 " clip-rule="nonzero"/></clipPath><clipPath id="437bae747c"><path d="M 261.566406 170.429688 L 266.644531 170.429688 L 266.644531 175.511719 L 261.566406 175.511719 Z M 261.566406 170.429688 " clip-rule="nonzero"/></clipPath><clipPath id="98b7f27ca4"><path d="M 264.105469 170.429688 C 262.703125 170.429688 261.566406 171.566406 261.566406 172.96875 C 261.566406 174.371094 262.703125 175.511719 264.105469 175.511719 C 265.507812 175.511719 266.644531 174.371094 266.644531 172.96875 C 266.644531 171.566406 265.507812 170.429688 264.105469 170.429688 Z M 264.105469 170.429688 " clip-rule="nonzero"/></clipPath><clipPath id="826a60ddb8"><path d="M 261.566406 170.429688 L 266.640625 170.429688 L 266.640625 175.503906 L 261.566406 175.503906 Z M 261.566406 170.429688 " clip-rule="nonzero"/></clipPath><clipPath id="ae9cac74e7"><path d="M 264.105469 170.429688 C 262.703125 170.429688 261.566406 171.566406 261.566406 172.96875 C 261.566406 174.367188 262.703125 175.503906 264.105469 175.503906 C 265.503906 175.503906 266.640625 174.367188 266.640625 172.96875 C 266.640625 171.566406 265.503906 170.429688 264.105469 170.429688 Z M 264.105469 170.429688 " clip-rule="nonzero"/></clipPath><clipPath id="33c8160d84"><path d="M 280.738281 199.394531 L 285.816406 199.394531 L 285.816406 204.472656 L 280.738281 204.472656 Z M 280.738281 199.394531 " clip-rule="nonzero"/></clipPath><clipPath id="3b25fb1fb5"><path d="M 283.277344 199.394531 C 281.875 199.394531 280.738281 200.53125 280.738281 201.933594 C 280.738281 203.335938 281.875 204.472656 283.277344 204.472656 C 284.679688 204.472656 285.816406 203.335938 285.816406 201.933594 C 285.816406 200.53125 284.679688 199.394531 283.277344 199.394531 Z M 283.277344 199.394531 " clip-rule="nonzero"/></clipPath><clipPath id="a29b0c38f7"><path d="M 280.738281 199.394531 L 285.8125 199.394531 L 285.8125 204.46875 L 280.738281 204.46875 Z M 280.738281 199.394531 " clip-rule="nonzero"/></clipPath><clipPath id="7369126190"><path d="M 283.273438 199.394531 C 281.875 199.394531 280.738281 200.527344 280.738281 201.929688 C 280.738281 203.332031 281.875 204.46875 283.273438 204.46875 C 284.675781 204.46875 285.8125 203.332031 285.8125 201.929688 C 285.8125 200.527344 284.675781 199.394531 283.273438 199.394531 Z M 283.273438 199.394531 " clip-rule="nonzero"/></clipPath><clipPath id="2316ed2655"><path d="M 236.25 170.164062 L 241.328125 170.164062 L 241.328125 175.242188 L 236.25 175.242188 Z M 236.25 170.164062 " clip-rule="nonzero"/></clipPath><clipPath id="01e97dee99"><path d="M 238.789062 170.164062 C 237.386719 170.164062 236.25 171.300781 236.25 172.703125 C 236.25 174.105469 237.386719 175.242188 238.789062 175.242188 C 240.191406 175.242188 241.328125 174.105469 241.328125 172.703125 C 241.328125 171.300781 240.191406 170.164062 238.789062 170.164062 Z M 238.789062 170.164062 " clip-rule="nonzero"/></clipPath><clipPath id="d209927fa3"><path d="M 236.25 170.164062 L 241.324219 170.164062 L 241.324219 175.238281 L 236.25 175.238281 Z M 236.25 170.164062 " clip-rule="nonzero"/></clipPath><clipPath id="d892d0731e"><path d="M 238.785156 170.164062 C 237.386719 170.164062 236.25 171.300781 236.25 172.699219 C 236.25 174.101562 237.386719 175.238281 238.785156 175.238281 C 240.1875 175.238281 241.324219 174.101562 241.324219 172.699219 C 241.324219 171.300781 240.1875 170.164062 238.785156 170.164062 Z M 238.785156 170.164062 " clip-rule="nonzero"/></clipPath><clipPath id="d26e42a827"><path d="M 248.207031 199.660156 L 253.289062 199.660156 L 253.289062 204.738281 L 248.207031 204.738281 Z M 248.207031 199.660156 " clip-rule="nonzero"/></clipPath><clipPath id="63b8cbec13"><path d="M 250.746094 199.660156 C 249.34375 199.660156 248.207031 200.796875 248.207031 202.199219 C 248.207031 203.601562 249.34375 204.738281 250.746094 204.738281 C 252.148438 204.738281 253.289062 203.601562 253.289062 202.199219 C 253.289062 200.796875 252.148438 199.660156 250.746094 199.660156 Z M 250.746094 199.660156 " clip-rule="nonzero"/></clipPath><clipPath id="4654500df8"><path d="M 248.207031 199.660156 L 253.28125 199.660156 L 253.28125 204.734375 L 248.207031 204.734375 Z M 248.207031 199.660156 " clip-rule="nonzero"/></clipPath><clipPath id="ec4f9d8a2d"><path d="M 250.746094 199.660156 C 249.34375 199.660156 248.207031 200.796875 248.207031 202.199219 C 248.207031 203.597656 249.34375 204.734375 250.746094 204.734375 C 252.144531 204.734375 253.28125 203.597656 253.28125 202.199219 C 253.28125 200.796875 252.144531 199.660156 250.746094 199.660156 Z M 250.746094 199.660156 " clip-rule="nonzero"/></clipPath><clipPath id="292ec23471"><path d="M 290.753906 171.363281 L 293.59375 171.363281 L 293.59375 198.113281 L 290.753906 198.113281 Z M 290.753906 171.363281 " clip-rule="nonzero"/></clipPath><clipPath id="2ac41a5227"><path d="M 291.210938 171.355469 L 307.941406 171.355469 L 307.941406 174.292969 L 291.210938 174.292969 Z M 291.210938 171.355469 " clip-rule="nonzero"/></clipPath><clipPath id="9e9854e7fe"><path d="M 295.710938 176.476562 L 298.550781 176.476562 L 298.550781 198.113281 L 295.710938 198.113281 Z M 295.710938 176.476562 " clip-rule="nonzero"/></clipPath><clipPath id="4fefc74830"><path d="M 295.707031 195.175781 L 310.53125 195.175781 L 310.53125 198.113281 L 295.707031 198.113281 Z M 295.707031 195.175781 " clip-rule="nonzero"/></clipPath><clipPath id="8dd00ea761"><path d="M 307.933594 195.171875 L 310.871094 195.171875 L 310.871094 203.320312 L 307.933594 203.320312 Z M 307.933594 195.171875 " clip-rule="nonzero"/></clipPath><clipPath id="244519df35"><path d="M 292.625 200.382812 L 310.527344 200.382812 L 310.527344 203.320312 L 292.625 203.320312 Z M 292.625 200.382812 " clip-rule="nonzero"/></clipPath><clipPath id="144c404bcf"><path d="M 295.707031 176.476562 L 308.996094 176.476562 L 308.996094 179.414062 L 295.707031 179.414062 Z M 295.707031 176.476562 " clip-rule="nonzero"/></clipPath><clipPath id="185d0b421d"><path d="M 307.457031 170.429688 L 312.539062 170.429688 L 312.539062 175.511719 L 307.457031 175.511719 Z M 307.457031 170.429688 " clip-rule="nonzero"/></clipPath><clipPath id="a84c42417b"><path d="M 309.996094 170.429688 C 308.59375 170.429688 307.457031 171.566406 307.457031 172.96875 C 307.457031 174.371094 308.59375 175.511719 309.996094 175.511719 C 311.398438 175.511719 312.539062 174.371094 312.539062 172.96875 C 312.539062 171.566406 311.398438 170.429688 309.996094 170.429688 Z M 309.996094 170.429688 " clip-rule="nonzero"/></clipPath><clipPath id="44001fa24e"><path d="M 307.457031 170.429688 L 312.53125 170.429688 L 312.53125 175.503906 L 307.457031 175.503906 Z M 307.457031 170.429688 " clip-rule="nonzero"/></clipPath><clipPath id="0f62e71349"><path d="M 309.996094 170.429688 C 308.59375 170.429688 307.457031 171.566406 307.457031 172.96875 C 307.457031 174.367188 308.59375 175.503906 309.996094 175.503906 C 311.394531 175.503906 312.53125 174.367188 312.53125 172.96875 C 312.53125 171.566406 311.394531 170.429688 309.996094 170.429688 Z M 309.996094 170.429688 " clip-rule="nonzero"/></clipPath><clipPath id="097c2b7d0a"><path d="M 289.09375 199.519531 L 294.175781 199.519531 L 294.175781 204.601562 L 289.09375 204.601562 Z M 289.09375 199.519531 " clip-rule="nonzero"/></clipPath><clipPath id="e5d3e60bb4"><path d="M 291.636719 199.519531 C 290.230469 199.519531 289.09375 200.65625 289.09375 202.0625 C 289.09375 203.464844 290.230469 204.601562 291.636719 204.601562 C 293.039062 204.601562 294.175781 203.464844 294.175781 202.0625 C 294.175781 200.65625 293.039062 199.519531 291.636719 199.519531 Z M 291.636719 199.519531 " clip-rule="nonzero"/></clipPath><clipPath id="74414ca45b"><path d="M 289.09375 199.519531 L 294.167969 199.519531 L 294.167969 204.59375 L 289.09375 204.59375 Z M 289.09375 199.519531 " clip-rule="nonzero"/></clipPath><clipPath id="b5088c9836"><path d="M 291.632812 199.519531 C 290.230469 199.519531 289.09375 200.65625 289.09375 202.058594 C 289.09375 203.460938 290.230469 204.59375 291.632812 204.59375 C 293.035156 204.59375 294.167969 203.460938 294.167969 202.058594 C 294.167969 200.65625 293.035156 199.519531 291.632812 199.519531 Z M 291.632812 199.519531 " clip-rule="nonzero"/></clipPath><clipPath id="76c2dc528b"><path d="M 317.0625 174.304688 L 319.902344 174.304688 L 319.902344 188.128906 L 317.0625 188.128906 Z M 317.0625 174.304688 " clip-rule="nonzero"/></clipPath><clipPath id="21dbb06369"><path d="M 317.066406 187.128906 L 327.46875 187.128906 L 327.46875 190.066406 L 317.066406 190.066406 Z M 317.066406 187.128906 " clip-rule="nonzero"/></clipPath><clipPath id="5089fa9ce7"><path d="M 324.53125 185.117188 L 327.46875 185.117188 L 327.46875 189.191406 L 324.53125 189.191406 Z M 324.53125 185.117188 " clip-rule="nonzero"/></clipPath><clipPath id="06da8d556d"><path d="M 322.09375 182.507812 L 327.46875 182.507812 L 327.46875 185.445312 L 322.09375 185.445312 Z M 322.09375 182.507812 " clip-rule="nonzero"/></clipPath><clipPath id="272fae2a15"><path d="M 322.089844 177.984375 L 324.929688 177.984375 L 324.929688 183.15625 L 322.089844 183.15625 Z M 322.089844 177.984375 " clip-rule="nonzero"/></clipPath><clipPath id="9d1eb053f8"><path d="M 322.089844 176.613281 L 336.003906 176.613281 L 336.003906 179.550781 L 322.089844 179.550781 Z M 322.089844 176.613281 " clip-rule="nonzero"/></clipPath><clipPath id="1bc223a0d1"><path d="M 333.070312 171.699219 L 336.003906 171.699219 L 336.003906 177.019531 L 333.070312 177.019531 Z M 333.070312 171.699219 " clip-rule="nonzero"/></clipPath><clipPath id="52daee3e36"><path d="M 322.089844 171.761719 L 336.003906 171.761719 L 336.003906 174.695312 L 322.089844 174.695312 Z M 322.089844 171.761719 " clip-rule="nonzero"/></clipPath><clipPath id="0ca7d1fa78"><path d="M 315.816406 170.675781 L 320.894531 170.675781 L 320.894531 175.757812 L 315.816406 175.757812 Z M 315.816406 170.675781 " clip-rule="nonzero"/></clipPath><clipPath id="c334c9a834"><path d="M 318.355469 170.675781 C 316.953125 170.675781 315.816406 171.8125 315.816406 173.214844 C 315.816406 174.621094 316.953125 175.757812 318.355469 175.757812 C 319.757812 175.757812 320.894531 174.621094 320.894531 173.214844 C 320.894531 171.8125 319.757812 170.675781 318.355469 170.675781 Z M 318.355469 170.675781 " clip-rule="nonzero"/></clipPath><clipPath id="94fd7b3d5e"><path d="M 315.816406 170.675781 L 320.890625 170.675781 L 320.890625 175.75 L 315.816406 175.75 Z M 315.816406 170.675781 " clip-rule="nonzero"/></clipPath><clipPath id="e581650444"><path d="M 318.351562 170.675781 C 316.949219 170.675781 315.816406 171.8125 315.816406 173.214844 C 315.816406 174.613281 316.949219 175.75 318.351562 175.75 C 319.753906 175.75 320.890625 174.613281 320.890625 173.214844 C 320.890625 171.8125 319.753906 170.675781 318.351562 170.675781 Z M 318.351562 170.675781 " clip-rule="nonzero"/></clipPath><clipPath id="9c9f005880"><path d="M 332.421875 199.519531 L 337.5 199.519531 L 337.5 204.601562 L 332.421875 204.601562 Z M 332.421875 199.519531 " clip-rule="nonzero"/></clipPath><clipPath id="dab1186a4b"><path d="M 334.960938 199.519531 C 333.558594 199.519531 332.421875 200.65625 332.421875 202.0625 C 332.421875 203.464844 333.558594 204.601562 334.960938 204.601562 C 336.363281 204.601562 337.5 203.464844 337.5 202.0625 C 337.5 200.65625 336.363281 199.519531 334.960938 199.519531 Z M 334.960938 199.519531 " clip-rule="nonzero"/></clipPath><clipPath id="17fb8ce9c7"><path d="M 332.421875 199.519531 L 337.496094 199.519531 L 337.496094 204.59375 L 332.421875 204.59375 Z M 332.421875 199.519531 " clip-rule="nonzero"/></clipPath><clipPath id="a1342e20c0"><path d="M 334.957031 199.519531 C 333.554688 199.519531 332.421875 200.65625 332.421875 202.058594 C 332.421875 203.460938 333.554688 204.59375 334.957031 204.59375 C 336.359375 204.59375 337.496094 203.460938 337.496094 202.058594 C 337.496094 200.65625 336.359375 199.519531 334.957031 199.519531 Z M 334.957031 199.519531 " clip-rule="nonzero"/></clipPath><clipPath id="434e54dd36"><path d="M 39.160156 171.3125 L 42 171.3125 L 42 198.0625 L 39.160156 198.0625 Z M 39.160156 171.3125 " clip-rule="nonzero"/></clipPath><clipPath id="704994891b"><path d="M 39.617188 171.308594 L 56.347656 171.308594 L 56.347656 174.242188 L 39.617188 174.242188 Z M 39.617188 171.308594 " clip-rule="nonzero"/></clipPath><clipPath id="0955d86f47"><path d="M 44.117188 176.425781 L 46.957031 176.425781 L 46.957031 198.0625 L 44.117188 198.0625 Z M 44.117188 176.425781 " clip-rule="nonzero"/></clipPath><clipPath id="791eaf0797"><path d="M 44.109375 195.128906 L 58.9375 195.128906 L 58.9375 198.066406 L 44.109375 198.066406 Z M 44.109375 195.128906 " clip-rule="nonzero"/></clipPath><clipPath id="064d117e4d"><path d="M 56.339844 195.125 L 59.277344 195.125 L 59.277344 203.269531 L 56.339844 203.269531 Z M 56.339844 195.125 " clip-rule="nonzero"/></clipPath><clipPath id="9beee7c51f"><path d="M 41.03125 200.332031 L 58.933594 200.332031 L 58.933594 203.269531 L 41.03125 203.269531 Z M 41.03125 200.332031 " clip-rule="nonzero"/></clipPath><clipPath id="f4e1ad65d7"><path d="M 44.109375 176.429688 L 57.402344 176.429688 L 57.402344 179.367188 L 44.109375 179.367188 Z M 44.109375 176.429688 " clip-rule="nonzero"/></clipPath><clipPath id="1e6261d932"><path d="M 68.269531 171.78125 L 86.0625 171.78125 L 86.0625 174.71875 L 68.269531 174.71875 Z M 68.269531 171.78125 " clip-rule="nonzero"/></clipPath><clipPath id="612a5a6f3f"><path d="M 83.121094 174.03125 L 86.058594 174.03125 L 86.058594 176.890625 L 83.121094 176.890625 Z M 83.121094 174.03125 " clip-rule="nonzero"/></clipPath><clipPath id="b965a6d8f1"><path d="M 77.164062 176.894531 L 86.0625 176.894531 L 86.0625 179.832031 L 77.164062 179.832031 Z M 77.164062 176.894531 " clip-rule="nonzero"/></clipPath><clipPath id="5f0f66dee9"><path d="M 77.167969 176.890625 L 80.011719 176.890625 L 80.011719 195.589844 L 77.167969 195.589844 Z M 77.167969 176.890625 " clip-rule="nonzero"/></clipPath><clipPath id="9e6bcc3098"><path d="M 77.175781 195.59375 L 85.136719 195.59375 L 85.136719 198.53125 L 77.175781 198.53125 Z M 77.175781 195.59375 " clip-rule="nonzero"/></clipPath><clipPath id="03ac8c22ed"><path d="M 66.894531 197.058594 L 69.832031 197.058594 L 69.832031 203.414062 L 66.894531 203.414062 Z M 66.894531 197.058594 " clip-rule="nonzero"/></clipPath><clipPath id="9eb14f678b"><path d="M 66.894531 200.46875 L 84.800781 200.46875 L 84.800781 203.40625 L 66.894531 203.40625 Z M 66.894531 200.46875 " clip-rule="nonzero"/></clipPath><clipPath id="a4620d9959"><path d="M 66.886719 195.589844 L 69.824219 195.589844 L 69.824219 198.527344 L 66.886719 198.527344 Z M 66.886719 195.589844 " clip-rule="nonzero"/></clipPath><clipPath id="20c8cb0317"><path d="M 67.183594 176.894531 L 74.941406 176.894531 L 74.941406 179.832031 L 67.183594 179.832031 Z M 67.183594 176.894531 " clip-rule="nonzero"/></clipPath><clipPath id="63b146d517"><path d="M 72.101562 178.359375 L 74.941406 178.359375 L 74.941406 195.589844 L 72.101562 195.589844 Z M 72.101562 178.359375 " clip-rule="nonzero"/></clipPath><clipPath id="8a1fa12548"><path d="M 67.183594 195.59375 L 74.941406 195.59375 L 74.941406 198.53125 L 67.183594 198.53125 Z M 67.183594 195.59375 " clip-rule="nonzero"/></clipPath><clipPath id="58fda82438"><path d="M 148.316406 174.714844 L 151.15625 174.714844 L 151.15625 203.578125 L 148.316406 203.578125 Z M 148.316406 174.714844 " clip-rule="nonzero"/></clipPath><clipPath id="c8bb510309"><path d="M 149.429688 200.574219 L 165.617188 200.574219 L 165.617188 203.511719 L 149.429688 203.511719 Z M 149.429688 200.574219 " clip-rule="nonzero"/></clipPath><clipPath id="300b03649c"><path d="M 153.125 173.277344 L 155.964844 173.277344 L 155.964844 198.527344 L 153.125 198.527344 Z M 153.125 173.277344 " clip-rule="nonzero"/></clipPath><clipPath id="f97ed9e01b"><path d="M 153.136719 195.59375 L 164.667969 195.59375 L 164.667969 198.53125 L 153.136719 198.53125 Z M 153.136719 195.59375 " clip-rule="nonzero"/></clipPath><clipPath id="ed7ac49bf1"><path d="M 162.78125 173.246094 L 165.621094 173.246094 L 165.621094 198.496094 L 162.78125 198.496094 Z M 162.78125 173.246094 " clip-rule="nonzero"/></clipPath><clipPath id="c4383dfd60"><path d="M 163.339844 173.246094 L 169.773438 173.246094 L 169.773438 176.179688 L 163.339844 176.179688 Z M 163.339844 173.246094 " clip-rule="nonzero"/></clipPath><clipPath id="60dcfb1b24"><path d="M 167.5 173.246094 L 170.339844 173.246094 L 170.339844 200.238281 L 167.5 200.238281 Z M 167.5 173.246094 " clip-rule="nonzero"/></clipPath><clipPath id="4f82fdc323"><path d="M 179.019531 171.78125 L 196.808594 171.78125 L 196.808594 174.71875 L 179.019531 174.71875 Z M 179.019531 171.78125 " clip-rule="nonzero"/></clipPath><clipPath id="18210771b0"><path d="M 193.867188 174.019531 L 196.804688 174.019531 L 196.804688 178.285156 L 193.867188 178.285156 Z M 193.867188 174.019531 " clip-rule="nonzero"/></clipPath><clipPath id="fb9e15ddfe"><path d="M 187.914062 176.894531 L 196.808594 176.894531 L 196.808594 179.832031 L 187.914062 179.832031 Z M 187.914062 176.894531 " clip-rule="nonzero"/></clipPath><clipPath id="1f989257c6"><path d="M 187.925781 195.59375 L 195.882812 195.59375 L 195.882812 198.53125 L 187.925781 198.53125 Z M 187.925781 195.59375 " clip-rule="nonzero"/></clipPath><clipPath id="6c1604fd24"><path d="M 177.640625 197.058594 L 180.578125 197.058594 L 180.578125 203.414062 L 177.640625 203.414062 Z M 177.640625 197.058594 " clip-rule="nonzero"/></clipPath><clipPath id="c434edef72"><path d="M 177.640625 200.46875 L 195.546875 200.46875 L 195.546875 203.40625 L 177.640625 203.40625 Z M 177.640625 200.46875 " clip-rule="nonzero"/></clipPath><clipPath id="f46cb307ca"><path d="M 177.632812 195.589844 L 180.570312 195.589844 L 180.570312 198.527344 L 177.632812 198.527344 Z M 177.632812 195.589844 " clip-rule="nonzero"/></clipPath><clipPath id="fa74754541"><path d="M 177.929688 176.894531 L 185.6875 176.894531 L 185.6875 179.832031 L 177.929688 179.832031 Z M 177.929688 176.894531 " clip-rule="nonzero"/></clipPath><clipPath id="282d03a45a"><path d="M 182.847656 178.359375 L 185.691406 178.359375 L 185.691406 195.589844 L 182.847656 195.589844 Z M 182.847656 178.359375 " clip-rule="nonzero"/></clipPath><clipPath id="daad695241"><path d="M 177.929688 195.59375 L 185.6875 195.59375 L 185.6875 198.53125 L 177.929688 198.53125 Z M 177.929688 195.59375 " clip-rule="nonzero"/></clipPath><clipPath id="25f4d8e7b3"><path d="M 187.917969 179.0625 L 190.757812 179.0625 L 190.757812 196.292969 L 187.917969 196.292969 Z M 187.917969 179.0625 " clip-rule="nonzero"/></clipPath><clipPath id="3d5e812049"><path d="M 55.863281 170.382812 L 60.941406 170.382812 L 60.941406 175.460938 L 55.863281 175.460938 Z M 55.863281 170.382812 " clip-rule="nonzero"/></clipPath><clipPath id="a9983ad74b"><path d="M 58.402344 170.382812 C 57 170.382812 55.863281 171.519531 55.863281 172.921875 C 55.863281 174.324219 57 175.460938 58.402344 175.460938 C 59.804688 175.460938 60.941406 174.324219 60.941406 172.921875 C 60.941406 171.519531 59.804688 170.382812 58.402344 170.382812 Z M 58.402344 170.382812 " clip-rule="nonzero"/></clipPath><clipPath id="daa04eb0d5"><path d="M 55.863281 170.382812 L 60.9375 170.382812 L 60.9375 175.457031 L 55.863281 175.457031 Z M 55.863281 170.382812 " clip-rule="nonzero"/></clipPath><clipPath id="73add30bb1"><path d="M 58.398438 170.382812 C 57 170.382812 55.863281 171.515625 55.863281 172.917969 C 55.863281 174.320312 57 175.457031 58.398438 175.457031 C 59.800781 175.457031 60.9375 174.320312 60.9375 172.917969 C 60.9375 171.515625 59.800781 170.382812 58.398438 170.382812 Z M 58.398438 170.382812 " clip-rule="nonzero"/></clipPath><clipPath id="9ac6154c83"><path d="M 37.5 199.472656 L 42.578125 199.472656 L 42.578125 204.550781 L 37.5 204.550781 Z M 37.5 199.472656 " clip-rule="nonzero"/></clipPath><clipPath id="c59c92842e"><path d="M 40.039062 199.472656 C 38.636719 199.472656 37.5 200.609375 37.5 202.011719 C 37.5 203.414062 38.636719 204.550781 40.039062 204.550781 C 41.441406 204.550781 42.578125 203.414062 42.578125 202.011719 C 42.578125 200.609375 41.441406 199.472656 40.039062 199.472656 Z M 40.039062 199.472656 " clip-rule="nonzero"/></clipPath><clipPath id="624e727bb7"><path d="M 37.5 199.472656 L 42.574219 199.472656 L 42.574219 204.546875 L 37.5 204.546875 Z M 37.5 199.472656 " clip-rule="nonzero"/></clipPath><clipPath id="133a8acd99"><path d="M 40.039062 199.472656 C 38.636719 199.472656 37.5 200.609375 37.5 202.007812 C 37.5 203.410156 38.636719 204.546875 40.039062 204.546875 C 41.4375 204.546875 42.574219 203.410156 42.574219 202.007812 C 42.574219 200.609375 41.4375 199.472656 40.039062 199.472656 Z M 40.039062 199.472656 " clip-rule="nonzero"/></clipPath><clipPath id="4e0ce95599"><path d="M 83.523438 199.667969 L 88.605469 199.667969 L 88.605469 204.746094 L 83.523438 204.746094 Z M 83.523438 199.667969 " clip-rule="nonzero"/></clipPath><clipPath id="7240de6f16"><path d="M 86.0625 199.667969 C 84.660156 199.667969 83.523438 200.804688 83.523438 202.207031 C 83.523438 203.609375 84.660156 204.746094 86.0625 204.746094 C 87.46875 204.746094 88.605469 203.609375 88.605469 202.207031 C 88.605469 200.804688 87.46875 199.667969 86.0625 199.667969 Z M 86.0625 199.667969 " clip-rule="nonzero"/></clipPath><clipPath id="340feafb37"><path d="M 83.523438 199.667969 L 88.597656 199.667969 L 88.597656 204.742188 L 83.523438 204.742188 Z M 83.523438 199.667969 " clip-rule="nonzero"/></clipPath><clipPath id="153e1891ff"><path d="M 86.0625 199.667969 C 84.660156 199.667969 83.523438 200.800781 83.523438 202.203125 C 83.523438 203.605469 84.660156 204.742188 86.0625 204.742188 C 87.460938 204.742188 88.597656 203.605469 88.597656 202.203125 C 88.597656 200.800781 87.460938 199.667969 86.0625 199.667969 Z M 86.0625 199.667969 " clip-rule="nonzero"/></clipPath><clipPath id="3a94c27013"><path d="M 64.28125 170.382812 L 69.359375 170.382812 L 69.359375 175.460938 L 64.28125 175.460938 Z M 64.28125 170.382812 " clip-rule="nonzero"/></clipPath><clipPath id="3f86543458"><path d="M 66.820312 170.382812 C 65.417969 170.382812 64.28125 171.519531 64.28125 172.921875 C 64.28125 174.324219 65.417969 175.460938 66.820312 175.460938 C 68.222656 175.460938 69.359375 174.324219 69.359375 172.921875 C 69.359375 171.519531 68.222656 170.382812 66.820312 170.382812 Z M 66.820312 170.382812 " clip-rule="nonzero"/></clipPath><clipPath id="cc9bb49f60"><path d="M 64.28125 170.382812 L 69.355469 170.382812 L 69.355469 175.457031 L 64.28125 175.457031 Z M 64.28125 170.382812 " clip-rule="nonzero"/></clipPath><clipPath id="ea15465e23"><path d="M 66.816406 170.382812 C 65.417969 170.382812 64.28125 171.515625 64.28125 172.917969 C 64.28125 174.320312 65.417969 175.457031 66.816406 175.457031 C 68.21875 175.457031 69.355469 174.320312 69.355469 172.917969 C 69.355469 171.515625 68.21875 170.382812 66.816406 170.382812 Z M 66.816406 170.382812 " clip-rule="nonzero"/></clipPath><clipPath id="8cde78c913"><path d="M 121.207031 171.507812 L 124.046875 171.507812 L 124.046875 198.257812 L 121.207031 198.257812 Z M 121.207031 171.507812 " clip-rule="nonzero"/></clipPath><clipPath id="9dba21bdab"><path d="M 121.667969 171.5 L 138.394531 171.5 L 138.394531 174.4375 L 121.667969 174.4375 Z M 121.667969 171.5 " clip-rule="nonzero"/></clipPath><clipPath id="0f8907d34a"><path d="M 126.164062 176.621094 L 129.007812 176.621094 L 129.007812 198.257812 L 126.164062 198.257812 Z M 126.164062 176.621094 " clip-rule="nonzero"/></clipPath><clipPath id="18523acafc"><path d="M 126.160156 195.320312 L 140.988281 195.320312 L 140.988281 198.257812 L 126.160156 198.257812 Z M 126.160156 195.320312 " clip-rule="nonzero"/></clipPath><clipPath id="af3add2953"><path d="M 138.390625 195.316406 L 141.328125 195.316406 L 141.328125 203.464844 L 138.390625 203.464844 Z M 138.390625 195.316406 " clip-rule="nonzero"/></clipPath><clipPath id="0e33fd00e0"><path d="M 123.078125 200.527344 L 140.984375 200.527344 L 140.984375 203.464844 L 123.078125 203.464844 Z M 123.078125 200.527344 " clip-rule="nonzero"/></clipPath><clipPath id="91e0f24db6"><path d="M 126.160156 176.621094 L 139.453125 176.621094 L 139.453125 179.558594 L 126.160156 179.558594 Z M 126.160156 176.621094 " clip-rule="nonzero"/></clipPath><clipPath id="fbce05a4af"><path d="M 137.914062 170.574219 L 142.992188 170.574219 L 142.992188 175.65625 L 137.914062 175.65625 Z M 137.914062 170.574219 " clip-rule="nonzero"/></clipPath><clipPath id="7375764c6f"><path d="M 140.453125 170.574219 C 139.050781 170.574219 137.914062 171.710938 137.914062 173.113281 C 137.914062 174.519531 139.050781 175.65625 140.453125 175.65625 C 141.855469 175.65625 142.992188 174.519531 142.992188 173.113281 C 142.992188 171.710938 141.855469 170.574219 140.453125 170.574219 Z M 140.453125 170.574219 " clip-rule="nonzero"/></clipPath><clipPath id="212b5eeba2"><path d="M 137.914062 170.574219 L 142.988281 170.574219 L 142.988281 175.648438 L 137.914062 175.648438 Z M 137.914062 170.574219 " clip-rule="nonzero"/></clipPath><clipPath id="d6ac79c2a6"><path d="M 140.449219 170.574219 C 139.046875 170.574219 137.914062 171.710938 137.914062 173.113281 C 137.914062 174.511719 139.046875 175.648438 140.449219 175.648438 C 141.851562 175.648438 142.988281 174.511719 142.988281 173.113281 C 142.988281 171.710938 141.851562 170.574219 140.449219 170.574219 Z M 140.449219 170.574219 " clip-rule="nonzero"/></clipPath><clipPath id="edd86ff7ff"><path d="M 119.550781 199.667969 L 124.628906 199.667969 L 124.628906 204.746094 L 119.550781 204.746094 Z M 119.550781 199.667969 " clip-rule="nonzero"/></clipPath><clipPath id="6a68b4dbc7"><path d="M 122.089844 199.667969 C 120.6875 199.667969 119.550781 200.804688 119.550781 202.207031 C 119.550781 203.609375 120.6875 204.746094 122.089844 204.746094 C 123.492188 204.746094 124.628906 203.609375 124.628906 202.207031 C 124.628906 200.804688 123.492188 199.667969 122.089844 199.667969 Z M 122.089844 199.667969 " clip-rule="nonzero"/></clipPath><clipPath id="343b15f8c8"><path d="M 119.550781 199.667969 L 124.625 199.667969 L 124.625 204.742188 L 119.550781 204.742188 Z M 119.550781 199.667969 " clip-rule="nonzero"/></clipPath><clipPath id="0e625455af"><path d="M 122.085938 199.667969 C 120.6875 199.667969 119.550781 200.800781 119.550781 202.203125 C 119.550781 203.605469 120.6875 204.742188 122.085938 204.742188 C 123.488281 204.742188 124.625 203.605469 124.625 202.203125 C 124.625 200.800781 123.488281 199.667969 122.085938 199.667969 Z M 122.085938 199.667969 " clip-rule="nonzero"/></clipPath><clipPath id="ccafae5888"><path d="M 147.003906 170.707031 L 152.082031 170.707031 L 152.082031 175.785156 L 147.003906 175.785156 Z M 147.003906 170.707031 " clip-rule="nonzero"/></clipPath><clipPath id="2f78045740"><path d="M 149.542969 170.707031 C 148.140625 170.707031 147.003906 171.84375 147.003906 173.246094 C 147.003906 174.648438 148.140625 175.785156 149.542969 175.785156 C 150.945312 175.785156 152.082031 174.648438 152.082031 173.246094 C 152.082031 171.84375 150.945312 170.707031 149.542969 170.707031 Z M 149.542969 170.707031 " clip-rule="nonzero"/></clipPath><clipPath id="903a4b8e2e"><path d="M 147.003906 170.707031 L 152.078125 170.707031 L 152.078125 175.78125 L 147.003906 175.78125 Z M 147.003906 170.707031 " clip-rule="nonzero"/></clipPath><clipPath id="4fcafad7fd"><path d="M 149.539062 170.707031 C 148.136719 170.707031 147.003906 171.84375 147.003906 173.242188 C 147.003906 174.644531 148.136719 175.78125 149.539062 175.78125 C 150.941406 175.78125 152.078125 174.644531 152.078125 173.242188 C 152.078125 171.84375 150.941406 170.707031 149.539062 170.707031 Z M 149.539062 170.707031 " clip-rule="nonzero"/></clipPath><clipPath id="42c7b6e9fd"><path d="M 166.277344 199.667969 L 171.359375 199.667969 L 171.359375 204.746094 L 166.277344 204.746094 Z M 166.277344 199.667969 " clip-rule="nonzero"/></clipPath><clipPath id="f1a64ce3f3"><path d="M 168.816406 199.667969 C 167.414062 199.667969 166.277344 200.804688 166.277344 202.207031 C 166.277344 203.609375 167.414062 204.746094 168.816406 204.746094 C 170.222656 204.746094 171.359375 203.609375 171.359375 202.207031 C 171.359375 200.804688 170.222656 199.667969 168.816406 199.667969 Z M 168.816406 199.667969 " clip-rule="nonzero"/></clipPath><clipPath id="f58bcd81fb"><path d="M 166.277344 199.667969 L 171.351562 199.667969 L 171.351562 204.742188 L 166.277344 204.742188 Z M 166.277344 199.667969 " clip-rule="nonzero"/></clipPath><clipPath id="48e0e519c5"><path d="M 168.816406 199.667969 C 167.414062 199.667969 166.277344 200.800781 166.277344 202.203125 C 166.277344 203.605469 167.414062 204.742188 168.816406 204.742188 C 170.214844 204.742188 171.351562 203.605469 171.351562 202.203125 C 171.351562 200.800781 170.214844 199.667969 168.816406 199.667969 Z M 168.816406 199.667969 " clip-rule="nonzero"/></clipPath><clipPath id="cb39ecea5a"><path d="M 175.390625 170.707031 L 180.472656 170.707031 L 180.472656 175.785156 L 175.390625 175.785156 Z M 175.390625 170.707031 " clip-rule="nonzero"/></clipPath><clipPath id="e82021b942"><path d="M 177.933594 170.707031 C 176.527344 170.707031 175.390625 171.84375 175.390625 173.246094 C 175.390625 174.648438 176.527344 175.785156 177.933594 175.785156 C 179.335938 175.785156 180.472656 174.648438 180.472656 173.246094 C 180.472656 171.84375 179.335938 170.707031 177.933594 170.707031 Z M 177.933594 170.707031 " clip-rule="nonzero"/></clipPath><clipPath id="4be3d82e90"><path d="M 175.390625 170.707031 L 180.464844 170.707031 L 180.464844 175.78125 L 175.390625 175.78125 Z M 175.390625 170.707031 " clip-rule="nonzero"/></clipPath><clipPath id="77e9cbaa87"><path d="M 177.929688 170.707031 C 176.527344 170.707031 175.390625 171.84375 175.390625 173.242188 C 175.390625 174.644531 176.527344 175.78125 177.929688 175.78125 C 179.332031 175.78125 180.464844 174.644531 180.464844 173.242188 C 180.464844 171.84375 179.332031 170.707031 177.929688 170.707031 Z M 177.929688 170.707031 " clip-rule="nonzero"/></clipPath><clipPath id="822c709b36"><path d="M 194.269531 199.570312 L 199.351562 199.570312 L 199.351562 204.648438 L 194.269531 204.648438 Z M 194.269531 199.570312 " clip-rule="nonzero"/></clipPath><clipPath id="3fb8d8a4db"><path d="M 196.8125 199.570312 C 195.40625 199.570312 194.269531 200.707031 194.269531 202.109375 C 194.269531 203.511719 195.40625 204.648438 196.8125 204.648438 C 198.214844 204.648438 199.351562 203.511719 199.351562 202.109375 C 199.351562 200.707031 198.214844 199.570312 196.8125 199.570312 Z M 196.8125 199.570312 " clip-rule="nonzero"/></clipPath><clipPath id="851302efa4"><path d="M 194.269531 199.570312 L 199.34375 199.570312 L 199.34375 204.644531 L 194.269531 204.644531 Z M 194.269531 199.570312 " clip-rule="nonzero"/></clipPath><clipPath id="65e3ef6016"><path d="M 196.808594 199.570312 C 195.40625 199.570312 194.269531 200.707031 194.269531 202.105469 C 194.269531 203.507812 195.40625 204.644531 196.808594 204.644531 C 198.210938 204.644531 199.34375 203.507812 199.34375 202.105469 C 199.34375 200.707031 198.210938 199.570312 196.808594 199.570312 Z M 196.808594 199.570312 " clip-rule="nonzero"/></clipPath><clipPath id="0dd2309cdf"><path d="M 97.726562 171.625 L 112.101562 171.625 L 112.101562 174.15625 L 97.726562 174.15625 Z M 97.726562 171.625 " clip-rule="nonzero"/></clipPath><clipPath id="7ee70875f5"><path d="M 97.730469 174.15625 L 100.261719 174.15625 L 100.261719 176.625 L 97.730469 176.625 Z M 97.730469 174.15625 " clip-rule="nonzero"/></clipPath><clipPath id="033540de2c"><path d="M 97.726562 175.921875 L 109.183594 175.921875 L 109.183594 178.453125 L 97.726562 178.453125 Z M 97.726562 175.921875 " clip-rule="nonzero"/></clipPath><clipPath id="b1d1dc5e82"><path d="M 106.730469 176.546875 L 109.175781 176.546875 L 109.175781 183.832031 L 106.730469 183.832031 Z M 106.730469 176.546875 " clip-rule="nonzero"/></clipPath><clipPath id="78c4c7499f"><path d="M 97.726562 183.269531 L 109.183594 183.269531 L 109.183594 185.800781 L 97.726562 185.800781 Z M 97.726562 183.269531 " clip-rule="nonzero"/></clipPath><clipPath id="f4c535045f"><path d="M 97.816406 183.835938 L 100.261719 183.835938 L 100.261719 203.730469 L 97.816406 203.730469 Z M 97.816406 183.835938 " clip-rule="nonzero"/></clipPath><clipPath id="24673aacdc"><path d="M 96.066406 200.960938 L 98.660156 200.960938 L 98.660156 203.625 L 96.066406 203.625 Z M 96.066406 200.960938 " clip-rule="nonzero"/></clipPath><clipPath id="a0eec2da75"><path d="M 93.949219 174.164062 L 96.394531 174.164062 L 96.394531 203.730469 L 93.949219 203.730469 Z M 93.949219 174.164062 " clip-rule="nonzero"/></clipPath><clipPath id="6dff8a43fe"><path d="M 110.871094 175.917969 L 113.320312 175.917969 L 113.320312 190.023438 L 110.871094 190.023438 Z M 110.871094 175.917969 " clip-rule="nonzero"/></clipPath><clipPath id="3d530811f3"><path d="M 101.007812 187.496094 L 112.464844 187.496094 L 112.464844 190.027344 L 101.007812 190.027344 Z M 101.007812 187.496094 " clip-rule="nonzero"/></clipPath><clipPath id="d5b7e3af74"><path d="M 111.3125 191.183594 L 113.761719 191.183594 L 113.761719 200.8125 L 111.3125 200.8125 Z M 111.3125 191.183594 " clip-rule="nonzero"/></clipPath><clipPath id="4a62ee8dcc"><path d="M 107.039062 191.183594 L 109.488281 191.183594 L 109.488281 203.144531 L 107.039062 203.144531 Z M 107.039062 191.183594 " clip-rule="nonzero"/></clipPath><clipPath id="88e31c3e10"><path d="M 109.195312 191.179688 L 111.726562 191.179688 L 111.726562 193.644531 L 109.195312 193.644531 Z M 109.195312 191.179688 " clip-rule="nonzero"/></clipPath><clipPath id="d74c1d6a12"><path d="M 101 188 L 109 188 L 109 204 L 101 204 Z M 101 188 " clip-rule="nonzero"/></clipPath><clipPath id="89d7e1fe3a"><path d="M 101.011719 189.675781 L 103.265625 188.71875 L 108.988281 202.183594 L 106.734375 203.140625 Z M 101.011719 189.675781 " clip-rule="nonzero"/></clipPath><clipPath id="97bedbbcdf"><path d="M 101.011719 189.675781 L 103.265625 188.71875 L 108.988281 202.183594 L 106.734375 203.140625 Z M 101.011719 189.675781 " clip-rule="nonzero"/></clipPath><clipPath id="933a4c67fb"><path d="M 109.929688 199.757812 L 115.007812 199.757812 L 115.007812 204.835938 L 109.929688 204.835938 Z M 109.929688 199.757812 " clip-rule="nonzero"/></clipPath><clipPath id="bff6e1c8ea"><path d="M 112.46875 199.757812 C 111.066406 199.757812 109.929688 200.894531 109.929688 202.296875 C 109.929688 203.699219 111.066406 204.835938 112.46875 204.835938 C 113.871094 204.835938 115.007812 203.699219 115.007812 202.296875 C 115.007812 200.894531 113.871094 199.757812 112.46875 199.757812 Z M 112.46875 199.757812 " clip-rule="nonzero"/></clipPath><clipPath id="3d7bb2c315"><path d="M 109.929688 199.757812 L 115.003906 199.757812 L 115.003906 204.832031 L 109.929688 204.832031 Z M 109.929688 199.757812 " clip-rule="nonzero"/></clipPath><clipPath id="4acdc131e7"><path d="M 112.464844 199.757812 C 111.066406 199.757812 109.929688 200.894531 109.929688 202.292969 C 109.929688 203.695312 111.066406 204.832031 112.464844 204.832031 C 113.867188 204.832031 115.003906 203.695312 115.003906 202.292969 C 115.003906 200.894531 113.867188 199.757812 112.464844 199.757812 Z M 112.464844 199.757812 " clip-rule="nonzero"/></clipPath><clipPath id="4b661fb547"><path d="M 110.792969 170.382812 L 115.871094 170.382812 L 115.871094 175.460938 L 110.792969 175.460938 Z M 110.792969 170.382812 " clip-rule="nonzero"/></clipPath><clipPath id="8dd019a082"><path d="M 113.332031 170.382812 C 111.929688 170.382812 110.792969 171.519531 110.792969 172.921875 C 110.792969 174.324219 111.929688 175.460938 113.332031 175.460938 C 114.734375 175.460938 115.871094 174.324219 115.871094 172.921875 C 115.871094 171.519531 114.734375 170.382812 113.332031 170.382812 Z M 113.332031 170.382812 " clip-rule="nonzero"/></clipPath><clipPath id="4a4f5172cd"><path d="M 110.792969 170.382812 L 115.867188 170.382812 L 115.867188 175.457031 L 110.792969 175.457031 Z M 110.792969 170.382812 " clip-rule="nonzero"/></clipPath><clipPath id="8dddb02c1d"><path d="M 113.328125 170.382812 C 111.929688 170.382812 110.792969 171.515625 110.792969 172.917969 C 110.792969 174.320312 111.929688 175.457031 113.328125 175.457031 C 114.730469 175.457031 115.867188 174.320312 115.867188 172.917969 C 115.867188 171.515625 114.730469 170.382812 113.328125 170.382812 Z M 113.328125 170.382812 " clip-rule="nonzero"/></clipPath><clipPath id="e42074dcda"><path d="M 92.28125 170.382812 L 97.363281 170.382812 L 97.363281 175.460938 L 92.28125 175.460938 Z M 92.28125 170.382812 " clip-rule="nonzero"/></clipPath><clipPath id="9e493bccb9"><path d="M 94.820312 170.382812 C 93.417969 170.382812 92.28125 171.519531 92.28125 172.921875 C 92.28125 174.324219 93.417969 175.460938 94.820312 175.460938 C 96.222656 175.460938 97.363281 174.324219 97.363281 172.921875 C 97.363281 171.519531 96.222656 170.382812 94.820312 170.382812 Z M 94.820312 170.382812 " clip-rule="nonzero"/></clipPath><clipPath id="63455c3dae"><path d="M 92.28125 170.382812 L 97.355469 170.382812 L 97.355469 175.457031 L 92.28125 175.457031 Z M 92.28125 170.382812 " clip-rule="nonzero"/></clipPath><clipPath id="42dd202a86"><path d="M 94.820312 170.382812 C 93.417969 170.382812 92.28125 171.515625 92.28125 172.917969 C 92.28125 174.320312 93.417969 175.457031 94.820312 175.457031 C 96.21875 175.457031 97.355469 174.320312 97.355469 172.917969 C 97.355469 171.515625 96.21875 170.382812 94.820312 170.382812 Z M 94.820312 170.382812 " clip-rule="nonzero"/></clipPath><clipPath id="89949ae9fd"><path d="M 200.945312 171.082031 L 233.945312 171.082031 L 233.945312 204.832031 L 200.945312 204.832031 Z M 200.945312 171.082031 " clip-rule="nonzero"/></clipPath></defs><g clip-path="url(#95ca03b485)"><path fill="#000000" d="M 257.628906 171.140625 L 257.628906 174.078125 L 239.839844 174.078125 L 239.839844 171.140625 Z M 257.628906 171.140625 " fill-opacity="1" fill-rule="nonzero"/></g><g clip-path="url(#7633b84235)"><path fill="#000000" d="M 257.625 177.773438 L 254.6875 177.773438 L 254.6875 173.382812 L 257.625 173.382812 Z M 257.625 177.773438 " fill-opacity="1" fill-rule="nonzero"/></g><g clip-path="url(#689cec471d)"><path fill="#000000" d="M 257.625 176.085938 L 257.625 179.019531 L 244.800781 179.019531 L 244.800781 176.085938 Z M 257.625 176.085938 " fill-opacity="1" fill-rule="nonzero"/></g><g clip-path="url(#da48e89736)"><path fill="#000000" d="M 249.328125 180.988281 L 252.167969 180.988281 L 252.167969 201.007812 L 249.328125 201.007812 Z M 249.328125 180.988281 " fill-opacity="1" fill-rule="nonzero"/></g><g clip-path="url(#38cc8a4021)"><path fill="#000000" d="M 244.808594 178.925781 L 247.648438 178.925781 L 247.648438 203.265625 L 244.808594 203.265625 Z M 244.808594 178.925781 " fill-opacity="1" fill-rule="nonzero"/></g><g clip-path="url(#193f15a525)"><path fill="#000000" d="M 242.832031 176.082031 L 242.832031 179.019531 L 238.78125 179.019531 L 238.78125 176.082031 Z M 242.832031 176.082031 " fill-opacity="1" fill-rule="nonzero"/></g><g clip-path="url(#6186ae51e2)"><path fill="#000000" d="M 283.273438 171.765625 L 283.273438 174.703125 L 265.484375 174.703125 L 265.484375 171.765625 Z M 283.273438 171.765625 " fill-opacity="1" fill-rule="nonzero"/></g><g clip-path="url(#46e6d7169b)"><path fill="#000000" d="M 283.269531 176.875 L 280.332031 176.875 L 280.332031 174.015625 L 283.269531 174.015625 Z M 283.269531 176.875 " fill-opacity="1" fill-rule="nonzero"/></g><g clip-path="url(#c1504b185f)"><path fill="#000000" d="M 283.273438 176.878906 L 283.273438 179.816406 L 274.378906 179.816406 L 274.378906 176.878906 Z M 283.273438 176.878906 " fill-opacity="1" fill-rule="nonzero"/></g><g clip-path="url(#d6560c3a5e)"><path fill="#000000" d="M 274.382812 176.875 L 277.222656 176.875 L 277.222656 195.578125 L 274.382812 195.578125 Z M 274.382812 176.875 " fill-opacity="1" fill-rule="nonzero"/></g><g clip-path="url(#73dc80810d)"><path fill="#000000" d="M 282.351562 195.578125 L 282.351562 198.515625 L 274.390625 198.515625 L 274.390625 195.578125 Z M 282.351562 195.578125 " fill-opacity="1" fill-rule="nonzero"/></g><g clip-path="url(#22cf9f2a57)"><path fill="#000000" d="M 264.105469 197.042969 L 267.042969 197.042969 L 267.042969 203.402344 L 264.105469 203.402344 Z M 264.105469 197.042969 " fill-opacity="1" fill-rule="nonzero"/></g><g clip-path="url(#1ae434a58b)"><path fill="#000000" d="M 264.109375 203.394531 L 264.109375 200.457031 L 282.011719 200.457031 L 282.011719 203.394531 Z M 264.109375 203.394531 " fill-opacity="1" fill-rule="nonzero"/></g><g clip-path="url(#d49379a5e5)"><path fill="#000000" d="M 267.035156 195.578125 L 267.035156 198.511719 L 264.097656 198.511719 L 264.097656 195.578125 Z M 267.035156 195.578125 " fill-opacity="1" fill-rule="nonzero"/></g><g clip-path="url(#3d2bdaaf6b)"><path fill="#000000" d="M 272.152344 176.878906 L 272.152344 179.816406 L 264.394531 179.816406 L 264.394531 176.878906 Z M 272.152344 176.878906 " fill-opacity="1" fill-rule="nonzero"/></g><g clip-path="url(#4f55d16f15)"><path fill="#000000" d="M 269.316406 178.34375 L 272.15625 178.34375 L 272.15625 195.574219 L 269.316406 195.574219 Z M 269.316406 178.34375 " fill-opacity="1" fill-rule="nonzero"/></g><g clip-path="url(#7b892a32d3)"><path fill="#000000" d="M 272.152344 195.578125 L 272.152344 198.515625 L 264.394531 198.515625 L 264.394531 195.578125 Z M 272.152344 195.578125 " fill-opacity="1" fill-rule="nonzero"/></g><g clip-path="url(#2d56cd3547)"><path fill="#000000" d="M 333.539062 186.640625 L 336.378906 186.640625 L 336.378906 200.464844 L 333.539062 200.464844 Z M 333.539062 186.640625 " fill-opacity="1" fill-rule="nonzero"/></g><g clip-path="url(#68fa07b730)"><path fill="#000000" d="M 336.371094 184.703125 L 336.371094 187.640625 L 325.96875 187.640625 L 325.96875 184.703125 Z M 336.371094 184.703125 " fill-opacity="1" fill-rule="nonzero"/></g><g clip-path="url(#b8b07734ab)"><path fill="#000000" d="M 328.90625 189.652344 L 325.96875 189.652344 L 325.96875 185.578125 L 328.90625 185.578125 Z M 328.90625 189.652344 " fill-opacity="1" fill-rule="nonzero"/></g><g clip-path="url(#d1fa16a658)"><path fill="#000000" d="M 331.34375 189.328125 L 331.34375 192.261719 L 325.96875 192.261719 L 325.96875 189.328125 Z M 331.34375 189.328125 " fill-opacity="1" fill-rule="nonzero"/></g><g clip-path="url(#5852b3bee2)"><path fill="#000000" d="M 328.511719 191.613281 L 331.351562 191.613281 L 331.351562 196.789062 L 328.511719 196.789062 Z M 328.511719 191.613281 " fill-opacity="1" fill-rule="nonzero"/></g><g clip-path="url(#9305c73dab)"><path fill="#000000" d="M 331.347656 195.226562 L 331.347656 198.160156 L 317.4375 198.160156 L 317.4375 195.226562 Z M 331.347656 195.226562 " fill-opacity="1" fill-rule="nonzero"/></g><g clip-path="url(#2564b755f5)"><path fill="#000000" d="M 320.371094 203.078125 L 317.433594 203.078125 L 317.433594 197.757812 L 320.371094 197.757812 Z M 320.371094 203.078125 " fill-opacity="1" fill-rule="nonzero"/></g><g clip-path="url(#f22b416182)"><path fill="#000000" d="M 331.347656 200.078125 L 331.347656 203.015625 L 317.4375 203.015625 L 317.4375 200.078125 Z M 331.347656 200.078125 " fill-opacity="1" fill-rule="nonzero"/></g><g clip-path="url(#437bae747c)"><g clip-path="url(#98b7f27ca4)"><path fill="#ffffff" d="M 261.566406 170.429688 L 266.644531 170.429688 L 266.644531 175.511719 L 261.566406 175.511719 Z M 261.566406 170.429688 " fill-opacity="1" fill-rule="nonzero"/></g></g><g clip-path="url(#826a60ddb8)"><g clip-path="url(#ae9cac74e7)"><path stroke-linecap="butt" transform="matrix(0.75, 0, 0, 0.75, 261.566443, 170.430282)" fill="none" stroke-linejoin="miter" d="M 3.385369 -0.000792145 C 1.515577 -0.000792145 -0.0000483651 1.514833 -0.0000483651 3.384625 C -0.0000483651 5.249208 1.515577 6.764833 3.385369 6.764833 C 5.249952 6.764833 6.765577 5.249208 6.765577 3.384625 C 6.765577 1.514833 5.249952 -0.000792145 3.385369 -0.000792145 Z M 3.385369 -0.000792145 " stroke="#000000" stroke-width="4" stroke-opacity="1" stroke-miterlimit="4"/></g></g><g clip-path="url(#33c8160d84)"><g clip-path="url(#3b25fb1fb5)"><path fill="#ffffff" d="M 280.738281 199.394531 L 285.816406 199.394531 L 285.816406 204.472656 L 280.738281 204.472656 Z M 280.738281 199.394531 " fill-opacity="1" fill-rule="nonzero"/></g></g><g clip-path="url(#a29b0c38f7)"><g clip-path="url(#7369126190)"><path stroke-linecap="butt" transform="matrix(0.75, 0, 0, 0.75, 280.737466, 199.393053)" fill="none" stroke-linejoin="miter" d="M 3.381295 0.00197166 C 1.516712 0.00197166 0.00108691 1.512388 0.00108691 3.38218 C 0.00108691 5.251972 1.516712 6.767597 3.381295 6.767597 C 5.251087 6.767597 6.766712 5.251972 6.766712 3.38218 C 6.766712 1.512388 5.251087 0.00197166 3.381295 0.00197166 Z M 3.381295 0.00197166 " stroke="#000000" stroke-width="4" stroke-opacity="1" stroke-miterlimit="4"/></g></g><g clip-path="url(#2316ed2655)"><g clip-path="url(#01e97dee99)"><path fill="#ffffff" d="M 236.25 170.164062 L 241.328125 170.164062 L 241.328125 175.242188 L 236.25 175.242188 Z M 236.25 170.164062 " fill-opacity="1" fill-rule="nonzero"/></g></g><g clip-path="url(#d209927fa3)"><g clip-path="url(#d892d0731e)"><path stroke-linecap="butt" transform="matrix(0.75, 0, 0, 0.75, 236.249461, 170.163037)" fill="none" stroke-linejoin="miter" d="M 3.380927 0.00136757 C 1.516344 0.00136757 0.000718685 1.516993 0.000718685 3.381576 C 0.000718685 5.251368 1.516344 6.766993 3.380927 6.766993 C 5.250719 6.766993 6.766344 5.251368 6.766344 3.381576 C 6.766344 1.516993 5.250719 0.00136757 3.380927 0.00136757 Z M 3.380927 0.00136757 " stroke="#000000" stroke-width="4" stroke-opacity="1" stroke-miterlimit="4"/></g></g><g clip-path="url(#d26e42a827)"><g clip-path="url(#63b8cbec13)"><path fill="#ffffff" d="M 248.207031 199.660156 L 253.289062 199.660156 L 253.289062 204.738281 L 248.207031 204.738281 Z M 248.207031 199.660156 " fill-opacity="1" fill-rule="nonzero"/></g></g><g clip-path="url(#4654500df8)"><g clip-path="url(#ec4f9d8a2d)"><path stroke-linecap="butt" transform="matrix(0.75, 0, 0, 0.75, 248.207537, 199.660182)" fill="none" stroke-linejoin="miter" d="M 3.384743 -0.000034452 C 1.514951 -0.000034452 -0.000674335 1.515591 -0.000674335 3.385382 C -0.000674335 5.249966 1.514951 6.765591 3.384743 6.765591 C 5.249326 6.765591 6.764951 5.249966 6.764951 3.385382 C 6.764951 1.515591 5.249326 -0.000034452 3.384743 -0.000034452 Z M 3.384743 -0.000034452 " stroke="#000000" stroke-width="4" stroke-opacity="1" stroke-miterlimit="4"/></g></g><g clip-path="url(#292ec23471)"><path fill="#000000" d="M 290.753906 171.363281 L 293.59375 171.363281 L 293.59375 198.113281 L 290.753906 198.113281 Z M 290.753906 171.363281 " fill-opacity="1" fill-rule="nonzero"/></g><g clip-path="url(#2ac41a5227)"><path fill="#000000" d="M 291.210938 174.292969 L 291.210938 171.355469 L 307.941406 171.355469 L 307.941406 174.292969 Z M 291.210938 174.292969 " fill-opacity="1" fill-rule="nonzero"/></g><g clip-path="url(#9e9854e7fe)"><path fill="#000000" d="M 295.710938 176.476562 L 298.550781 176.476562 L 298.550781 198.113281 L 295.710938 198.113281 Z M 295.710938 176.476562 " fill-opacity="1" fill-rule="nonzero"/></g><g clip-path="url(#4fefc74830)"><path fill="#000000" d="M 310.53125 195.175781 L 310.53125 198.113281 L 295.707031 198.113281 L 295.707031 195.175781 Z M 310.53125 195.175781 " fill-opacity="1" fill-rule="nonzero"/></g><g clip-path="url(#8dd00ea761)"><path fill="#000000" d="M 310.871094 203.320312 L 307.933594 203.320312 L 307.933594 195.171875 L 310.871094 195.171875 Z M 310.871094 203.320312 " fill-opacity="1" fill-rule="nonzero"/></g><g clip-path="url(#244519df35)"><path fill="#000000" d="M 310.527344 200.382812 L 310.527344 203.320312 L 292.625 203.320312 L 292.625 200.382812 Z M 310.527344 200.382812 " fill-opacity="1" fill-rule="nonzero"/></g><g clip-path="url(#144c404bcf)"><path fill="#000000" d="M 308.996094 176.476562 L 308.996094 179.414062 L 295.707031 179.414062 L 295.707031 176.476562 Z M 308.996094 176.476562 " fill-opacity="1" fill-rule="nonzero"/></g><g clip-path="url(#185d0b421d)"><g clip-path="url(#a84c42417b)"><path fill="#ffffff" d="M 307.457031 170.429688 L 312.539062 170.429688 L 312.539062 175.511719 L 307.457031 175.511719 Z M 307.457031 170.429688 " fill-opacity="1" fill-rule="nonzero"/></g></g><g clip-path="url(#44001fa24e)"><g clip-path="url(#0f62e71349)"><path stroke-linecap="butt" transform="matrix(0.75, 0, 0, 0.75, 307.457562, 170.430282)" fill="none" stroke-linejoin="miter" d="M 3.384709 -0.000792145 C 1.514918 -0.000792145 -0.000707547 1.514833 -0.000707547 3.384625 C -0.000707547 5.249208 1.514918 6.764833 3.384709 6.764833 C 5.249293 6.764833 6.764918 5.249208 6.764918 3.384625 C 6.764918 1.514833 5.249293 -0.000792145 3.384709 -0.000792145 Z M 3.384709 -0.000792145 " stroke="#000000" stroke-width="4" stroke-opacity="1" stroke-miterlimit="4"/></g></g><g clip-path="url(#097c2b7d0a)"><g clip-path="url(#e5d3e60bb4)"><path fill="#ffffff" d="M 289.09375 199.519531 L 294.175781 199.519531 L 294.175781 204.601562 L 289.09375 204.601562 Z M 289.09375 199.519531 " fill-opacity="1" fill-rule="nonzero"/></g></g><g clip-path="url(#74414ca45b)"><g clip-path="url(#b5088c9836)"><path stroke-linecap="butt" transform="matrix(0.75, 0, 0, 0.75, 289.095074, 199.521023)" fill="none" stroke-linejoin="miter" d="M 3.383651 -0.00198886 C 1.513859 -0.00198886 -0.00176575 1.513636 -0.00176575 3.383428 C -0.00176575 5.25322 1.513859 6.763637 3.383651 6.763637 C 5.253443 6.763637 6.76386 5.25322 6.76386 3.383428 C 6.76386 1.513636 5.253443 -0.00198886 3.383651 -0.00198886 Z M 3.383651 -0.00198886 " stroke="#000000" stroke-width="4" stroke-opacity="1" stroke-miterlimit="4"/></g></g><g clip-path="url(#76c2dc528b)"><path fill="#000000" d="M 319.902344 188.128906 L 317.0625 188.128906 L 317.0625 174.304688 L 319.902344 174.304688 Z M 319.902344 188.128906 " fill-opacity="1" fill-rule="nonzero"/></g><g clip-path="url(#21dbb06369)"><path fill="#000000" d="M 317.066406 190.066406 L 317.066406 187.128906 L 327.46875 187.128906 L 327.46875 190.066406 Z M 317.066406 190.066406 " fill-opacity="1" fill-rule="nonzero"/></g><g clip-path="url(#5089fa9ce7)"><path fill="#000000" d="M 324.53125 185.117188 L 327.46875 185.117188 L 327.46875 189.191406 L 324.53125 189.191406 Z M 324.53125 185.117188 " fill-opacity="1" fill-rule="nonzero"/></g><g clip-path="url(#06da8d556d)"><path fill="#000000" d="M 322.09375 185.445312 L 322.09375 182.507812 L 327.46875 182.507812 L 327.46875 185.445312 Z M 322.09375 185.445312 " fill-opacity="1" fill-rule="nonzero"/></g><g clip-path="url(#272fae2a15)"><path fill="#000000" d="M 324.929688 183.15625 L 322.089844 183.15625 L 322.089844 177.984375 L 324.929688 177.984375 Z M 324.929688 183.15625 " fill-opacity="1" fill-rule="nonzero"/></g><g clip-path="url(#9d1eb053f8)"><path fill="#000000" d="M 322.089844 179.550781 L 322.089844 176.613281 L 336.003906 176.613281 L 336.003906 179.550781 Z M 322.089844 179.550781 " fill-opacity="1" fill-rule="nonzero"/></g><g clip-path="url(#1bc223a0d1)"><path fill="#000000" d="M 333.070312 171.699219 L 336.003906 171.699219 L 336.003906 177.019531 L 333.070312 177.019531 Z M 333.070312 171.699219 " fill-opacity="1" fill-rule="nonzero"/></g><g clip-path="url(#52daee3e36)"><path fill="#000000" d="M 322.089844 174.695312 L 322.089844 171.761719 L 336.003906 171.761719 L 336.003906 174.695312 Z M 322.089844 174.695312 " fill-opacity="1" fill-rule="nonzero"/></g><g clip-path="url(#0ca7d1fa78)"><g clip-path="url(#c334c9a834)"><path fill="#ffffff" d="M 315.816406 170.675781 L 320.894531 170.675781 L 320.894531 175.757812 L 315.816406 175.757812 Z M 315.816406 170.675781 " fill-opacity="1" fill-rule="nonzero"/></g></g><g clip-path="url(#94fd7b3d5e)"><g clip-path="url(#e581650444)"><path stroke-linecap="butt" transform="matrix(0.75, 0, 0, 0.75, 315.81517, 170.676786)" fill="none" stroke-linejoin="miter" d="M 3.381857 -0.00133912 C 1.512065 -0.00133912 0.00164812 1.514286 0.00164812 3.384078 C 0.00164812 5.248661 1.512065 6.764286 3.381857 6.764286 C 5.251648 6.764286 6.767274 5.248661 6.767274 3.384078 C 6.767274 1.514286 5.251648 -0.00133912 3.381857 -0.00133912 Z M 3.381857 -0.00133912 " stroke="#000000" stroke-width="4" stroke-opacity="1" stroke-miterlimit="4"/></g></g><g clip-path="url(#9c9f005880)"><g clip-path="url(#dab1186a4b)"><path fill="#ffffff" d="M 332.421875 199.519531 L 337.5 199.519531 L 337.5 204.601562 L 332.421875 204.601562 Z M 332.421875 199.519531 " fill-opacity="1" fill-rule="nonzero"/></g></g><g clip-path="url(#17fb8ce9c7)"><g clip-path="url(#a1342e20c0)"><path stroke-linecap="butt" transform="matrix(0.75, 0, 0, 0.75, 332.420198, 199.521023)" fill="none" stroke-linejoin="miter" d="M 3.382445 -0.00198886 C 1.512653 -0.00198886 0.00223617 1.513636 0.00223617 3.383428 C 0.00223617 5.25322 1.512653 6.763637 3.382445 6.763637 C 5.252237 6.763637 6.767862 5.25322 6.767862 3.383428 C 6.767862 1.513636 5.252237 -0.00198886 3.382445 -0.00198886 Z M 3.382445 -0.00198886 " stroke="#000000" stroke-width="4" stroke-opacity="1" stroke-miterlimit="4"/></g></g><g clip-path="url(#434e54dd36)"><path fill="#000000" d="M 39.160156 171.3125 L 42 171.3125 L 42 198.0625 L 39.160156 198.0625 Z M 39.160156 171.3125 " fill-opacity="1" fill-rule="nonzero"/></g><g clip-path="url(#704994891b)"><path fill="#000000" d="M 39.617188 174.242188 L 39.617188 171.308594 L 56.347656 171.308594 L 56.347656 174.242188 Z M 39.617188 174.242188 " fill-opacity="1" fill-rule="nonzero"/></g><g clip-path="url(#0955d86f47)"><path fill="#000000" d="M 44.117188 176.425781 L 46.957031 176.425781 L 46.957031 198.0625 L 44.117188 198.0625 Z M 44.117188 176.425781 " fill-opacity="1" fill-rule="nonzero"/></g><g clip-path="url(#791eaf0797)"><path fill="#000000" d="M 58.9375 195.128906 L 58.9375 198.066406 L 44.109375 198.066406 L 44.109375 195.128906 Z M 58.9375 195.128906 " fill-opacity="1" fill-rule="nonzero"/></g><g clip-path="url(#064d117e4d)"><path fill="#000000" d="M 59.277344 203.269531 L 56.339844 203.269531 L 56.339844 195.125 L 59.277344 195.125 Z M 59.277344 203.269531 " fill-opacity="1" fill-rule="nonzero"/></g><g clip-path="url(#9beee7c51f)"><path fill="#000000" d="M 58.933594 200.332031 L 58.933594 203.269531 L 41.03125 203.269531 L 41.03125 200.332031 Z M 58.933594 200.332031 " fill-opacity="1" fill-rule="nonzero"/></g><g clip-path="url(#f4e1ad65d7)"><path fill="#000000" d="M 57.402344 176.429688 L 57.402344 179.367188 L 44.109375 179.367188 L 44.109375 176.429688 Z M 57.402344 176.429688 " fill-opacity="1" fill-rule="nonzero"/></g><g clip-path="url(#1e6261d932)"><path fill="#000000" d="M 86.0625 171.78125 L 86.0625 174.71875 L 68.269531 174.71875 L 68.269531 171.78125 Z M 86.0625 171.78125 " fill-opacity="1" fill-rule="nonzero"/></g><g clip-path="url(#612a5a6f3f)"><path fill="#000000" d="M 86.058594 176.890625 L 83.121094 176.890625 L 83.121094 174.03125 L 86.058594 174.03125 Z M 86.058594 176.890625 " fill-opacity="1" fill-rule="nonzero"/></g><g clip-path="url(#b965a6d8f1)"><path fill="#000000" d="M 86.0625 176.894531 L 86.0625 179.832031 L 77.164062 179.832031 L 77.164062 176.894531 Z M 86.0625 176.894531 " fill-opacity="1" fill-rule="nonzero"/></g><g clip-path="url(#5f0f66dee9)"><path fill="#000000" d="M 77.167969 176.890625 L 80.011719 176.890625 L 80.011719 195.589844 L 77.167969 195.589844 Z M 77.167969 176.890625 " fill-opacity="1" fill-rule="nonzero"/></g><g clip-path="url(#9e6bcc3098)"><path fill="#000000" d="M 85.136719 195.59375 L 85.136719 198.53125 L 77.175781 198.53125 L 77.175781 195.59375 Z M 85.136719 195.59375 " fill-opacity="1" fill-rule="nonzero"/></g><g clip-path="url(#03ac8c22ed)"><path fill="#000000" d="M 66.894531 197.058594 L 69.832031 197.058594 L 69.832031 203.414062 L 66.894531 203.414062 Z M 66.894531 197.058594 " fill-opacity="1" fill-rule="nonzero"/></g><g clip-path="url(#9eb14f678b)"><path fill="#000000" d="M 66.894531 203.40625 L 66.894531 200.46875 L 84.800781 200.46875 L 84.800781 203.40625 Z M 66.894531 203.40625 " fill-opacity="1" fill-rule="nonzero"/></g><g clip-path="url(#a4620d9959)"><path fill="#000000" d="M 69.824219 195.589844 L 69.824219 198.527344 L 66.886719 198.527344 L 66.886719 195.589844 Z M 69.824219 195.589844 " fill-opacity="1" fill-rule="nonzero"/></g><g clip-path="url(#20c8cb0317)"><path fill="#000000" d="M 74.941406 176.894531 L 74.941406 179.832031 L 67.183594 179.832031 L 67.183594 176.894531 Z M 74.941406 176.894531 " fill-opacity="1" fill-rule="nonzero"/></g><g clip-path="url(#63b146d517)"><path fill="#000000" d="M 72.101562 178.359375 L 74.941406 178.359375 L 74.941406 195.589844 L 72.101562 195.589844 Z M 72.101562 178.359375 " fill-opacity="1" fill-rule="nonzero"/></g><g clip-path="url(#8a1fa12548)"><path fill="#000000" d="M 74.941406 195.59375 L 74.941406 198.53125 L 67.183594 198.53125 L 67.183594 195.59375 Z M 74.941406 195.59375 " fill-opacity="1" fill-rule="nonzero"/></g><g clip-path="url(#58fda82438)"><path fill="#000000" d="M 148.316406 174.714844 L 151.15625 174.714844 L 151.15625 203.578125 L 148.316406 203.578125 Z M 148.316406 174.714844 " fill-opacity="1" fill-rule="nonzero"/></g><g clip-path="url(#c8bb510309)"><path fill="#000000" d="M 165.617188 200.574219 L 165.617188 203.511719 L 149.429688 203.511719 L 149.429688 200.574219 Z M 165.617188 200.574219 " fill-opacity="1" fill-rule="nonzero"/></g><g clip-path="url(#300b03649c)"><path fill="#000000" d="M 153.125 173.277344 L 155.964844 173.277344 L 155.964844 198.527344 L 153.125 198.527344 Z M 153.125 173.277344 " fill-opacity="1" fill-rule="nonzero"/></g><g clip-path="url(#f97ed9e01b)"><path fill="#000000" d="M 164.667969 195.59375 L 164.667969 198.53125 L 153.136719 198.53125 L 153.136719 195.59375 Z M 164.667969 195.59375 " fill-opacity="1" fill-rule="nonzero"/></g><g clip-path="url(#ed7ac49bf1)"><path fill="#000000" d="M 162.78125 173.246094 L 165.621094 173.246094 L 165.621094 198.496094 L 162.78125 198.496094 Z M 162.78125 173.246094 " fill-opacity="1" fill-rule="nonzero"/></g><g clip-path="url(#c4383dfd60)"><path fill="#000000" d="M 169.773438 173.246094 L 169.773438 176.179688 L 163.339844 176.179688 L 163.339844 173.246094 Z M 169.773438 173.246094 " fill-opacity="1" fill-rule="nonzero"/></g><g clip-path="url(#60dcfb1b24)"><path fill="#000000" d="M 167.5 173.246094 L 170.339844 173.246094 L 170.339844 200.238281 L 167.5 200.238281 Z M 167.5 173.246094 " fill-opacity="1" fill-rule="nonzero"/></g><g clip-path="url(#4f82fdc323)"><path fill="#000000" d="M 196.808594 171.78125 L 196.808594 174.71875 L 179.019531 174.71875 L 179.019531 171.78125 Z M 196.808594 171.78125 " fill-opacity="1" fill-rule="nonzero"/></g><g clip-path="url(#18210771b0)"><path fill="#000000" d="M 196.804688 178.285156 L 193.867188 178.285156 L 193.867188 174.019531 L 196.804688 174.019531 Z M 196.804688 178.285156 " fill-opacity="1" fill-rule="nonzero"/></g><g clip-path="url(#fb9e15ddfe)"><path fill="#000000" d="M 196.808594 176.894531 L 196.808594 179.832031 L 187.914062 179.832031 L 187.914062 176.894531 Z M 196.808594 176.894531 " fill-opacity="1" fill-rule="nonzero"/></g><g clip-path="url(#1f989257c6)"><path fill="#000000" d="M 195.882812 195.59375 L 195.882812 198.53125 L 187.925781 198.53125 L 187.925781 195.59375 Z M 195.882812 195.59375 " fill-opacity="1" fill-rule="nonzero"/></g><g clip-path="url(#6c1604fd24)"><path fill="#000000" d="M 177.640625 197.058594 L 180.578125 197.058594 L 180.578125 203.414062 L 177.640625 203.414062 Z M 177.640625 197.058594 " fill-opacity="1" fill-rule="nonzero"/></g><g clip-path="url(#c434edef72)"><path fill="#000000" d="M 177.640625 203.40625 L 177.640625 200.46875 L 195.546875 200.46875 L 195.546875 203.40625 Z M 177.640625 203.40625 " fill-opacity="1" fill-rule="nonzero"/></g><g clip-path="url(#f46cb307ca)"><path fill="#000000" d="M 180.570312 195.589844 L 180.570312 198.527344 L 177.632812 198.527344 L 177.632812 195.589844 Z M 180.570312 195.589844 " fill-opacity="1" fill-rule="nonzero"/></g><g clip-path="url(#fa74754541)"><path fill="#000000" d="M 185.6875 176.894531 L 185.6875 179.832031 L 177.929688 179.832031 L 177.929688 176.894531 Z M 185.6875 176.894531 " fill-opacity="1" fill-rule="nonzero"/></g><g clip-path="url(#282d03a45a)"><path fill="#000000" d="M 182.847656 178.359375 L 185.691406 178.359375 L 185.691406 195.589844 L 182.847656 195.589844 Z M 182.847656 178.359375 " fill-opacity="1" fill-rule="nonzero"/></g><g clip-path="url(#daad695241)"><path fill="#000000" d="M 185.6875 195.59375 L 185.6875 198.53125 L 177.929688 198.53125 L 177.929688 195.59375 Z M 185.6875 195.59375 " fill-opacity="1" fill-rule="nonzero"/></g><g clip-path="url(#25f4d8e7b3)"><path fill="#000000" d="M 187.917969 179.0625 L 190.757812 179.0625 L 190.757812 196.292969 L 187.917969 196.292969 Z M 187.917969 179.0625 " fill-opacity="1" fill-rule="nonzero"/></g><g clip-path="url(#3d5e812049)"><g clip-path="url(#a9983ad74b)"><path fill="#ffffff" d="M 55.863281 170.382812 L 60.941406 170.382812 L 60.941406 175.460938 L 55.863281 175.460938 Z M 55.863281 170.382812 " fill-opacity="1" fill-rule="nonzero"/></g></g><g clip-path="url(#daa04eb0d5)"><g clip-path="url(#73add30bb1)"><path stroke-linecap="butt" transform="matrix(0.75, 0, 0, 0.75, 55.862487, 170.381473)" fill="none" stroke-linejoin="miter" d="M 3.381267 0.00178625 C 1.516684 0.00178625 0.00105869 1.512203 0.00105869 3.381995 C 0.00105869 5.251787 1.516684 6.767412 3.381267 6.767412 C 5.251059 6.767412 6.766684 5.251787 6.766684 3.381995 C 6.766684 1.512203 5.251059 0.00178625 3.381267 0.00178625 Z M 3.381267 0.00178625 " stroke="#000000" stroke-width="4" stroke-opacity="1" stroke-miterlimit="4"/></g></g><g clip-path="url(#9ac6154c83)"><g clip-path="url(#c59c92842e)"><path fill="#ffffff" d="M 37.5 199.472656 L 42.578125 199.472656 L 42.578125 204.550781 L 37.5 204.550781 Z M 37.5 199.472656 " fill-opacity="1" fill-rule="nonzero"/></g></g><g clip-path="url(#624e727bb7)"><g clip-path="url(#133a8acd99)"><path stroke-linecap="butt" transform="matrix(0.75, 0, 0, 0.75, 37.500002, 199.472272)" fill="none" stroke-linejoin="miter" d="M 3.385414 0.000512732 C 1.515622 0.000512732 -0.00000271667 1.516138 -0.00000271667 3.380721 C -0.00000271667 5.250513 1.515622 6.766138 3.385414 6.766138 C 5.249998 6.766138 6.765623 5.250513 6.765623 3.380721 C 6.765623 1.516138 5.249998 0.000512732 3.385414 0.000512732 Z M 3.385414 0.000512732 " stroke="#000000" stroke-width="4" stroke-opacity="1" stroke-miterlimit="4"/></g></g><g clip-path="url(#4e0ce95599)"><g clip-path="url(#7240de6f16)"><path fill="#ffffff" d="M 83.523438 199.667969 L 88.605469 199.667969 L 88.605469 204.746094 L 83.523438 204.746094 Z M 83.523438 199.667969 " fill-opacity="1" fill-rule="nonzero"/></g></g><g clip-path="url(#340feafb37)"><g clip-path="url(#153e1891ff)"><path stroke-linecap="butt" transform="matrix(0.75, 0, 0, 0.75, 83.524429, 199.66604)" fill="none" stroke-linejoin="miter" d="M 3.384094 0.00257102 C 1.514303 0.00257102 -0.00132255 1.512988 -0.00132255 3.38278 C -0.00132255 5.252571 1.514303 6.768196 3.384094 6.768196 C 5.248678 6.768196 6.764303 5.252571 6.764303 3.38278 C 6.764303 1.512988 5.248678 0.00257102 3.384094 0.00257102 Z M 3.384094 0.00257102 " stroke="#000000" stroke-width="4" stroke-opacity="1" stroke-miterlimit="4"/></g></g><g clip-path="url(#3a94c27013)"><g clip-path="url(#3f86543458)"><path fill="#ffffff" d="M 64.28125 170.382812 L 69.359375 170.382812 L 69.359375 175.460938 L 64.28125 175.460938 Z M 64.28125 170.382812 " fill-opacity="1" fill-rule="nonzero"/></g></g><g clip-path="url(#cc9bb49f60)"><g clip-path="url(#ea15465e23)"><path stroke-linecap="butt" transform="matrix(0.75, 0, 0, 0.75, 64.280705, 170.381473)" fill="none" stroke-linejoin="miter" d="M 3.380935 0.00178625 C 1.516352 0.00178625 0.000726562 1.512203 0.000726562 3.381995 C 0.000726562 5.251787 1.516352 6.767412 3.380935 6.767412 C 5.250727 6.767412 6.766352 5.251787 6.766352 3.381995 C 6.766352 1.512203 5.250727 0.00178625 3.380935 0.00178625 Z M 3.380935 0.00178625 " stroke="#000000" stroke-width="4" stroke-opacity="1" stroke-miterlimit="4"/></g></g><g clip-path="url(#8cde78c913)"><path fill="#000000" d="M 121.207031 171.507812 L 124.050781 171.507812 L 124.050781 198.257812 L 121.207031 198.257812 Z M 121.207031 171.507812 " fill-opacity="1" fill-rule="nonzero"/></g><g clip-path="url(#9dba21bdab)"><path fill="#000000" d="M 121.667969 174.4375 L 121.667969 171.5 L 138.394531 171.5 L 138.394531 174.4375 Z M 121.667969 174.4375 " fill-opacity="1" fill-rule="nonzero"/></g><g clip-path="url(#0f8907d34a)"><path fill="#000000" d="M 126.164062 176.621094 L 129.007812 176.621094 L 129.007812 198.257812 L 126.164062 198.257812 Z M 126.164062 176.621094 " fill-opacity="1" fill-rule="nonzero"/></g><g clip-path="url(#18523acafc)"><path fill="#000000" d="M 140.988281 195.320312 L 140.988281 198.257812 L 126.160156 198.257812 L 126.160156 195.320312 Z M 140.988281 195.320312 " fill-opacity="1" fill-rule="nonzero"/></g><g clip-path="url(#af3add2953)"><path fill="#000000" d="M 141.328125 203.464844 L 138.390625 203.464844 L 138.390625 195.316406 L 141.328125 195.316406 Z M 141.328125 203.464844 " fill-opacity="1" fill-rule="nonzero"/></g><g clip-path="url(#0e33fd00e0)"><path fill="#000000" d="M 140.984375 200.527344 L 140.984375 203.464844 L 123.078125 203.464844 L 123.078125 200.527344 Z M 140.984375 200.527344 " fill-opacity="1" fill-rule="nonzero"/></g><g clip-path="url(#91e0f24db6)"><path fill="#000000" d="M 139.453125 176.621094 L 139.453125 179.558594 L 126.160156 179.558594 L 126.160156 176.621094 Z M 139.453125 176.621094 " fill-opacity="1" fill-rule="nonzero"/></g><g clip-path="url(#fbce05a4af)"><g clip-path="url(#7375764c6f)"><path fill="#ffffff" d="M 137.914062 170.574219 L 142.992188 170.574219 L 142.992188 175.65625 L 137.914062 175.65625 Z M 137.914062 170.574219 " fill-opacity="1" fill-rule="nonzero"/></g></g><g clip-path="url(#212b5eeba2)"><g clip-path="url(#d6ac79c2a6)"><path stroke-linecap="butt" transform="matrix(0.75, 0, 0, 0.75, 137.912383, 170.575302)" fill="none" stroke-linejoin="miter" d="M 3.382447 -0.0014438 C 1.512656 -0.0014438 0.00223874 1.514181 0.00223874 3.383973 C 0.00223874 5.248557 1.512656 6.764182 3.382447 6.764182 C 5.252239 6.764182 6.767864 5.248557 6.767864 3.383973 C 6.767864 1.514181 5.252239 -0.0014438 3.382447 -0.0014438 Z M 3.382447 -0.0014438 " stroke="#000000" stroke-width="4" stroke-opacity="1" stroke-miterlimit="4"/></g></g><g clip-path="url(#edd86ff7ff)"><g clip-path="url(#6a68b4dbc7)"><path fill="#ffffff" d="M 119.550781 199.667969 L 124.628906 199.667969 L 124.628906 204.746094 L 119.550781 204.746094 Z M 119.550781 199.667969 " fill-opacity="1" fill-rule="nonzero"/></g></g><g clip-path="url(#343b15f8c8)"><g clip-path="url(#0e625455af)"><path stroke-linecap="butt" transform="matrix(0.75, 0, 0, 0.75, 119.549901, 199.66604)" fill="none" stroke-linejoin="miter" d="M 3.381383 0.00257102 C 1.516799 0.00257102 0.00117413 1.512988 0.00117413 3.38278 C 0.00117413 5.252571 1.516799 6.768196 3.381383 6.768196 C 5.251174 6.768196 6.7668 5.252571 6.7668 3.38278 C 6.7668 1.512988 5.251174 0.00257102 3.381383 0.00257102 Z M 3.381383 0.00257102 " stroke="#000000" stroke-width="4" stroke-opacity="1" stroke-miterlimit="4"/></g></g><g clip-path="url(#ccafae5888)"><g clip-path="url(#2f78045740)"><path fill="#ffffff" d="M 147.003906 170.707031 L 152.082031 170.707031 L 152.082031 175.785156 L 147.003906 175.785156 Z M 147.003906 170.707031 " fill-opacity="1" fill-rule="nonzero"/></g></g><g clip-path="url(#903a4b8e2e)"><g clip-path="url(#4fcafad7fd)"><path stroke-linecap="butt" transform="matrix(0.75, 0, 0, 0.75, 147.002486, 170.706668)" fill="none" stroke-linejoin="miter" d="M 3.382102 0.000484346 C 1.51231 0.000484346 0.0018936 1.516109 0.0018936 3.380693 C 0.0018936 5.250485 1.51231 6.76611 3.382102 6.76611 C 5.251894 6.76611 6.767519 5.250485 6.767519 3.380693 C 6.767519 1.516109 5.251894 0.000484346 3.382102 0.000484346 Z M 3.382102 0.000484346 " stroke="#000000" stroke-width="4" stroke-opacity="1" stroke-miterlimit="4"/></g></g><g clip-path="url(#42c7b6e9fd)"><g clip-path="url(#f1a64ce3f3)"><path fill="#ffffff" d="M 166.277344 199.667969 L 171.359375 199.667969 L 171.359375 204.746094 L 166.277344 204.746094 Z M 166.277344 199.667969 " fill-opacity="1" fill-rule="nonzero"/></g></g><g clip-path="url(#f58bcd81fb)"><g clip-path="url(#48e0e519c5)"><path stroke-linecap="butt" transform="matrix(0.75, 0, 0, 0.75, 166.278378, 199.66604)" fill="none" stroke-linejoin="miter" d="M 3.384038 0.00257102 C 1.514247 0.00257102 -0.00137844 1.512988 -0.00137844 3.38278 C -0.00137844 5.252571 1.514247 6.768196 3.384038 6.768196 C 5.248622 6.768196 6.764247 5.252571 6.764247 3.38278 C 6.764247 1.512988 5.248622 0.00257102 3.384038 0.00257102 Z M 3.384038 0.00257102 " stroke="#000000" stroke-width="4" stroke-opacity="1" stroke-miterlimit="4"/></g></g><g clip-path="url(#cb39ecea5a)"><g clip-path="url(#e82021b942)"><path fill="#ffffff" d="M 175.390625 170.707031 L 180.472656 170.707031 L 180.472656 175.785156 L 175.390625 175.785156 Z M 175.390625 170.707031 " fill-opacity="1" fill-rule="nonzero"/></g></g><g clip-path="url(#4be3d82e90)"><g clip-path="url(#77e9cbaa87)"><path stroke-linecap="butt" transform="matrix(0.75, 0, 0, 0.75, 175.391991, 170.706668)" fill="none" stroke-linejoin="miter" d="M 3.383596 0.000484346 C 1.513804 0.000484346 -0.00182078 1.516109 -0.00182078 3.380693 C -0.00182078 5.250485 1.513804 6.76611 3.383596 6.76611 C 5.253388 6.76611 6.763805 5.250485 6.763805 3.380693 C 6.763805 1.516109 5.253388 0.000484346 3.383596 0.000484346 Z M 3.383596 0.000484346 " stroke="#000000" stroke-width="4" stroke-opacity="1" stroke-miterlimit="4"/></g></g><g clip-path="url(#822c709b36)"><g clip-path="url(#3fb8d8a4db)"><path fill="#ffffff" d="M 194.269531 199.570312 L 199.351562 199.570312 L 199.351562 204.648438 L 194.269531 204.648438 Z M 194.269531 199.570312 " fill-opacity="1" fill-rule="nonzero"/></g></g><g clip-path="url(#851302efa4)"><g clip-path="url(#65e3ef6016)"><path stroke-linecap="butt" transform="matrix(0.75, 0, 0, 0.75, 194.270982, 199.5703)" fill="none" stroke-linejoin="miter" d="M 3.383482 0.0000170735 C 1.513691 0.0000170735 -0.00193452 1.515642 -0.00193452 3.380226 C -0.00193452 5.250017 1.513691 6.765643 3.383482 6.765643 C 5.253274 6.765643 6.763691 5.250017 6.763691 3.380226 C 6.763691 1.515642 5.253274 0.0000170735 3.383482 0.0000170735 Z M 3.383482 0.0000170735 " stroke="#000000" stroke-width="4" stroke-opacity="1" stroke-miterlimit="4"/></g></g><g clip-path="url(#0dd2309cdf)"><path fill="#000000" d="M 112.101562 171.625 L 112.101562 174.15625 L 97.726562 174.15625 L 97.726562 171.625 Z M 112.101562 171.625 " fill-opacity="1" fill-rule="nonzero"/></g><g clip-path="url(#7ee70875f5)"><path fill="#000000" d="M 100.261719 176.625 L 97.730469 176.625 L 97.730469 174.15625 L 100.261719 174.15625 Z M 100.261719 176.625 " fill-opacity="1" fill-rule="nonzero"/></g><g clip-path="url(#033540de2c)"><path fill="#000000" d="M 109.183594 175.921875 L 109.183594 178.453125 L 97.726562 178.453125 L 97.726562 175.921875 Z M 109.183594 175.921875 " fill-opacity="1" fill-rule="nonzero"/></g><g clip-path="url(#b1d1dc5e82)"><path fill="#000000" d="M 109.175781 183.832031 L 106.730469 183.832031 L 106.730469 176.546875 L 109.175781 176.546875 Z M 109.175781 183.832031 " fill-opacity="1" fill-rule="nonzero"/></g><g clip-path="url(#78c4c7499f)"><path fill="#000000" d="M 109.183594 183.269531 L 109.183594 185.800781 L 97.726562 185.800781 L 97.726562 183.269531 Z M 109.183594 183.269531 " fill-opacity="1" fill-rule="nonzero"/></g><g clip-path="url(#f4c535045f)"><path fill="#000000" d="M 97.816406 183.835938 L 100.261719 183.835938 L 100.261719 203.730469 L 97.816406 203.730469 Z M 97.816406 183.835938 " fill-opacity="1" fill-rule="nonzero"/></g><g clip-path="url(#24673aacdc)"><path fill="#000000" d="M 96.066406 203.625 L 96.066406 200.960938 L 98.660156 200.960938 L 98.660156 203.625 Z M 96.066406 203.625 " fill-opacity="1" fill-rule="nonzero"/></g><g clip-path="url(#a0eec2da75)"><path fill="#000000" d="M 93.949219 174.164062 L 96.394531 174.164062 L 96.394531 203.730469 L 93.949219 203.730469 Z M 93.949219 174.164062 " fill-opacity="1" fill-rule="nonzero"/></g><g clip-path="url(#6dff8a43fe)"><path fill="#000000" d="M 113.320312 190.023438 L 110.871094 190.023438 L 110.871094 175.917969 L 113.320312 175.917969 Z M 113.320312 190.023438 " fill-opacity="1" fill-rule="nonzero"/></g><g clip-path="url(#3d530811f3)"><path fill="#000000" d="M 112.464844 187.496094 L 112.464844 190.027344 L 101.007812 190.027344 L 101.007812 187.496094 Z M 112.464844 187.496094 " fill-opacity="1" fill-rule="nonzero"/></g><g clip-path="url(#d5b7e3af74)"><path fill="#000000" d="M 111.3125 191.183594 L 113.761719 191.183594 L 113.761719 200.8125 L 111.3125 200.8125 Z M 111.3125 191.183594 " fill-opacity="1" fill-rule="nonzero"/></g><g clip-path="url(#4a62ee8dcc)"><path fill="#000000" d="M 107.039062 191.183594 L 109.488281 191.183594 L 109.488281 203.144531 L 107.039062 203.144531 Z M 107.039062 191.183594 " fill-opacity="1" fill-rule="nonzero"/></g><g clip-path="url(#88e31c3e10)"><path fill="#000000" d="M 111.726562 193.644531 L 109.195312 193.644531 L 109.195312 191.179688 L 111.726562 191.179688 Z M 111.726562 193.644531 " fill-opacity="1" fill-rule="nonzero"/></g><g clip-path="url(#d74c1d6a12)"><g clip-path="url(#89d7e1fe3a)"><g clip-path="url(#97bedbbcdf)"><path fill="#000000" d="M 101.011719 189.675781 L 103.265625 188.71875 L 108.988281 202.183594 L 106.734375 203.140625 Z M 101.011719 189.675781 " fill-opacity="1" fill-rule="nonzero"/></g></g></g><g clip-path="url(#933a4c67fb)"><g clip-path="url(#bff6e1c8ea)"><path fill="#ffffff" d="M 109.929688 199.757812 L 115.007812 199.757812 L 115.007812 204.835938 L 109.929688 204.835938 Z M 109.929688 199.757812 " fill-opacity="1" fill-rule="nonzero"/></g></g><g clip-path="url(#3d7bb2c315)"><g clip-path="url(#4acdc131e7)"><path stroke-linecap="butt" transform="matrix(0.75, 0, 0, 0.75, 109.928947, 199.757154)" fill="none" stroke-linejoin="miter" d="M 3.381196 0.00087789 C 1.516613 0.00087789 0.000987492 1.516503 0.000987492 3.381086 C 0.000987492 5.250878 1.516613 6.766503 3.381196 6.766503 C 5.250988 6.766503 6.766613 5.250878 6.766613 3.381086 C 6.766613 1.516503 5.250988 0.00087789 3.381196 0.00087789 Z M 3.381196 0.00087789 " stroke="#000000" stroke-width="4" stroke-opacity="1" stroke-miterlimit="4"/></g></g><g clip-path="url(#4b661fb547)"><g clip-path="url(#8dd019a082)"><path fill="#ffffff" d="M 110.792969 170.382812 L 115.871094 170.382812 L 115.871094 175.460938 L 110.792969 175.460938 Z M 110.792969 170.382812 " fill-opacity="1" fill-rule="nonzero"/></g></g><g clip-path="url(#4a4f5172cd)"><g clip-path="url(#8dddb02c1d)"><path stroke-linecap="butt" transform="matrix(0.75, 0, 0, 0.75, 110.792553, 170.381473)" fill="none" stroke-linejoin="miter" d="M 3.380763 0.00178625 C 1.516179 0.00178625 0.000554034 1.512203 0.000554034 3.381995 C 0.000554034 5.251787 1.516179 6.767412 3.380763 6.767412 C 5.250554 6.767412 6.766179 5.251787 6.766179 3.381995 C 6.766179 1.512203 5.250554 0.00178625 3.380763 0.00178625 Z M 3.380763 0.00178625 " stroke="#000000" stroke-width="4" stroke-opacity="1" stroke-miterlimit="4"/></g></g><g clip-path="url(#e42074dcda)"><g clip-path="url(#9e493bccb9)"><path fill="#ffffff" d="M 92.28125 170.382812 L 97.363281 170.382812 L 97.363281 175.460938 L 92.28125 175.460938 Z M 92.28125 170.382812 " fill-opacity="1" fill-rule="nonzero"/></g></g><g clip-path="url(#63455c3dae)"><g clip-path="url(#42dd202a86)"><path stroke-linecap="butt" transform="matrix(0.75, 0, 0, 0.75, 92.281786, 170.381473)" fill="none" stroke-linejoin="miter" d="M 3.384702 0.00178625 C 1.51491 0.00178625 -0.000715254 1.512203 -0.000715254 3.381995 C -0.000715254 5.251787 1.51491 6.767412 3.384702 6.767412 C 5.249285 6.767412 6.76491 5.251787 6.76491 3.381995 C 6.76491 1.512203 5.249285 0.00178625 3.384702 0.00178625 Z M 3.384702 0.00178625 " stroke="#000000" stroke-width="4" stroke-opacity="1" stroke-miterlimit="4"/></g></g><g clip-path="url(#89949ae9fd)"><path fill="#5e17eb" d="M 200.945312 202.871094 C 200.945312 203.144531 201.128906 203.417969 201.496094 203.417969 L 202.042969 203.417969 L 202.042969 203.96875 C 202.042969 204.699219 203.140625 204.699219 203.140625 203.96875 L 203.140625 203.417969 L 203.6875 203.417969 C 204.417969 203.417969 204.417969 202.324219 203.6875 202.324219 L 203.140625 202.324219 L 203.140625 201.773438 C 203.140625 201.042969 202.042969 201.042969 202.042969 201.773438 L 202.042969 202.324219 L 201.496094 202.324219 C 201.128906 202.324219 200.945312 202.597656 200.945312 202.871094 Z M 202.042969 199.582031 C 202.042969 200.3125 203.140625 200.3125 203.140625 199.582031 L 203.140625 197.390625 C 203.140625 196.65625 202.042969 196.65625 202.042969 197.390625 Z M 204.785156 183.132812 C 204.785156 187.234375 207.128906 190.773438 210.5625 192.472656 C 211.917969 194.4375 214.253906 195.742188 216.847656 195.742188 C 219.585938 195.746094 221.992188 194.3125 223.351562 192.144531 C 223.398438 192.429688 223.425781 192.707031 223.425781 193.003906 C 223.425781 195.742188 221.21875 197.933594 218.492188 197.933594 L 213.554688 197.933594 C 213.601562 197.933594 213.515625 197.945312 213.320312 197.835938 C 213.167969 197.75 212.972656 197.621094 212.761719 197.484375 C 212.558594 197.347656 212.34375 197.199219 212.121094 197.078125 C 211.898438 196.957031 211.648438 196.84375 211.363281 196.84375 L 208.074219 196.84375 C 207.773438 196.84375 207.527344 197.089844 207.527344 197.390625 L 207.527344 197.9375 L 205.882812 197.9375 C 205.148438 197.9375 205.148438 199.035156 205.882812 199.035156 L 207.527344 199.035156 L 207.527344 199.582031 C 207.527344 199.882812 207.773438 200.128906 208.074219 200.128906 L 210.816406 200.128906 C 210.769531 200.128906 210.871094 200.128906 211.050781 200.234375 C 211.203125 200.320312 211.402344 200.449219 211.609375 200.585938 C 211.65625 200.617188 211.699219 200.648438 211.746094 200.679688 C 211.699219 200.710938 211.65625 200.742188 211.609375 200.773438 C 211.402344 200.910156 211.203125 201.035156 211.050781 201.121094 C 210.847656 201.234375 210.769531 201.226562 210.816406 201.226562 L 208.074219 201.226562 C 207.769531 201.226562 207.527344 201.472656 207.527344 201.773438 L 207.527344 202.324219 L 205.882812 202.324219 C 205.515625 202.324219 205.332031 202.597656 205.332031 202.871094 C 205.332031 203.144531 205.515625 203.417969 205.882812 203.417969 L 207.527344 203.417969 L 207.527344 203.96875 C 207.527344 203.988281 207.527344 204.003906 207.527344 204.023438 C 207.554688 204.300781 207.792969 204.515625 208.074219 204.515625 L 211.363281 204.515625 C 211.683594 204.515625 211.96875 204.359375 212.121094 204.277344 C 212.34375 204.15625 212.558594 204.011719 212.761719 203.875 C 212.972656 203.738281 213.167969 203.609375 213.320312 203.523438 C 213.53125 203.410156 213.601562 203.417969 213.554688 203.417969 L 218.492188 203.417969 C 224.277344 203.417969 228.90625 198.761719 228.90625 193.003906 C 228.90625 188.902344 226.5625 185.363281 223.128906 183.664062 C 221.773438 181.699219 219.4375 180.394531 216.847656 180.394531 C 214.109375 180.390625 211.699219 181.828125 210.339844 183.992188 C 210.292969 183.707031 210.265625 183.429688 210.265625 183.132812 C 210.265625 180.394531 212.472656 178.203125 215.199219 178.203125 L 221.230469 178.203125 C 221.1875 178.203125 221.273438 178.191406 221.46875 178.304688 C 221.621094 178.390625 221.820312 178.515625 222.027344 178.65625 C 222.230469 178.792969 222.449219 178.941406 222.667969 179.058594 C 222.890625 179.179688 223.140625 179.292969 223.425781 179.292969 L 226.71875 179.292969 C 227.015625 179.292969 227.261719 179.046875 227.261719 178.75 L 227.261719 178.199219 L 228.910156 178.199219 C 229.640625 178.199219 229.640625 177.105469 228.910156 177.105469 L 227.261719 177.105469 L 227.261719 176.554688 C 227.261719 176.253906 227.015625 176.011719 226.71875 176.007812 L 223.976562 176.007812 C 224.019531 176.007812 223.921875 176.007812 223.742188 175.90625 C 223.585938 175.820312 223.386719 175.6875 223.183594 175.550781 C 223.132812 175.519531 223.09375 175.492188 223.042969 175.460938 C 223.09375 175.425781 223.132812 175.394531 223.183594 175.363281 C 223.386719 175.226562 223.585938 175.101562 223.742188 175.015625 C 223.941406 174.898438 224.019531 174.910156 223.976562 174.910156 L 226.71875 174.910156 C 227.019531 174.910156 227.261719 174.664062 227.261719 174.363281 L 227.261719 173.8125 L 228.910156 173.8125 C 229.277344 173.8125 229.457031 173.539062 229.457031 173.265625 C 229.457031 172.992188 229.277344 172.71875 228.910156 172.71875 L 227.261719 172.71875 L 227.261719 172.167969 C 227.261719 171.824219 226.996094 171.621094 226.71875 171.621094 L 223.425781 171.621094 C 223.105469 171.621094 222.820312 171.777344 222.667969 171.863281 C 222.449219 171.980469 222.230469 172.125 222.027344 172.261719 C 221.820312 172.398438 221.621094 172.527344 221.46875 172.613281 C 221.261719 172.726562 221.1875 172.71875 221.230469 172.71875 L 215.199219 172.71875 C 209.414062 172.71875 204.785156 177.375 204.785156 183.132812 Z M 205.882812 183.132812 C 205.882812 177.964844 210.042969 173.8125 215.199219 173.8125 L 221.230469 173.8125 C 221.5 173.8125 221.769531 173.699219 221.992188 173.578125 C 222.214844 173.457031 222.429688 173.316406 222.632812 173.175781 C 222.839844 173.039062 223.035156 172.910156 223.191406 172.824219 C 223.402344 172.699219 223.46875 172.71875 223.425781 172.71875 L 226.171875 172.71875 C 226.171875 173.085938 226.171875 173.449219 226.171875 173.8125 L 223.976562 173.8125 C 223.695312 173.8125 223.4375 173.933594 223.214844 174.054688 C 222.992188 174.175781 222.78125 174.316406 222.578125 174.453125 C 222.371094 174.589844 222.175781 174.722656 222.015625 174.808594 C 221.835938 174.910156 221.738281 174.910156 221.78125 174.910156 L 215.199219 174.910156 C 210.636719 174.910156 206.976562 178.589844 206.976562 183.132812 C 206.976562 185.316406 207.824219 187.304688 209.203125 188.777344 C 209.265625 189.414062 209.390625 190.007812 209.597656 190.59375 C 207.355469 188.914062 205.882812 186.203125 205.882812 183.132812 Z M 208.074219 183.132812 C 208.074219 179.175781 211.261719 176.007812 215.199219 176.007812 L 221.78125 176.007812 C 221.738281 176.007812 221.828125 176 222.015625 176.109375 C 222.175781 176.195312 222.371094 176.324219 222.578125 176.460938 C 222.78125 176.597656 222.992188 176.746094 223.214844 176.867188 C 223.4375 176.988281 223.722656 177.105469 223.976562 177.105469 L 226.171875 177.105469 C 226.171875 177.472656 226.171875 177.835938 226.171875 178.203125 L 223.425781 178.203125 C 223.378906 178.1875 223.265625 178.136719 223.191406 178.097656 C 223.035156 178.011719 222.839844 177.882812 222.632812 177.746094 C 222.429688 177.609375 222.214844 177.460938 221.992188 177.339844 C 221.855469 177.265625 221.550781 177.105469 221.230469 177.105469 L 215.199219 177.105469 C 211.835938 177.105469 209.171875 179.804688 209.171875 183.132812 C 209.171875 183.957031 209.332031 184.738281 209.628906 185.449219 C 209.460938 185.917969 209.308594 186.492188 209.238281 187.046875 C 208.5 185.925781 208.074219 184.589844 208.074219 183.132812 Z M 208.621094 203.417969 C 208.621094 203.050781 208.621094 202.6875 208.621094 202.324219 L 210.816406 202.324219 C 211.09375 202.324219 211.351562 202.203125 211.574219 202.082031 C 211.792969 201.964844 212.007812 201.820312 212.214844 201.683594 C 212.417969 201.546875 212.617188 201.414062 212.769531 201.328125 C 212.953125 201.226562 213.054688 201.226562 213.007812 201.226562 L 218.492188 201.226562 C 223.054688 201.226562 226.714844 197.546875 226.714844 193.003906 C 226.714844 190.820312 225.867188 188.832031 224.488281 187.359375 C 224.425781 186.722656 224.300781 186.128906 224.097656 185.542969 C 226.335938 187.222656 227.8125 189.9375 227.8125 193.003906 C 227.8125 198.175781 223.648438 202.324219 218.492188 202.324219 L 213.554688 202.324219 C 213.289062 202.324219 213.019531 202.441406 212.796875 202.558594 C 212.578125 202.679688 212.363281 202.824219 212.15625 202.960938 C 211.953125 203.101562 211.753906 203.226562 211.601562 203.3125 C 211.390625 203.433594 211.316406 203.417969 211.363281 203.417969 Z M 208.621094 199.03125 C 208.621094 198.664062 208.621094 198.300781 208.621094 197.933594 L 211.363281 197.933594 C 211.410156 197.949219 211.527344 198 211.601562 198.039062 C 211.753906 198.125 211.953125 198.253906 212.15625 198.390625 C 212.363281 198.527344 212.578125 198.675781 212.796875 198.796875 C 212.9375 198.875 213.238281 199.03125 213.554688 199.03125 L 218.492188 199.03125 C 221.855469 199.03125 224.519531 196.332031 224.519531 193.003906 C 224.519531 192.179688 224.359375 191.402344 224.0625 190.6875 C 224.230469 190.21875 224.382812 189.644531 224.453125 189.089844 C 225.191406 190.214844 225.617188 191.546875 225.617188 193.003906 C 225.617188 196.960938 222.429688 200.128906 218.492188 200.128906 L 213.007812 200.128906 C 213.054688 200.128906 212.960938 200.136719 212.769531 200.027344 C 212.617188 199.941406 212.417969 199.8125 212.214844 199.675781 C 212.007812 199.539062 211.792969 199.390625 211.574219 199.269531 C 211.351562 199.152344 211.070312 199.03125 210.816406 199.03125 Z M 210.265625 188.070312 C 210.265625 184.453125 213.207031 181.488281 216.847656 181.488281 C 220.484375 181.488281 223.425781 184.453125 223.425781 188.070312 C 223.425781 191.683594 220.484375 194.648438 216.847656 194.652344 C 213.207031 194.652344 210.265625 191.683594 210.265625 188.070312 Z M 211.363281 188.070312 C 211.363281 191.105469 213.824219 193.550781 216.847656 193.550781 C 219.867188 193.550781 222.328125 191.105469 222.328125 188.070312 C 222.328125 185.03125 219.867188 182.582031 216.847656 182.582031 C 213.824219 182.585938 211.363281 185.03125 211.363281 188.070312 Z M 212.460938 188.070312 C 212.460938 185.65625 214.417969 183.683594 216.847656 183.683594 C 219.273438 183.683594 221.230469 185.65625 221.230469 188.070312 C 221.230469 190.480469 219.273438 192.453125 216.847656 192.453125 C 214.417969 192.453125 212.460938 190.480469 212.460938 188.070312 Z M 213.554688 188.070312 C 213.554688 189.894531 215.035156 191.359375 216.847656 191.359375 C 218.65625 191.359375 220.136719 189.894531 220.136719 188.070312 C 220.136719 186.242188 218.65625 184.777344 216.847656 184.777344 C 215.035156 184.777344 213.554688 186.242188 213.554688 188.070312 Z M 214.652344 188.070312 C 214.652344 186.859375 215.628906 185.875 216.847656 185.875 C 218.0625 185.875 219.039062 186.859375 219.039062 188.070312 C 219.039062 189.277344 218.0625 190.261719 216.847656 190.261719 C 215.628906 190.261719 214.652344 189.277344 214.652344 188.070312 Z M 230.550781 173.265625 C 230.550781 173.539062 230.734375 173.8125 231.101562 173.8125 L 231.648438 173.8125 L 231.648438 174.363281 C 231.648438 175.09375 232.746094 175.09375 232.746094 174.363281 L 232.746094 173.8125 L 233.292969 173.8125 C 233.660156 173.8125 233.839844 173.539062 233.839844 173.265625 C 233.839844 172.992188 233.660156 172.71875 233.292969 172.71875 L 232.746094 172.71875 L 232.746094 172.167969 C 232.746094 171.4375 231.648438 171.4375 231.648438 172.167969 L 231.648438 172.71875 L 231.101562 172.71875 C 230.734375 172.71875 230.550781 172.992188 230.550781 173.265625 Z M 231.648438 178.75 C 231.648438 179.480469 232.746094 179.480469 232.746094 178.75 L 232.746094 176.554688 C 232.746094 175.824219 231.648438 175.824219 231.648438 176.554688 L 231.648438 178.75 " fill-opacity="1" fill-rule="nonzero"/></g></svg>