<svg xmlns="http://www.w3.org/2000/svg" xmlns:xlink="http://www.w3.org/1999/xlink" width="500" zoomAndPan="magnify" viewBox="0 0 375 374.999991" height="500" preserveAspectRatio="xMidYMid meet" version="1.0"><defs><g/><clipPath id="477f0e169f"><path d="M 191 131 L 254 131 L 254 237 L 191 237 Z M 191 131 " clip-rule="nonzero"/></clipPath><clipPath id="7261b9571d"><path d="M 180.261719 151.472656 L 232.132812 119.851562 L 289.519531 213.988281 L 237.648438 245.609375 Z M 180.261719 151.472656 " clip-rule="nonzero"/></clipPath><clipPath id="897a570c58"><path d="M 180.261719 151.472656 L 232.132812 119.851562 L 289.519531 213.988281 L 237.648438 245.609375 Z M 180.261719 151.472656 " clip-rule="nonzero"/></clipPath><clipPath id="48ad35ee4d"><path d="M 31.789062 194.066406 L 100.003906 194.066406 L 100.003906 241.972656 L 31.789062 241.972656 Z M 31.789062 194.066406 " clip-rule="nonzero"/></clipPath></defs><g clip-path="url(#477f0e169f)"><g clip-path="url(#7261b9571d)"><g clip-path="url(#897a570c58)"><path fill="#000000" d="M 245.542969 142.339844 C 244.566406 141.097656 243.425781 139.953125 242.269531 138.898438 C 241.261719 137.96875 240.144531 137.101562 238.953125 136.355469 C 229.183594 129.738281 216.367188 129.460938 206.289062 135.605469 C 192.027344 144.300781 187.484375 163.027344 196.179688 177.289062 C 203.695312 189.621094 218.648438 194.84375 232.140625 190.078125 L 232.921875 235.632812 C 232.9375 236.140625 233.339844 236.554688 233.878906 236.59375 C 234.019531 236.582031 234.210938 236.539062 234.371094 236.441406 C 234.640625 236.277344 234.808594 235.953125 234.839844 235.640625 L 234.003906 188.792969 L 233.914062 185.390625 L 233.875 182.914062 L 233.835938 178.378906 L 233.679688 170.164062 C 233.648438 170.109375 233.699219 170.078125 233.667969 170.023438 L 233.515625 162.175781 L 233.484375 162.121094 C 233.523438 161.582031 233.476562 161.023438 233.460938 160.519531 L 233.429688 160.464844 C 233.253906 158.730469 232.726562 157.140625 231.8125 155.640625 C 228.511719 150.226562 221.433594 148.507812 216.019531 151.808594 C 210.679688 154.992188 208.960938 162.070312 212.261719 167.484375 C 215.5625 172.898438 222.640625 174.613281 228.054688 171.3125 C 229.554688 170.398438 230.828125 169.109375 231.722656 167.679688 L 231.726562 169.738281 C 230.828125 170.796875 229.800781 171.644531 228.621094 172.363281 C 222.703125 176.046875 214.851562 174.140625 211.191406 168.136719 C 207.53125 162.132812 209.433594 154.28125 215.441406 150.617188 C 221.445312 146.957031 229.296875 148.863281 232.957031 154.867188 C 234.035156 156.636719 234.621094 158.558594 234.816406 160.574219 L 234.816406 161.898438 L 234.847656 161.949219 L 236.046875 235.566406 C 236.035156 235.792969 236.148438 236.09375 236.296875 236.222656 C 236.484375 236.40625 236.742188 236.46875 236.96875 236.476562 L 240.089844 236.410156 C 240.230469 236.398438 240.421875 236.355469 240.585938 236.257812 C 240.851562 236.09375 241.023438 235.769531 241.050781 235.457031 L 240.039062 177.097656 C 240.039062 177.097656 240.007812 177.042969 240.058594 177.011719 L 239.949219 172.003906 C 239.949219 172.003906 239.917969 171.953125 239.96875 171.917969 L 239.78125 161.960938 C 239.789062 161.734375 239.777344 161.59375 239.789062 161.367188 C 239.796875 161.140625 239.804688 160.914062 239.78125 160.632812 L 239.75 160.582031 C 239.589844 157.664062 238.675781 154.839844 237.171875 152.371094 C 232.148438 143.890625 221.1875 141.230469 212.824219 146.328125 C 204.460938 151.429688 201.804688 162.386719 206.902344 170.75 C 212 179.117188 222.960938 181.773438 231.324219 176.675781 L 231.914062 176.316406 L 231.921875 177.78125 C 222.9375 183.183594 211.289062 180.359375 205.828125 171.40625 C 200.371094 162.453125 203.21875 150.714844 212.171875 145.257812 C 220.910156 139.929688 232.222656 142.445312 237.925781 150.957031 L 238.320312 151.597656 C 239.953125 154.28125 240.878906 157.246094 241.050781 160.300781 L 241.09375 161.820312 L 241.125 161.875 L 241.160156 161.929688 L 241.191406 161.980469 L 241.257812 172.824219 C 241.257812 172.824219 241.289062 172.878906 241.238281 172.910156 L 241.371094 178.199219 C 241.371094 178.199219 241.402344 178.25 241.351562 178.285156 L 242.3125 235.351562 C 242.324219 235.492188 242.367188 235.683594 242.464844 235.84375 C 242.628906 236.113281 242.953125 236.285156 243.320312 236.28125 L 246.441406 236.214844 C 246.582031 236.203125 246.777344 236.160156 246.882812 236.09375 C 247.042969 235.996094 247.117188 235.878906 247.246094 235.726562 C 247.320312 235.605469 247.363281 235.433594 247.371094 235.207031 L 246.417969 179.238281 L 246.28125 173.585938 C 246.28125 173.585938 246.25 173.53125 246.300781 173.5 L 246.058594 160.191406 C 245.867188 156.261719 244.613281 152.394531 242.609375 148.984375 C 241.660156 147.429688 240.550781 145.972656 239.261719 144.699219 C 231.546875 136.753906 219.046875 135.183594 209.554688 140.96875 C 198.242188 147.863281 194.644531 162.707031 201.539062 174.019531 C 207.914062 184.476562 221.035156 188.386719 232.027344 183.378906 L 232.058594 184.757812 C 220.527344 189.726562 207.039062 185.449219 200.46875 174.675781 C 193.210938 162.773438 197 147.152344 208.902344 139.894531 C 217.964844 134.371094 229.609375 135.140625 237.914062 141.769531 C 239.03125 142.632812 240.019531 143.652344 240.953125 144.699219 L 240.984375 144.753906 C 241.949219 145.855469 242.84375 147.078125 243.625 148.363281 C 244.410156 149.648438 243.625 148.363281 243.625 148.363281 L 244.050781 149.0625 C 244.488281 149.898438 244.925781 150.734375 245.308594 151.605469 L 245.339844 151.65625 C 246.4375 154.300781 247.125 157.117188 247.285156 160.03125 L 247.261719 160.117188 L 247.296875 160.171875 L 247.316406 161.777344 L 247.328125 161.917969 L 247.546875 174.214844 C 247.546875 174.214844 247.578125 174.265625 247.523438 174.300781 L 248.578125 235.136719 C 248.570312 235.359375 248.679688 235.660156 248.828125 235.789062 C 248.980469 235.917969 249.21875 236.066406 249.5 236.042969 L 252.621094 235.980469 C 252.761719 235.96875 252.957031 235.921875 253.117188 235.824219 C 253.382812 235.660156 253.554688 235.335938 253.585938 235.023438 L 252.335938 161.804688 L 252.289062 159.921875 C 252.085938 155.488281 250.949219 151.328125 248.875 147.445312 L 248.808594 147.335938 C 248.535156 146.769531 248.210938 146.230469 247.882812 145.695312 C 247.25 144.535156 246.425781 143.421875 245.542969 142.339844 Z M 213.871094 166.503906 C 211.125 162 212.570312 156.046875 217.074219 153.300781 C 221.578125 150.554688 227.53125 152 230.277344 156.5 C 231.027344 157.734375 231.480469 159.078125 231.628906 160.53125 L 231.621094 162.082031 C 231.566406 162.480469 231.570312 162.847656 231.488281 163.191406 L 231.464844 163.277344 L 231.339844 163.796875 C 230.796875 166.039062 229.441406 168.039062 227.523438 169.359375 L 227.042969 169.652344 C 222.570312 172.449219 216.617188 171.007812 213.871094 166.503906 Z M 230.34375 175.066406 C 222.835938 179.640625 213.085938 177.277344 208.511719 169.769531 C 203.933594 162.265625 206.300781 152.515625 213.804688 147.9375 C 221.257812 143.394531 231.0625 145.726562 235.636719 153.234375 C 236.976562 155.429688 237.816406 158.011719 237.941406 160.507812 L 237.960938 161.746094 L 237.9375 161.832031 L 238.140625 171.933594 C 238.140625 171.933594 238.171875 171.984375 238.117188 172.019531 L 238.230469 177.023438 C 238.230469 177.023438 238.261719 177.078125 238.207031 177.109375 L 239.171875 234.542969 L 237.933594 234.5625 L 236.679688 161.9375 L 236.648438 161.882812 C 236.664062 161.433594 236.652344 160.925781 236.648438 160.558594 L 236.617188 160.507812 C 236.449219 158.179688 235.753906 155.957031 234.511719 153.917969 C 230.351562 146.972656 221.320312 144.828125 214.457031 149.011719 C 207.597656 153.195312 205.367188 162.203125 209.582031 169.117188 C 213.796875 176.035156 222.828125 178.179688 229.691406 173.996094 C 230.441406 173.535156 231.15625 173.027344 231.8125 172.40625 L 231.832031 174.011719 C 231.382812 174.359375 230.878906 174.738281 230.34375 175.066406 Z M 203.148438 173.039062 C 196.777344 162.585938 200.082031 148.949219 210.535156 142.578125 C 219.277344 137.25 230.753906 138.707031 237.933594 146.023438 C 239.105469 147.222656 240.117188 148.515625 241.03125 150.019531 C 242.929688 153.128906 244.019531 156.726562 244.207031 160.292969 L 244.417969 173.546875 C 244.417969 173.546875 244.449219 173.597656 244.398438 173.632812 L 245.417969 234.414062 L 244.179688 234.433594 L 243.277344 182.773438 L 243.234375 178.238281 C 243.234375 178.238281 243.203125 178.183594 243.253906 178.152344 L 243.175781 172.832031 C 243.175781 172.832031 243.140625 172.78125 243.195312 172.746094 L 243 162.054688 C 243 162.054688 242.96875 162 243.023438 161.96875 L 243 160.363281 L 242.96875 160.3125 C 242.738281 156.921875 241.726562 153.566406 239.960938 150.671875 L 239.535156 149.976562 C 233.191406 140.53125 220.789062 137.800781 211.191406 143.648438 C 201.324219 149.664062 198.207031 162.519531 204.222656 172.386719 C 210.007812 181.875 222.285156 185.128906 231.960938 179.890625 L 231.992188 181.269531 C 221.691406 186.445312 209.164062 182.90625 203.148438 173.039062 Z M 250.472656 160.074219 L 251.738281 234.164062 L 250.5 234.183594 L 249.441406 174.308594 C 249.441406 174.308594 249.410156 174.253906 249.460938 174.222656 L 249.265625 161.839844 L 249.265625 160.148438 L 249.289062 160.0625 L 249.253906 160.007812 L 249.222656 159.953125 C 249.207031 159.449219 249.140625 158.976562 249.09375 158.414062 C 248.679688 154.84375 247.601562 151.382812 245.777344 148.15625 C 243.957031 144.925781 245.777344 148.15625 245.777344 148.15625 L 245.320312 147.402344 C 244.472656 146.011719 243.546875 144.734375 242.460938 143.558594 L 242.429688 143.503906 C 241.429688 142.347656 240.304688 141.34375 239.121094 140.371094 C 230.175781 133.175781 217.679688 132.339844 207.921875 138.289062 C 195.109375 146.097656 191.046875 162.839844 198.859375 175.65625 C 205.789062 187.019531 219.84375 191.617188 232.0625 186.8125 L 232.0625 188.136719 C 219.28125 192.988281 204.945312 188.050781 197.789062 176.308594 C 189.617188 162.90625 193.867188 145.386719 207.269531 137.214844 C 216.703125 131.464844 228.703125 131.722656 237.898438 137.882812 C 239.003906 138.609375 240 139.398438 240.972656 140.273438 C 242.101562 141.277344 243.121094 142.347656 244.066406 143.535156 C 244.882812 144.511719 245.621094 145.605469 246.308594 146.730469 C 246.601562 147.210938 246.894531 147.695312 247.136719 148.210938 L 247.203125 148.316406 C 249.164062 151.898438 250.257812 155.867188 250.472656 160.074219 Z M 250.472656 160.074219 " fill-opacity="1" fill-rule="nonzero"/></g></g></g><g clip-path="url(#48ad35ee4d)"><path stroke-linecap="butt" transform="matrix(0.75, 0, 0, 0.75, 31.788287, 194.06464)" fill="none" stroke-linejoin="miter" d="M 0.00103361 0.00235493 L 90.95417 0.00235493 L 90.95417 63.877363 L 0.00103361 63.877363 Z M 0.00103361 0.00235493 " stroke="#000000" stroke-width="8" stroke-opacity="1" stroke-miterlimit="4"/></g><g fill="#000000" fill-opacity="1"><g transform="translate(27.288288, 181.881358)"><g><path d="M 30.328125 -31.121094 L 31.292969 -39.457031 C 28.855469 -40.53125 26.132812 -41.042969 23.300781 -41.042969 C -4.136719 -41.042969 -4.195312 0.113281 23.300781 0.113281 C 26.132812 0.113281 29.707031 -0.566406 32.199219 -1.585938 L 31.121094 -9.976562 C 29.59375 -9.183594 26.8125 -8.164062 23.300781 -8.164062 C 7.257812 -8.164062 7.257812 -32.878906 23.300781 -32.878906 C 26.8125 -32.878906 28.796875 -31.917969 30.328125 -31.121094 Z M 30.328125 -31.121094 "/></g></g></g><g fill="#000000" fill-opacity="1"><g transform="translate(61.412809, 181.881358)"><g><path d="M 24.035156 0.566406 C 51.925781 0.566406 51.925781 -41.214844 24.035156 -41.214844 C -3.855469 -41.214844 -3.855469 0.566406 24.035156 0.566406 Z M 24.035156 -7.824219 C 7.824219 -7.824219 7.824219 -32.878906 24.035156 -32.878906 C 40.25 -32.878906 40.25 -7.824219 24.035156 -7.824219 Z M 24.035156 -7.824219 "/></g></g></g><g fill="#000000" fill-opacity="1"><g transform="translate(109.425218, 181.881358)"><g><path d="M 12.640625 -22.050781 L 33.164062 0.851562 L 35.316406 0.851562 L 35.316406 -40.476562 L 27.152344 -40.476562 L 27.152344 -17.574219 L 6.6875 -41.382812 L 4.535156 -41.382812 L 4.535156 0 L 12.640625 0 Z M 12.640625 -22.050781 "/></g></g></g><g fill="#000000" fill-opacity="1"><g transform="translate(149.331637, 181.881358)"><g><path d="M 17.121094 0.851562 L 18.933594 0.851562 L 35.714844 -40.53125 L 26.359375 -40.53125 L 20.917969 -26.757812 L 18.027344 -18.652344 L 15.078125 -27.039062 L 9.695312 -40.53125 L 0.339844 -40.53125 Z M 17.121094 0.851562 "/></g></g></g><g fill="#000000" fill-opacity="1"><g transform="translate(109.942212, 235.849307)"><g><path d="M 4.535156 -40.535156 L 4.535156 0 L 25.511719 0 L 25.511719 -8.105469 L 12.640625 -8.105469 L 12.640625 -40.535156 Z M 4.535156 -40.535156 "/></g></g></g><g fill="#000000" fill-opacity="1"><g transform="translate(142.309606, 235.849307)"><g><path d="M 33.617188 -14.117188 L 33.617188 -40.535156 L 25.566406 -40.535156 L 25.566406 -14.171875 C 25.566406 -5.667969 12.414062 -5.667969 12.414062 -14.171875 L 12.414062 -40.535156 L 4.308594 -40.535156 L 4.308594 -14.117188 C 4.308594 5.160156 33.617188 5.160156 33.617188 -14.117188 Z M 33.617188 -14.117188 "/></g></g></g><g fill="#000000" fill-opacity="1"><g transform="translate(184.766694, 235.849307)"><g><path d="M 19.332031 0 L 19.332031 -32.429688 L 29.421875 -32.429688 L 29.421875 -40.476562 L 1.132812 -40.476562 L 1.132812 -32.429688 L 11.226562 -32.429688 L 11.226562 0 Z M 19.332031 0 "/></g></g></g><g fill="#000000" fill-opacity="1"><g transform="translate(220.203923, 235.849307)"><g/></g></g><g fill="#000000" fill-opacity="1"><g transform="translate(240.72444, 235.849307)"><g/></g></g><g fill="#000000" fill-opacity="1"><g transform="translate(261.244957, 235.849307)"><g/></g></g><g fill="#000000" fill-opacity="1"><g transform="translate(262.023004, 235.849307)"><g><path d="M 24.039062 0.566406 C 51.929688 0.566406 51.929688 -41.214844 24.039062 -41.214844 C -3.855469 -41.214844 -3.855469 0.566406 24.039062 0.566406 Z M 24.039062 -7.824219 C 7.824219 -7.824219 7.824219 -32.882812 24.039062 -32.882812 C 40.25 -32.882812 40.25 -7.824219 24.039062 -7.824219 Z M 24.039062 -7.824219 "/></g></g></g><g fill="#000000" fill-opacity="1"><g transform="translate(310.034056, 235.849307)"><g><path d="M 12.640625 -22.054688 L 33.164062 0.851562 L 35.320312 0.851562 L 35.320312 -40.476562 L 27.15625 -40.476562 L 27.15625 -17.574219 L 6.691406 -41.386719 L 4.535156 -41.386719 L 4.535156 0 L 12.640625 0 Z M 12.640625 -22.054688 "/></g></g></g><g fill="#000000" fill-opacity="1"><g transform="translate(46.112795, 231.178665)"><g><path d="M 10.183594 -15.8125 L 0.222656 0 L 17.828125 0 L 17.828125 -5.40625 L 9.921875 -5.40625 L 15.179688 -13.539062 C 19.65625 -19.765625 17.042969 -26.628906 9.210938 -27.039062 C 6.601562 -27.152344 3.355469 -26.109375 1.304688 -24.617188 L 2.609375 -19.46875 C 3.46875 -20.214844 6.414062 -21.742188 8.765625 -21.59375 C 10.332031 -21.519531 11.523438 -20.402344 11.523438 -18.910156 C 11.523438 -18.910156 11.597656 -17.828125 10.183594 -15.8125 Z M 10.183594 -15.8125 "/></g></g></g><g fill="#000000" fill-opacity="1"><g transform="translate(65.54331, 231.178665)"><g><path d="M 16.296875 -0.0390625 L 16.296875 -6.714844 L 19.207031 -6.714844 L 19.207031 -12.046875 L 16.296875 -12.046875 L 16.296875 -20.140625 L 10.964844 -16.558594 L 10.964844 -12.046875 L 7.570312 -12.046875 L 13.015625 -26.667969 L 7.421875 -26.667969 L -0.148438 -6.714844 L 10.964844 -6.714844 L 10.964844 -0.0390625 Z M 16.296875 -0.0390625 "/></g></g></g></svg>