<svg xmlns="http://www.w3.org/2000/svg" xmlns:xlink="http://www.w3.org/1999/xlink" width="500" zoomAndPan="magnify" viewBox="0 0 375 374.999991" height="500" preserveAspectRatio="xMidYMid meet" version="1.0"><defs><filter x="0%" y="0%" width="100%" height="100%" id="6bc303936a"><feColorMatrix values="0 0 0 0 1 0 0 0 0 1 0 0 0 0 1 0 0 0 1 0" color-interpolation-filters="sRGB"/></filter><clipPath id="fe1039dc9d"><path d="M 37.5 161.367188 L 45.929688 161.367188 L 45.929688 185.96875 L 37.5 185.96875 Z M 37.5 161.367188 " clip-rule="nonzero"/></clipPath><clipPath id="ad871c9050"><path d="M 45.929688 161.121094 L 72.179688 161.121094 L 72.179688 213.621094 L 45.929688 213.621094 Z M 45.929688 161.121094 " clip-rule="nonzero"/></clipPath><clipPath id="66b5919e23"><path d="M 41.714844 205.375 L 46 205.375 L 46 213.625 L 41.714844 213.625 Z M 41.714844 205.375 " clip-rule="nonzero"/></clipPath><clipPath id="4b674e1b69"><path d="M 37.675781 185.675781 L 45.925781 185.675781 L 45.925781 190.175781 L 37.675781 190.175781 Z M 37.675781 185.675781 " clip-rule="nonzero"/></clipPath><clipPath id="fe122befee"><path d="M 81.582031 161.339844 L 116.144531 161.339844 L 116.144531 169.765625 L 81.582031 169.765625 Z M 81.582031 161.339844 " clip-rule="nonzero"/></clipPath><clipPath id="928331fcf2"><path d="M 81.582031 165.554688 C 81.582031 164.433594 82.027344 163.363281 82.816406 162.574219 C 83.609375 161.78125 84.679688 161.339844 85.796875 161.339844 L 111.929688 161.339844 C 113.046875 161.339844 114.117188 161.78125 114.910156 162.574219 C 115.699219 163.363281 116.144531 164.433594 116.144531 165.554688 C 116.144531 166.671875 115.699219 167.742188 114.910156 168.53125 C 114.117188 169.324219 113.046875 169.765625 111.929688 169.765625 L 85.796875 169.765625 C 84.679688 169.765625 83.609375 169.324219 82.816406 168.53125 C 82.027344 167.742188 81.582031 166.671875 81.582031 165.554688 Z M 81.582031 165.554688 " clip-rule="nonzero"/></clipPath><clipPath id="b6e57def49"><path d="M 81.585938 181.441406 L 106.679688 181.441406 L 106.679688 189.871094 L 81.585938 189.871094 Z M 81.585938 181.441406 " clip-rule="nonzero"/></clipPath><clipPath id="9bea9bbd41"><path d="M 81.585938 185.65625 C 81.585938 184.539062 82.027344 183.464844 82.820312 182.675781 C 83.609375 181.886719 84.679688 181.441406 85.796875 181.441406 L 102.464844 181.441406 C 103.582031 181.441406 104.652344 181.886719 105.445312 182.675781 C 106.234375 183.464844 106.679688 184.539062 106.679688 185.65625 C 106.679688 186.773438 106.234375 187.84375 105.445312 188.636719 C 104.652344 189.425781 103.582031 189.871094 102.464844 189.871094 L 85.796875 189.871094 C 84.679688 189.871094 83.609375 189.425781 82.820312 188.636719 C 82.027344 187.84375 81.585938 186.773438 81.585938 185.65625 Z M 81.585938 185.65625 " clip-rule="nonzero"/></clipPath><clipPath id="81f2008f8e"><path d="M 81.582031 204.890625 L 116.144531 204.890625 L 116.144531 213.320312 L 81.582031 213.320312 Z M 81.582031 204.890625 " clip-rule="nonzero"/></clipPath><clipPath id="ac20fe6648"><path d="M 81.582031 209.105469 C 81.582031 207.988281 82.027344 206.914062 82.816406 206.125 C 83.609375 205.335938 84.679688 204.890625 85.796875 204.890625 L 111.929688 204.890625 C 113.046875 204.890625 114.117188 205.335938 114.910156 206.125 C 115.699219 206.914062 116.144531 207.988281 116.144531 209.105469 C 116.144531 210.222656 115.699219 211.296875 114.910156 212.085938 C 114.117188 212.875 113.046875 213.320312 111.929688 213.320312 L 85.796875 213.320312 C 84.679688 213.320312 83.609375 212.875 82.816406 212.085938 C 82.027344 211.296875 81.582031 210.222656 81.582031 209.105469 Z M 81.582031 209.105469 " clip-rule="nonzero"/></clipPath><clipPath id="537da0aac6"><path d="M 108.058594 181.617188 L 116.144531 181.617188 L 116.144531 189.703125 L 108.058594 189.703125 Z M 108.058594 181.617188 " clip-rule="nonzero"/></clipPath><clipPath id="f4ac7faeb7"><path d="M 112.101562 181.617188 C 109.867188 181.617188 108.058594 183.425781 108.058594 185.660156 C 108.058594 187.890625 109.867188 189.703125 112.101562 189.703125 C 114.332031 189.703125 116.144531 187.890625 116.144531 185.660156 C 116.144531 183.425781 114.332031 181.617188 112.101562 181.617188 Z M 112.101562 181.617188 " clip-rule="nonzero"/></clipPath><clipPath id="37db0de709"><path d="M 123 169 L 160 169 L 160 213 L 123 213 Z M 123 169 " clip-rule="nonzero"/></clipPath><clipPath id="b0f4ada6eb"><path d="M 134.195312 169.453125 L 160.34375 208.808594 L 140.355469 222.089844 L 114.203125 182.734375 Z M 134.195312 169.453125 " clip-rule="nonzero"/></clipPath><clipPath id="625d6abb7b"><path d="M 133.570312 169.867188 L 115.269531 182.027344 C 114.921875 182.257812 114.828125 182.722656 115.058594 183.070312 L 140.210938 220.921875 C 140.4375 221.265625 140.902344 221.359375 141.25 221.128906 L 159.550781 208.96875 C 159.894531 208.742188 159.988281 208.273438 159.761719 207.929688 L 134.609375 170.078125 C 134.378906 169.734375 133.914062 169.640625 133.570312 169.867188 Z M 133.570312 169.867188 " clip-rule="nonzero"/></clipPath><clipPath id="b82f391260"><path d="M 134.195312 169.453125 L 160.34375 208.808594 L 140.976562 221.675781 L 114.828125 182.320312 Z M 134.195312 169.453125 " clip-rule="nonzero"/></clipPath><clipPath id="f071bd2355"><path d="M 134.195312 169.453125 L 160.34375 208.808594 L 140.976562 221.675781 L 114.828125 182.320312 Z M 134.195312 169.453125 " clip-rule="nonzero"/></clipPath><clipPath id="f7c0b7b150"><path d="M 141.339844 161.367188 L 149.425781 161.367188 L 149.425781 169.453125 L 141.339844 169.453125 Z M 141.339844 161.367188 " clip-rule="nonzero"/></clipPath><clipPath id="7c29624948"><path d="M 145.382812 161.367188 C 143.148438 161.367188 141.339844 163.179688 141.339844 165.410156 C 141.339844 167.644531 143.148438 169.453125 145.382812 169.453125 C 147.613281 169.453125 149.425781 167.644531 149.425781 165.410156 C 149.425781 163.179688 147.613281 161.367188 145.382812 161.367188 Z M 145.382812 161.367188 " clip-rule="nonzero"/></clipPath><clipPath id="2d7e13ae4d"><path d="M 133 169 L 140 169 L 140 176 L 133 176 Z M 133 169 " clip-rule="nonzero"/></clipPath><clipPath id="12620e4a90"><path d="M 136.859375 167.847656 L 140.523438 173.515625 L 137.371094 175.550781 L 133.710938 169.878906 Z M 136.859375 167.847656 " clip-rule="nonzero"/></clipPath><clipPath id="1da4f8978d"><path d="M 136.859375 167.847656 L 140.523438 173.515625 L 137.371094 175.550781 L 133.710938 169.878906 Z M 136.859375 167.847656 " clip-rule="nonzero"/></clipPath><clipPath id="b96929857b"><path d="M 150 204 L 156 204 L 156 211 L 150 211 Z M 150 204 " clip-rule="nonzero"/></clipPath><clipPath id="306d49c424"><path d="M 152.921875 203.324219 L 156.574219 209 L 153.417969 211.027344 L 149.769531 205.351562 Z M 152.921875 203.324219 " clip-rule="nonzero"/></clipPath><clipPath id="9b441b962a"><path d="M 152.921875 203.324219 L 156.574219 209 L 153.417969 211.027344 L 149.769531 205.351562 Z M 152.921875 203.324219 " clip-rule="nonzero"/></clipPath><clipPath id="4bc9e6ee47"><path d="M 169.925781 161.40625 L 178.355469 161.40625 L 178.355469 201.828125 L 169.925781 201.828125 Z M 169.925781 161.40625 " clip-rule="nonzero"/></clipPath><clipPath id="53953dd345"><path d="M 174.140625 161.40625 C 175.257812 161.40625 176.328125 161.851562 177.121094 162.640625 C 177.910156 163.433594 178.355469 164.503906 178.355469 165.621094 L 178.355469 197.613281 C 178.355469 198.730469 177.910156 199.800781 177.121094 200.59375 C 176.328125 201.382812 175.257812 201.828125 174.140625 201.828125 C 173.023438 201.828125 171.949219 201.382812 171.160156 200.59375 C 170.367188 199.800781 169.925781 198.730469 169.925781 197.613281 L 169.925781 165.621094 C 169.925781 164.503906 170.367188 163.433594 171.160156 162.640625 C 171.949219 161.851562 173.023438 161.40625 174.140625 161.40625 Z M 174.140625 161.40625 " clip-rule="nonzero"/></clipPath><clipPath id="662b5b4d33"><path d="M 169.925781 205.640625 L 178.011719 205.640625 L 178.011719 213.726562 L 169.925781 213.726562 Z M 169.925781 205.640625 " clip-rule="nonzero"/></clipPath><clipPath id="99e8acda0c"><path d="M 173.96875 205.640625 C 171.734375 205.640625 169.925781 207.453125 169.925781 209.683594 C 169.925781 211.917969 171.734375 213.726562 173.96875 213.726562 C 176.199219 213.726562 178.011719 211.917969 178.011719 209.683594 C 178.011719 207.453125 176.199219 205.640625 173.96875 205.640625 Z M 173.96875 205.640625 " clip-rule="nonzero"/></clipPath><clipPath id="e73895fd09"><path d="M 273.355469 161.339844 L 281.785156 161.339844 L 281.785156 201.761719 L 273.355469 201.761719 Z M 273.355469 161.339844 " clip-rule="nonzero"/></clipPath><clipPath id="0ac1bc207c"><path d="M 277.570312 161.339844 C 278.6875 161.339844 279.761719 161.785156 280.550781 162.574219 C 281.34375 163.367188 281.785156 164.4375 281.785156 165.554688 L 281.785156 197.546875 C 281.785156 198.664062 281.34375 199.734375 280.550781 200.527344 C 279.761719 201.316406 278.6875 201.761719 277.570312 201.761719 C 276.453125 201.761719 275.382812 201.316406 274.589844 200.527344 C 273.800781 199.734375 273.355469 198.664062 273.355469 197.546875 L 273.355469 165.554688 C 273.355469 164.4375 273.800781 163.367188 274.589844 162.574219 C 275.382812 161.785156 276.453125 161.339844 277.570312 161.339844 Z M 277.570312 161.339844 " clip-rule="nonzero"/></clipPath><clipPath id="24e091defb"><path d="M 273.355469 205.574219 L 281.441406 205.574219 L 281.441406 213.660156 L 273.355469 213.660156 Z M 273.355469 205.574219 " clip-rule="nonzero"/></clipPath><clipPath id="fde24af2f7"><path d="M 277.398438 205.574219 C 275.167969 205.574219 273.355469 207.382812 273.355469 209.617188 C 273.355469 211.847656 275.167969 213.660156 277.398438 213.660156 C 279.632812 213.660156 281.441406 211.847656 281.441406 209.617188 C 281.441406 207.382812 279.632812 205.574219 277.398438 205.574219 Z M 277.398438 205.574219 " clip-rule="nonzero"/></clipPath><clipPath id="76b4fb3396"><path d="M 291 161 L 316 161 L 316 204 L 291 204 Z M 291 161 " clip-rule="nonzero"/></clipPath><clipPath id="eec1ee9b61"><path d="M 309.078125 159.914062 L 316.742188 163.417969 L 297.621094 205.226562 L 289.953125 201.71875 Z M 309.078125 159.914062 " clip-rule="nonzero"/></clipPath><clipPath id="f77349fd79"><path d="M 312.910156 161.667969 C 313.925781 162.132812 314.71875 162.980469 315.105469 164.027344 C 315.496094 165.078125 315.453125 166.234375 314.988281 167.253906 L 299.371094 201.390625 C 298.90625 202.410156 298.058594 203.199219 297.011719 203.589844 C 295.964844 203.980469 294.804688 203.9375 293.785156 203.472656 C 292.769531 203.007812 291.980469 202.15625 291.589844 201.109375 C 291.199219 200.0625 291.242188 198.902344 291.707031 197.886719 L 307.324219 163.746094 C 307.789062 162.730469 308.640625 161.9375 309.6875 161.550781 C 310.734375 161.160156 311.894531 161.203125 312.910156 161.667969 Z M 312.910156 161.667969 " clip-rule="nonzero"/></clipPath><clipPath id="54e4115df1"><path d="M 307 161 L 337 161 L 337 214 L 307 214 Z M 307 161 " clip-rule="nonzero"/></clipPath><clipPath id="8ed168111b"><path d="M 306.007812 163.4375 L 313.664062 159.914062 L 337.5 211.695312 L 329.84375 215.21875 Z M 306.007812 163.4375 " clip-rule="nonzero"/></clipPath><clipPath id="29dda68306"><path d="M 309.835938 161.675781 C 310.851562 161.207031 312.007812 161.164062 313.058594 161.550781 C 314.105469 161.9375 314.957031 162.726562 315.425781 163.742188 L 335.738281 207.867188 C 336.207031 208.882812 336.25 210.042969 335.863281 211.089844 C 335.476562 212.136719 334.6875 212.988281 333.671875 213.457031 C 332.65625 213.925781 331.496094 213.96875 330.449219 213.582031 C 329.402344 213.195312 328.550781 212.40625 328.082031 211.390625 L 307.769531 167.265625 C 307.300781 166.25 307.257812 165.089844 307.644531 164.042969 C 308.03125 162.992188 308.820312 162.140625 309.835938 161.675781 Z M 309.835938 161.675781 " clip-rule="nonzero"/></clipPath><clipPath id="31aab940df"><path d="M 285.914062 205.226562 L 294 205.226562 L 294 213.308594 L 285.914062 213.308594 Z M 285.914062 205.226562 " clip-rule="nonzero"/></clipPath><clipPath id="fe39a54bd0"><path d="M 289.957031 205.226562 C 287.722656 205.226562 285.914062 207.035156 285.914062 209.265625 C 285.914062 211.5 287.722656 213.308594 289.957031 213.308594 C 292.1875 213.308594 294 211.5 294 209.265625 C 294 207.035156 292.1875 205.226562 289.957031 205.226562 Z M 289.957031 205.226562 " clip-rule="nonzero"/></clipPath><clipPath id="149ecf9019"><path d="M 201.492188 163.136719 L 250.21875 163.136719 L 250.21875 211.863281 L 201.492188 211.863281 Z M 201.492188 163.136719 " clip-rule="nonzero"/></clipPath><clipPath id="06969f87b0"><path d="M 225.855469 163.136719 C 212.402344 163.136719 201.492188 174.046875 201.492188 187.5 C 201.492188 200.953125 212.402344 211.863281 225.855469 211.863281 C 239.308594 211.863281 250.21875 200.953125 250.21875 187.5 C 250.21875 174.046875 239.308594 163.136719 225.855469 163.136719 Z M 225.855469 163.136719 " clip-rule="nonzero"/></clipPath><mask id="46cf28fb7a"><g filter="url(#6bc303936a)"><rect x="-37.5" width="450" fill="#000000" y="-37.499999" height="449.999989" fill-opacity="0.8"/></g></mask><clipPath id="514b67df16"><path d="M 0.0703125 0.957031 L 81.820312 0.957031 L 81.820312 79.707031 L 0.0703125 79.707031 Z M 0.0703125 0.957031 " clip-rule="nonzero"/></clipPath><clipPath id="38aa038dfe"><rect x="0" width="82" y="0" height="80"/></clipPath><clipPath id="122719cb08"><path d="M 191.855469 154.503906 L 261.605469 154.503906 L 261.605469 221.253906 L 191.855469 221.253906 Z M 191.855469 154.503906 " clip-rule="nonzero"/></clipPath><clipPath id="9077952e4c"><path d="M 41.714844 161.40625 L 50.144531 161.40625 L 50.144531 168.375 L 41.714844 168.375 Z M 41.714844 161.40625 " clip-rule="nonzero"/></clipPath></defs><g clip-path="url(#fe1039dc9d)"><path fill="#000000" d="M 37.5 161.367188 L 45.929688 161.367188 L 45.929688 185.96875 L 37.5 185.96875 Z M 37.5 161.367188 " fill-opacity="1" fill-rule="nonzero"/></g><g clip-path="url(#ad871c9050)"><path fill="#000000" d="M 45.929688 169.160156 C 56.035156 169.160156 64.242188 177.367188 64.242188 187.472656 C 64.242188 197.578125 56.035156 205.785156 45.929688 205.785156 L 45.929688 213.59375 C 60.359375 213.59375 72.050781 201.902344 72.050781 187.472656 C 72.050781 173.042969 60.359375 161.394531 45.929688 161.394531 Z M 45.929688 169.160156 " fill-opacity="1" fill-rule="nonzero"/></g><g clip-path="url(#66b5919e23)"><path fill="#000000" d="M 45.921875 213.621094 C 43.601562 213.621094 41.714844 211.734375 41.714844 209.414062 C 41.714844 207.089844 43.601562 205.207031 45.921875 205.207031 Z M 45.921875 213.621094 " fill-opacity="1" fill-rule="nonzero"/></g><g clip-path="url(#4b674e1b69)"><path fill="#000000" d="M 45.921875 185.96875 C 45.921875 188.289062 44.035156 190.175781 41.714844 190.175781 C 39.390625 190.175781 37.507812 188.289062 37.507812 185.96875 Z M 45.921875 185.96875 " fill-opacity="1" fill-rule="nonzero"/></g><g clip-path="url(#fe122befee)"><g clip-path="url(#928331fcf2)"><path fill="#000000" d="M 81.582031 169.765625 L 81.582031 161.339844 L 116.144531 161.339844 L 116.144531 169.765625 Z M 81.582031 169.765625 " fill-opacity="1" fill-rule="nonzero"/></g></g><g clip-path="url(#b6e57def49)"><g clip-path="url(#9bea9bbd41)"><path fill="#000000" d="M 81.585938 189.871094 L 81.585938 181.441406 L 106.679688 181.441406 L 106.679688 189.871094 Z M 81.585938 189.871094 " fill-opacity="1" fill-rule="nonzero"/></g></g><g clip-path="url(#81f2008f8e)"><g clip-path="url(#ac20fe6648)"><path fill="#000000" d="M 81.582031 213.320312 L 81.582031 204.890625 L 116.144531 204.890625 L 116.144531 213.320312 Z M 81.582031 213.320312 " fill-opacity="1" fill-rule="nonzero"/></g></g><g clip-path="url(#537da0aac6)"><g clip-path="url(#f4ac7faeb7)"><path fill="#000000" d="M 108.058594 181.617188 L 116.144531 181.617188 L 116.144531 189.703125 L 108.058594 189.703125 Z M 108.058594 181.617188 " fill-opacity="1" fill-rule="nonzero"/></g></g><g clip-path="url(#37db0de709)"><g clip-path="url(#b0f4ada6eb)"><g clip-path="url(#625d6abb7b)"><g clip-path="url(#b82f391260)"><g clip-path="url(#f071bd2355)"><path fill="#000000" d="M 156.300781 202.726562 C 148.738281 207.75 138.515625 205.691406 133.488281 198.128906 C 128.464844 190.566406 130.527344 180.339844 138.089844 175.316406 L 134.203125 169.46875 C 123.40625 176.644531 120.46875 191.210938 127.644531 202.011719 C 134.820312 212.808594 149.363281 215.714844 160.164062 208.539062 Z M 156.300781 202.726562 " fill-opacity="1" fill-rule="nonzero"/></g></g></g></g></g><g clip-path="url(#f7c0b7b150)"><g clip-path="url(#7c29624948)"><path fill="#000000" d="M 141.339844 161.367188 L 149.425781 161.367188 L 149.425781 169.453125 L 141.339844 169.453125 Z M 141.339844 161.367188 " fill-opacity="1" fill-rule="nonzero"/></g></g><g clip-path="url(#2d7e13ae4d)"><g clip-path="url(#12620e4a90)"><g clip-path="url(#1da4f8978d)"><path fill="#000000" d="M 133.988281 169.707031 C 135.578125 168.683594 137.695312 169.136719 138.71875 170.726562 C 139.746094 172.3125 139.289062 174.429688 137.703125 175.457031 Z M 133.988281 169.707031 " fill-opacity="1" fill-rule="nonzero"/></g></g></g><g clip-path="url(#b96929857b)"><g clip-path="url(#306d49c424)"><g clip-path="url(#9b441b962a)"><path fill="#000000" d="M 150.046875 205.175781 C 151.636719 204.15625 153.753906 204.617188 154.777344 206.207031 C 155.796875 207.796875 155.335938 209.914062 153.746094 210.933594 Z M 150.046875 205.175781 " fill-opacity="1" fill-rule="nonzero"/></g></g></g><g clip-path="url(#4bc9e6ee47)"><g clip-path="url(#53953dd345)"><path fill="#000000" d="M 169.925781 161.40625 L 178.355469 161.40625 L 178.355469 201.828125 L 169.925781 201.828125 Z M 169.925781 161.40625 " fill-opacity="1" fill-rule="nonzero"/></g></g><g clip-path="url(#662b5b4d33)"><g clip-path="url(#99e8acda0c)"><path fill="#000000" d="M 169.925781 205.640625 L 178.011719 205.640625 L 178.011719 213.726562 L 169.925781 213.726562 Z M 169.925781 205.640625 " fill-opacity="1" fill-rule="nonzero"/></g></g><g clip-path="url(#e73895fd09)"><g clip-path="url(#0ac1bc207c)"><path fill="#000000" d="M 273.355469 161.339844 L 281.785156 161.339844 L 281.785156 201.761719 L 273.355469 201.761719 Z M 273.355469 161.339844 " fill-opacity="1" fill-rule="nonzero"/></g></g><g clip-path="url(#24e091defb)"><g clip-path="url(#fde24af2f7)"><path fill="#000000" d="M 273.355469 205.574219 L 281.441406 205.574219 L 281.441406 213.660156 L 273.355469 213.660156 Z M 273.355469 205.574219 " fill-opacity="1" fill-rule="nonzero"/></g></g><g clip-path="url(#76b4fb3396)"><g clip-path="url(#eec1ee9b61)"><g clip-path="url(#f77349fd79)"><path fill="#000000" d="M 309.078125 159.914062 L 316.742188 163.417969 L 297.621094 205.226562 L 289.953125 201.71875 Z M 309.078125 159.914062 " fill-opacity="1" fill-rule="nonzero"/></g></g></g><g clip-path="url(#54e4115df1)"><g clip-path="url(#8ed168111b)"><g clip-path="url(#29dda68306)"><path fill="#000000" d="M 306.007812 163.4375 L 313.664062 159.914062 L 337.5 211.695312 L 329.84375 215.21875 Z M 306.007812 163.4375 " fill-opacity="1" fill-rule="nonzero"/></g></g></g><g clip-path="url(#31aab940df)"><g clip-path="url(#fe39a54bd0)"><path fill="#000000" d="M 285.914062 205.226562 L 294 205.226562 L 294 213.308594 L 285.914062 213.308594 Z M 285.914062 205.226562 " fill-opacity="1" fill-rule="nonzero"/></g></g><g clip-path="url(#149ecf9019)"><g clip-path="url(#06969f87b0)"><path fill="#000000" d="M 201.492188 163.136719 L 250.21875 163.136719 L 250.21875 211.863281 L 201.492188 211.863281 Z M 201.492188 163.136719 " fill-opacity="1" fill-rule="nonzero"/></g></g><g mask="url(#46cf28fb7a)"><g transform="matrix(1, 0, 0, 1, 185, 147)"><g clip-path="url(#38aa038dfe)"><g clip-path="url(#514b67df16)"><path fill="#ffffff" d="M 81.628906 40.332031 C 81.628906 62.074219 63.371094 79.707031 40.851562 79.707031 C 18.328125 79.707031 0.0703125 62.074219 0.0703125 40.332031 C 0.0703125 18.585938 18.328125 0.957031 40.851562 0.957031 C 63.371094 0.957031 81.628906 18.582031 81.628906 40.332031 Z M 81.628906 40.332031 " fill-opacity="1" fill-rule="nonzero"/></g><path fill="#ffffff" d="M 74.109375 40.332031 C 74.109375 41.417969 74.054688 42.507812 73.949219 43.589844 C 73.84375 44.675781 73.683594 45.75 73.46875 46.820312 C 73.257812 47.886719 72.992188 48.941406 72.675781 49.984375 C 72.363281 51.027344 71.996094 52.050781 71.578125 53.058594 C 71.160156 54.066406 70.695312 55.046875 70.183594 56.007812 C 69.667969 56.96875 69.109375 57.902344 68.503906 58.808594 C 67.898438 59.714844 67.25 60.589844 66.558594 61.429688 C 65.867188 62.273438 65.136719 63.078125 64.367188 63.847656 C 63.597656 64.617188 62.792969 65.351562 61.949219 66.039062 C 61.109375 66.730469 60.234375 67.378906 59.328125 67.984375 C 58.421875 68.589844 57.488281 69.148438 56.527344 69.664062 C 55.566406 70.175781 54.585938 70.640625 53.578125 71.058594 C 52.570312 71.476562 51.546875 71.84375 50.503906 72.15625 C 49.460938 72.472656 48.40625 72.738281 47.339844 72.953125 C 46.269531 73.164062 45.195312 73.324219 44.109375 73.429688 C 43.027344 73.535156 41.9375 73.589844 40.851562 73.589844 C 39.761719 73.589844 38.675781 73.535156 37.589844 73.429688 C 36.503906 73.324219 35.429688 73.164062 34.359375 72.953125 C 33.292969 72.738281 32.238281 72.472656 31.195312 72.15625 C 30.152344 71.84375 29.128906 71.476562 28.121094 71.058594 C 27.117188 70.640625 26.132812 70.175781 25.171875 69.664062 C 24.210938 69.148438 23.277344 68.589844 22.371094 67.984375 C 21.464844 67.378906 20.59375 66.730469 19.75 66.039062 C 18.90625 65.351562 18.101562 64.617188 17.332031 63.847656 C 16.5625 63.078125 15.832031 62.273438 15.140625 61.429688 C 14.449219 60.589844 13.800781 59.714844 13.195312 58.808594 C 12.589844 57.902344 12.03125 56.96875 11.515625 56.007812 C 11.003906 55.046875 10.539062 54.066406 10.121094 53.058594 C 9.703125 52.050781 9.339844 51.027344 9.023438 49.984375 C 8.707031 48.941406 8.441406 47.886719 8.230469 46.820312 C 8.015625 45.75 7.855469 44.675781 7.75 43.589844 C 7.644531 42.507812 7.589844 41.417969 7.589844 40.332031 C 7.589844 39.242188 7.644531 38.15625 7.75 37.070312 C 7.855469 35.988281 8.015625 34.910156 8.230469 33.839844 C 8.441406 32.773438 8.707031 31.71875 9.023438 30.675781 C 9.339844 29.632812 9.703125 28.609375 10.121094 27.601562 C 10.539062 26.597656 11.003906 25.613281 11.515625 24.652344 C 12.03125 23.691406 12.589844 22.757812 13.195312 21.851562 C 13.800781 20.945312 14.449219 20.074219 15.140625 19.230469 C 15.832031 18.386719 16.5625 17.582031 17.332031 16.8125 C 18.101562 16.042969 18.90625 15.3125 19.75 14.621094 C 20.59375 13.929688 21.464844 13.28125 22.371094 12.675781 C 23.277344 12.070312 24.210938 11.511719 25.171875 10.996094 C 26.132812 10.484375 27.117188 10.019531 28.121094 9.601562 C 29.128906 9.183594 30.152344 8.820312 31.195312 8.503906 C 32.238281 8.1875 33.292969 7.921875 34.359375 7.710938 C 35.429688 7.496094 36.503906 7.335938 37.589844 7.230469 C 38.675781 7.125 39.761719 7.070312 40.851562 7.070312 C 41.9375 7.070312 43.027344 7.125 44.109375 7.230469 C 45.195312 7.335938 46.269531 7.496094 47.339844 7.710938 C 48.40625 7.921875 49.460938 8.1875 50.503906 8.503906 C 51.546875 8.820312 52.570312 9.183594 53.578125 9.601562 C 54.585938 10.019531 55.566406 10.484375 56.527344 10.996094 C 57.488281 11.511719 58.421875 12.070312 59.328125 12.675781 C 60.234375 13.28125 61.109375 13.929688 61.949219 14.621094 C 62.792969 15.3125 63.597656 16.042969 64.367188 16.8125 C 65.136719 17.582031 65.867188 18.386719 66.558594 19.230469 C 67.25 20.074219 67.898438 20.945312 68.503906 21.851562 C 69.109375 22.757812 69.667969 23.691406 70.183594 24.652344 C 70.695312 25.613281 71.160156 26.597656 71.578125 27.601562 C 71.996094 28.609375 72.363281 29.632812 72.675781 30.675781 C 72.992188 31.71875 73.257812 32.773438 73.46875 33.839844 C 73.683594 34.910156 73.84375 35.988281 73.949219 37.070312 C 74.054688 38.15625 74.109375 39.242188 74.109375 40.332031 Z M 74.109375 40.332031 " fill-opacity="1" fill-rule="nonzero"/><path fill="#ffffff" d="M 69.394531 40.332031 C 69.394531 41.265625 69.347656 42.199219 69.257812 43.128906 C 69.164062 44.058594 69.027344 44.980469 68.84375 45.898438 C 68.664062 46.8125 68.4375 47.71875 68.164062 48.613281 C 67.894531 49.507812 67.578125 50.386719 67.222656 51.25 C 66.863281 52.113281 66.464844 52.957031 66.023438 53.78125 C 65.582031 54.605469 65.101562 55.40625 64.582031 56.183594 C 64.066406 56.960938 63.507812 57.710938 62.914062 58.433594 C 62.324219 59.15625 61.695312 59.847656 61.035156 60.507812 C 60.375 61.167969 59.683594 61.796875 58.960938 62.390625 C 58.238281 62.984375 57.488281 63.539062 56.710938 64.058594 C 55.933594 64.578125 55.132812 65.058594 54.308594 65.496094 C 53.484375 65.9375 52.640625 66.335938 51.777344 66.695312 C 50.914062 67.050781 50.035156 67.367188 49.140625 67.636719 C 48.246094 67.910156 47.339844 68.136719 46.421875 68.320312 C 45.507812 68.5 44.582031 68.636719 43.652344 68.730469 C 42.722656 68.820312 41.789062 68.867188 40.855469 68.867188 C 39.921875 68.867188 38.988281 68.820312 38.058594 68.730469 C 37.128906 68.636719 36.207031 68.5 35.289062 68.320312 C 34.371094 68.136719 33.464844 67.910156 32.570312 67.636719 C 31.679688 67.367188 30.800781 67.054688 29.933594 66.695312 C 29.070312 66.335938 28.226562 65.9375 27.402344 65.496094 C 26.578125 65.058594 25.777344 64.578125 25 64.058594 C 24.222656 63.539062 23.472656 62.984375 22.753906 62.390625 C 22.03125 61.796875 21.335938 61.171875 20.675781 60.507812 C 20.015625 59.847656 19.390625 59.15625 18.796875 58.433594 C 18.203125 57.710938 17.648438 56.960938 17.128906 56.1875 C 16.609375 55.410156 16.128906 54.609375 15.6875 53.785156 C 15.246094 52.960938 14.847656 52.117188 14.488281 51.253906 C 14.132812 50.386719 13.816406 49.511719 13.546875 48.617188 C 13.273438 47.722656 13.046875 46.816406 12.867188 45.898438 C 12.683594 44.980469 12.546875 44.058594 12.453125 43.128906 C 12.363281 42.199219 12.316406 41.265625 12.316406 40.332031 C 12.316406 39.398438 12.363281 38.464844 12.453125 37.535156 C 12.546875 36.605469 12.683594 35.679688 12.863281 34.765625 C 13.046875 33.847656 13.273438 32.941406 13.542969 32.046875 C 13.816406 31.152344 14.128906 30.273438 14.488281 29.410156 C 14.84375 28.546875 15.246094 27.703125 15.683594 26.878906 C 16.125 26.054688 16.605469 25.253906 17.125 24.476562 C 17.644531 23.699219 18.199219 22.949219 18.792969 22.226562 C 19.386719 21.503906 20.011719 20.8125 20.671875 20.152344 C 21.332031 19.492188 22.023438 18.863281 22.746094 18.269531 C 23.46875 17.679688 24.21875 17.121094 24.996094 16.601562 C 25.773438 16.082031 26.574219 15.601562 27.398438 15.164062 C 28.222656 14.722656 29.066406 14.320312 29.929688 13.964844 C 30.792969 13.605469 31.671875 13.292969 32.566406 13.019531 C 33.460938 12.75 34.367188 12.523438 35.28125 12.339844 C 36.199219 12.15625 37.121094 12.019531 38.054688 11.929688 C 38.984375 11.835938 39.914062 11.789062 40.851562 11.789062 C 41.785156 11.789062 42.71875 11.835938 43.648438 11.925781 C 44.578125 12.019531 45.5 12.15625 46.417969 12.335938 C 47.335938 12.519531 48.242188 12.746094 49.136719 13.019531 C 50.03125 13.289062 50.910156 13.601562 51.773438 13.960938 C 52.636719 14.320312 53.480469 14.71875 54.304688 15.160156 C 55.128906 15.597656 55.929688 16.078125 56.707031 16.597656 C 57.484375 17.117188 58.234375 17.671875 58.957031 18.265625 C 59.679688 18.859375 60.371094 19.488281 61.035156 20.148438 C 61.695312 20.808594 62.320312 21.5 62.914062 22.222656 C 63.507812 22.945312 64.066406 23.695312 64.582031 24.472656 C 65.101562 25.25 65.582031 26.050781 66.023438 26.875 C 66.464844 27.699219 66.863281 28.542969 67.222656 29.40625 C 67.578125 30.269531 67.894531 31.148438 68.164062 32.042969 C 68.4375 32.9375 68.664062 33.84375 68.847656 34.761719 C 69.027344 35.679688 69.164062 36.601562 69.257812 37.53125 C 69.347656 38.464844 69.394531 39.394531 69.394531 40.332031 Z M 69.394531 40.332031 " fill-opacity="1" fill-rule="nonzero"/><path fill="#ffffff" d="M 39.101562 21.789062 L 42.617188 21.789062 L 42.617188 25.027344 C 46.542969 25.492188 49.082031 27.714844 50.242188 31.691406 L 45.402344 33.675781 C 44.457031 30.953125 43 29.589844 41.023438 29.589844 C 40.035156 29.589844 39.242188 29.894531 38.636719 30.503906 C 38.015625 31.113281 37.71875 31.851562 37.734375 32.722656 C 37.734375 33.605469 38.023438 34.28125 38.601562 34.753906 C 39.179688 35.226562 40.417969 35.8125 42.320312 36.511719 C 44.40625 37.273438 46.042969 37.992188 47.226562 38.671875 C 48.425781 39.351562 49.375 40.285156 50.070312 41.476562 C 50.777344 42.671875 51.132812 44.066406 51.128906 45.664062 C 51.128906 48.113281 50.398438 50.15625 48.9375 51.792969 C 47.480469 53.425781 45.371094 54.390625 42.617188 54.675781 L 42.617188 58.871094 L 39.105469 58.871094 L 39.105469 54.695312 C 34.511719 54.226562 31.667969 51.554688 30.570312 46.683594 L 36 45.269531 C 36.503906 48.328125 38.167969 49.859375 40.992188 49.859375 C 42.316406 49.859375 43.289062 49.53125 43.914062 48.875 C 44.554688 48.214844 44.867188 47.425781 44.847656 46.503906 C 44.847656 45.542969 44.535156 44.816406 43.914062 44.324219 C 43.289062 43.828125 41.90625 43.203125 39.757812 42.441406 C 37.824219 41.773438 36.316406 41.109375 35.234375 40.453125 C 34.109375 39.769531 33.230469 38.855469 32.589844 37.707031 C 31.878906 36.421875 31.539062 35.050781 31.570312 33.585938 C 31.554688 31.53125 32.160156 29.683594 33.386719 28.039062 C 34.597656 26.394531 36.5 25.394531 39.101562 25.027344 Z M 39.101562 21.789062 " fill-opacity="1" fill-rule="nonzero"/></g></g></g><g clip-path="url(#122719cb08)"><path fill="#01401d" d="M 261.277344 188.019531 C 261.277344 206.53125 245.738281 221.535156 226.570312 221.535156 C 207.398438 221.535156 191.859375 206.53125 191.859375 188.019531 C 191.859375 169.511719 207.398438 154.503906 226.570312 154.503906 C 245.738281 154.503906 261.277344 169.507812 261.277344 188.019531 Z M 261.277344 188.019531 " fill-opacity="1" fill-rule="nonzero"/></g><path fill="#ffffff" d="M 254.878906 188.019531 C 254.878906 188.949219 254.835938 189.871094 254.742188 190.796875 C 254.652344 191.71875 254.515625 192.632812 254.335938 193.542969 C 254.15625 194.453125 253.929688 195.351562 253.660156 196.238281 C 253.390625 197.125 253.078125 197.996094 252.726562 198.855469 C 252.371094 199.710938 251.972656 200.546875 251.535156 201.367188 C 251.101562 202.183594 250.625 202.976562 250.109375 203.75 C 249.59375 204.519531 249.042969 205.261719 248.453125 205.980469 C 247.867188 206.695312 247.242188 207.382812 246.585938 208.039062 C 245.933594 208.695312 245.246094 209.316406 244.527344 209.90625 C 243.8125 210.492188 243.070312 211.042969 242.296875 211.558594 C 241.527344 212.074219 240.734375 212.550781 239.914062 212.988281 C 239.097656 213.425781 238.261719 213.820312 237.402344 214.175781 C 236.546875 214.53125 235.675781 214.84375 234.789062 215.113281 C 233.898438 215.382812 233 215.605469 232.09375 215.785156 C 231.183594 215.96875 230.265625 216.105469 229.34375 216.195312 C 228.421875 216.285156 227.496094 216.332031 226.570312 216.332031 C 225.640625 216.332031 224.71875 216.285156 223.792969 216.195312 C 222.871094 216.105469 221.957031 215.96875 221.046875 215.785156 C 220.136719 215.605469 219.238281 215.382812 218.351562 215.113281 C 217.464844 214.84375 216.59375 214.53125 215.734375 214.175781 C 214.878906 213.820312 214.042969 213.425781 213.222656 212.988281 C 212.40625 212.550781 211.613281 212.074219 210.839844 211.558594 C 210.070312 211.042969 209.324219 210.492188 208.609375 209.90625 C 207.894531 209.316406 207.207031 208.695312 206.550781 208.039062 C 205.894531 207.382812 205.273438 206.695312 204.683594 205.980469 C 204.097656 205.261719 203.546875 204.519531 203.03125 203.75 C 202.515625 202.976562 202.039062 202.183594 201.601562 201.367188 C 201.164062 200.546875 200.769531 199.710938 200.414062 198.855469 C 200.058594 197.996094 199.746094 197.125 199.476562 196.238281 C 199.207031 195.351562 198.984375 194.453125 198.804688 193.542969 C 198.621094 192.632812 198.484375 191.71875 198.394531 190.796875 C 198.304688 189.871094 198.257812 188.949219 198.257812 188.019531 C 198.257812 187.09375 198.304688 186.167969 198.394531 185.246094 C 198.484375 184.324219 198.621094 183.40625 198.804688 182.496094 C 198.984375 181.585938 199.207031 180.691406 199.476562 179.800781 C 199.746094 178.914062 200.058594 178.042969 200.414062 177.1875 C 200.769531 176.328125 201.164062 175.492188 201.601562 174.675781 C 202.039062 173.855469 202.515625 173.0625 203.03125 172.292969 C 203.546875 171.519531 204.097656 170.777344 204.683594 170.058594 C 205.273438 169.34375 205.894531 168.65625 206.550781 168 C 207.207031 167.347656 207.894531 166.722656 208.609375 166.136719 C 209.324219 165.546875 210.070312 164.996094 210.839844 164.480469 C 211.613281 163.964844 212.40625 163.488281 213.222656 163.050781 C 214.042969 162.617188 214.878906 162.21875 215.734375 161.863281 C 216.59375 161.511719 217.464844 161.199219 218.351562 160.929688 C 219.238281 160.660156 220.136719 160.433594 221.046875 160.253906 C 221.957031 160.074219 222.871094 159.9375 223.792969 159.847656 C 224.71875 159.753906 225.640625 159.710938 226.570312 159.710938 C 227.496094 159.710938 228.421875 159.753906 229.34375 159.847656 C 230.265625 159.9375 231.183594 160.074219 232.09375 160.253906 C 233 160.433594 233.898438 160.660156 234.789062 160.929688 C 235.675781 161.199219 236.546875 161.511719 237.402344 161.863281 C 238.261719 162.21875 239.097656 162.617188 239.914062 163.050781 C 240.734375 163.488281 241.527344 163.964844 242.296875 164.480469 C 243.070312 164.996094 243.8125 165.546875 244.527344 166.136719 C 245.246094 166.722656 245.933594 167.347656 246.585938 168 C 247.242188 168.65625 247.867188 169.34375 248.453125 170.058594 C 249.042969 170.777344 249.59375 171.519531 250.109375 172.292969 C 250.625 173.0625 251.101562 173.855469 251.535156 174.675781 C 251.972656 175.492188 252.371094 176.328125 252.726562 177.1875 C 253.078125 178.042969 253.390625 178.914062 253.660156 179.800781 C 253.929688 180.691406 254.15625 181.585938 254.335938 182.496094 C 254.515625 183.40625 254.652344 184.324219 254.742188 185.246094 C 254.835938 186.167969 254.878906 187.09375 254.878906 188.019531 Z M 254.878906 188.019531 " fill-opacity="1" fill-rule="nonzero"/><path fill="#588e53" d="M 250.867188 188.019531 C 250.867188 188.816406 250.828125 189.609375 250.75 190.402344 C 250.671875 191.191406 250.554688 191.980469 250.398438 192.757812 C 250.242188 193.539062 250.050781 194.308594 249.820312 195.070312 C 249.589844 195.832031 249.320312 196.582031 249.015625 197.316406 C 248.710938 198.050781 248.371094 198.769531 247.996094 199.46875 C 247.621094 200.171875 247.214844 200.855469 246.769531 201.515625 C 246.328125 202.175781 245.855469 202.816406 245.351562 203.429688 C 244.847656 204.042969 244.3125 204.632812 243.75 205.195312 C 243.1875 205.757812 242.597656 206.292969 241.984375 206.796875 C 241.371094 207.300781 240.730469 207.773438 240.070312 208.214844 C 239.40625 208.660156 238.726562 209.066406 238.023438 209.441406 C 237.324219 209.816406 236.605469 210.15625 235.871094 210.460938 C 235.136719 210.765625 234.386719 211.035156 233.625 211.265625 C 232.863281 211.496094 232.09375 211.6875 231.3125 211.84375 C 230.53125 212 229.746094 212.117188 228.957031 212.195312 C 228.164062 212.269531 227.371094 212.308594 226.574219 212.308594 C 225.777344 212.308594 224.984375 212.273438 224.195312 212.195312 C 223.402344 212.117188 222.617188 212 221.835938 211.84375 C 221.054688 211.6875 220.285156 211.496094 219.523438 211.265625 C 218.761719 211.035156 218.015625 210.765625 217.277344 210.460938 C 216.542969 210.15625 215.824219 209.816406 215.125 209.441406 C 214.421875 209.066406 213.742188 208.660156 213.078125 208.21875 C 212.417969 207.773438 211.78125 207.300781 211.164062 206.796875 C 210.550781 206.292969 209.960938 205.757812 209.398438 205.195312 C 208.835938 204.632812 208.300781 204.046875 207.796875 203.429688 C 207.292969 202.816406 206.820312 202.175781 206.378906 201.515625 C 205.933594 200.855469 205.527344 200.171875 205.152344 199.472656 C 204.777344 198.769531 204.4375 198.050781 204.132812 197.316406 C 203.828125 196.582031 203.558594 195.832031 203.328125 195.074219 C 203.097656 194.3125 202.90625 193.539062 202.75 192.761719 C 202.59375 191.980469 202.476562 191.195312 202.398438 190.402344 C 202.320312 189.609375 202.28125 188.816406 202.28125 188.019531 C 202.28125 187.226562 202.320312 186.433594 202.398438 185.640625 C 202.476562 184.847656 202.59375 184.0625 202.75 183.28125 C 202.902344 182.503906 203.097656 181.730469 203.328125 180.96875 C 203.558594 180.207031 203.824219 179.460938 204.128906 178.726562 C 204.433594 177.992188 204.773438 177.273438 205.148438 176.570312 C 205.523438 175.867188 205.933594 175.1875 206.375 174.527344 C 206.816406 173.863281 207.289062 173.226562 207.792969 172.609375 C 208.296875 171.996094 208.832031 171.40625 209.394531 170.84375 C 209.957031 170.28125 210.546875 169.75 211.160156 169.242188 C 211.777344 168.738281 212.414062 168.265625 213.074219 167.824219 C 213.738281 167.382812 214.417969 166.972656 215.121094 166.597656 C 215.820312 166.222656 216.539062 165.882812 217.273438 165.578125 C 218.007812 165.273438 218.757812 165.003906 219.519531 164.773438 C 220.28125 164.542969 221.050781 164.351562 221.832031 164.195312 C 222.609375 164.039062 223.398438 163.921875 224.1875 163.84375 C 224.980469 163.765625 225.773438 163.726562 226.570312 163.726562 C 227.363281 163.726562 228.160156 163.765625 228.949219 163.84375 C 229.742188 163.921875 230.527344 164.039062 231.308594 164.191406 C 232.089844 164.347656 232.859375 164.542969 233.621094 164.773438 C 234.382812 165.003906 235.132812 165.269531 235.867188 165.574219 C 236.601562 165.878906 237.320312 166.21875 238.023438 166.59375 C 238.722656 166.96875 239.40625 167.378906 240.066406 167.820312 C 240.730469 168.261719 241.367188 168.734375 241.984375 169.238281 C 242.597656 169.746094 243.1875 170.277344 243.75 170.839844 C 244.3125 171.402344 244.847656 171.992188 245.351562 172.605469 C 245.855469 173.222656 246.328125 173.859375 246.769531 174.523438 C 247.214844 175.183594 247.621094 175.867188 247.996094 176.566406 C 248.371094 177.269531 248.710938 177.988281 249.015625 178.722656 C 249.320312 179.457031 249.589844 180.207031 249.820312 180.96875 C 250.050781 181.730469 250.242188 182.5 250.398438 183.28125 C 250.554688 184.0625 250.671875 184.847656 250.75 185.640625 C 250.828125 186.429688 250.867188 187.222656 250.867188 188.019531 Z M 250.867188 188.019531 " fill-opacity="1" fill-rule="nonzero"/><path fill="#ffffff" d="M 225.082031 172.238281 L 228.070312 172.238281 L 228.070312 174.996094 C 231.414062 175.390625 233.578125 177.28125 234.5625 180.667969 L 230.445312 182.355469 C 229.640625 180.039062 228.398438 178.878906 226.714844 178.878906 C 225.875 178.878906 225.199219 179.136719 224.683594 179.65625 C 224.160156 180.175781 223.902344 180.804688 223.917969 181.542969 C 223.917969 182.296875 224.164062 182.871094 224.65625 183.273438 C 225.148438 183.675781 226.203125 184.175781 227.820312 184.769531 C 229.597656 185.417969 230.988281 186.03125 231.996094 186.605469 C 233.019531 187.183594 233.824219 187.980469 234.417969 188.996094 C 235.019531 190.011719 235.320312 191.199219 235.320312 192.558594 C 235.320312 194.644531 234.699219 196.382812 233.453125 197.777344 C 232.210938 199.167969 230.417969 199.988281 228.074219 200.230469 L 228.074219 203.800781 L 225.082031 203.800781 L 225.082031 200.246094 C 221.175781 199.847656 218.753906 197.574219 217.820312 193.429688 L 222.441406 192.226562 C 222.871094 194.828125 224.285156 196.128906 226.691406 196.128906 C 227.816406 196.128906 228.644531 195.851562 229.175781 195.292969 C 229.722656 194.730469 229.988281 194.058594 229.972656 193.273438 C 229.972656 192.457031 229.707031 191.839844 229.175781 191.417969 C 228.644531 191 227.46875 190.464844 225.640625 189.816406 C 223.996094 189.25 222.710938 188.683594 221.789062 188.125 C 220.832031 187.542969 220.082031 186.765625 219.539062 185.785156 C 218.933594 184.695312 218.644531 183.527344 218.671875 182.277344 C 218.65625 180.53125 219.171875 178.957031 220.21875 177.558594 C 221.246094 176.160156 222.867188 175.304688 225.082031 174.996094 Z M 225.082031 172.238281 " fill-opacity="1" fill-rule="nonzero"/><g clip-path="url(#9077952e4c)"><path fill="#000000" d="M 41.714844 161.40625 L 50.144531 161.40625 L 50.144531 168.375 L 41.714844 168.375 Z M 41.714844 161.40625 " fill-opacity="1" fill-rule="nonzero"/></g></svg>