<?xml version="1.0" encoding="UTF-8"?>
<svg version="1.1" xmlns="http://www.w3.org/2000/svg" width="500" height="500">
<path d="M0 0 C165 0 330 0 500 0 C500 165 500 330 500 500 C335 500 170 500 0 500 C0 335 0 170 0 0 Z " fill="#FFFEFE" transform="translate(0,0)"/>
<path d="M0 0 C20.9479861 17.825087 36.55984179 41.56845844 39.48826218 69.47437477 C39.87567631 74.62846484 39.82580086 79.78591079 39.81689453 84.9519043 C39.81862136 86.21921544 39.82034819 87.48652658 39.82212734 88.7922411 C39.82662473 92.27787908 39.8248084 95.76348797 39.82171178 99.24912643 C39.81981869 102.22563856 39.82148371 105.20214453 39.82316166 108.17865646 C39.82812635 117.04395637 39.82348524 125.9092351 39.81627274 134.77453232 C39.81225583 139.80318934 39.81041832 144.83184588 39.80880737 149.86050415 C39.79242489 195.06018237 39.65255306 240.2581736 39.28133392 285.4563942 C39.249955 289.31803825 39.22021963 293.17969238 39.19073486 297.04135132 C39.14420059 303.0435496 39.09198753 309.04567032 39.03468513 315.04777527 C39.01437416 317.23052103 38.99557761 319.41328147 38.97839165 321.59605408 C38.95461913 324.54091252 38.92466627 327.48563931 38.89282227 330.43041992 C38.88706743 331.29287166 38.8813126 332.15532339 38.87538338 333.04391003 C38.8019298 338.89614039 38.8019298 338.89614039 37.6875 341.125 C35.20826199 341.15185095 32.7293116 341.17176547 30.25 341.1875 C29.54294922 341.19587891 28.83589844 341.20425781 28.10742188 341.21289062 C26.30056441 341.22153588 24.49362397 341.17720011 22.6875 341.125 C21.11230782 339.54980782 21.56131855 337.9841346 21.56000805 335.79592705 C21.5570004 334.85570289 21.55399275 333.91547872 21.55089396 332.94676292 C21.55264433 331.90156962 21.55439471 330.85637632 21.55619812 329.7795105 C21.55302455 328.12801473 21.55302455 328.12801473 21.54978687 326.44315541 C21.54375483 322.72234775 21.54478931 319.0015737 21.5456543 315.28076172 C21.54262475 312.62518119 21.53917841 309.96960469 21.53512573 307.31402588 C21.52699864 301.57750328 21.52206379 295.84098515 21.51883507 290.10445786 C21.51334111 281.02690508 21.49644364 271.94938997 21.47749329 262.87185669 C21.47113561 259.76598174 21.4648272 256.66010669 21.45851612 253.55423164 C21.45693236 252.77786837 21.4553486 252.00150509 21.45371684 251.20161565 C21.43576462 242.35527904 21.41954884 233.50893974 21.40454102 224.66259766 C21.40316514 223.8536506 21.40178927 223.04470354 21.40037171 222.21124293 C21.37849199 209.13319224 21.36769863 196.05515121 21.36017027 182.97708546 C21.35208034 169.54222071 21.32872434 156.10743849 21.2922166 142.67262089 C21.27025847 134.39251098 21.26050641 126.11257112 21.26671693 117.8324336 C21.26990781 112.14483414 21.25845483 106.45737903 21.23582252 100.76982425 C21.22323664 97.49500715 21.21909369 94.22057396 21.22823906 90.94573593 C21.27026643 74.19690305 20.67966429 59.23601262 12.6875 44.125 C12.19507813 43.19300781 11.70265625 42.26101562 11.1953125 41.30078125 C-1.06419965 19.23930893 -18.81069982 6.86870061 -42.390625 -1.078125 C-62.53372148 -6.57169677 -87.24022436 -3.67711916 -105.6328125 5.84375 C-126.57750134 18.15821766 -141.90002633 36.42049291 -148.3125 60.125 C-148.4873291 60.75768799 -148.6621582 61.39037598 -148.84228516 62.04223633 C-154.29351139 83.87588694 -150.42197188 108.08403032 -139.10546875 127.39453125 C-136.40228343 131.5111468 -133.49042915 135.36608381 -130.3125 139.125 C-129.15234375 140.58486328 -129.15234375 140.58486328 -127.96875 142.07421875 C-118.25418708 153.69263157 -101.98286831 162.86008124 -87.3125 166.125 C-86.19617188 166.40085938 -85.07984375 166.67671875 -83.9296875 166.9609375 C-67.72625994 170.64814753 -50.86605156 170.39000326 -35.3125 164.125 C-34.3225 164.125 -33.3325 164.125 -32.3125 164.125 C-32.3125 162.475 -32.3125 160.825 -32.3125 159.125 C-33.72402344 159.64900391 -33.72402344 159.64900391 -35.1640625 160.18359375 C-36.42177474 160.64350345 -37.67959293 161.10312347 -38.9375 161.5625 C-40.16726562 162.01496094 -41.39703125 162.46742188 -42.6640625 162.93359375 C-57.9725791 167.93262754 -77.34683503 166.66648861 -92.3125 161.125 C-93.33988281 160.774375 -94.36726563 160.42375 -95.42578125 160.0625 C-116.62786906 152.14265397 -131.78209905 135.27591417 -141.1875 115.1875 C-149.47550855 96.43805409 -150.03761103 73.25162561 -142.8359375 53.98828125 C-133.76919249 31.44005153 -117.48561101 14.42690481 -95.1875 4.6875 C-93.576253 4.12556097 -91.94966805 3.60622047 -90.3125 3.125 C-89.32894531 2.82980469 -88.34539062 2.53460938 -87.33203125 2.23046875 C-64.29528076 -3.68400764 -41.7821693 0.44493553 -21.31640625 11.78515625 C-2.7637292 22.91676248 10.44584962 40.99454003 16.21484375 61.81640625 C17.61489239 68.65466034 17.83173752 75.20001197 17.82121277 82.16560364 C17.82347833 83.26864906 17.82574388 84.37169449 17.82807809 85.50816554 C17.83440149 89.19922065 17.83358981 92.8902389 17.83276367 96.58129883 C17.83575605 99.2293003 17.83913046 101.8772989 17.84294128 104.52529907 C17.85123274 110.96666883 17.85399537 117.40802943 17.85455366 123.84940407 C17.85502919 129.0823452 17.85708574 134.31528332 17.86025429 139.5482235 C17.86905389 154.3825318 17.87367432 169.21683287 17.87292381 184.0511438 C17.87288386 184.85016234 17.8728439 185.64918089 17.87280273 186.47241211 C17.87276185 187.27240435 17.87272097 188.07239659 17.87267885 188.89663102 C17.87227176 201.88286568 17.88185906 214.86907143 17.8959411 227.85529772 C17.91028442 241.18741736 17.91721253 254.51952287 17.91634732 267.85165042 C17.91601482 275.33771054 17.91878553 282.82374029 17.92952538 290.30979347 C17.93860313 296.67796364 17.94082791 303.04608965 17.93401595 309.41426346 C17.93073792 312.6651485 17.9318148 315.9159305 17.9393692 319.16681099 C17.94701728 322.68438949 17.94249248 326.20174141 17.93473816 329.71931458 C17.93988172 330.75537915 17.94502529 331.79144372 17.95032471 332.85890418 C17.94572592 333.7956028 17.94112712 334.73230141 17.93638897 335.69738483 C17.93671502 336.91629114 17.93671502 336.91629114 17.93704766 338.15982181 C17.6875 340.125 17.6875 340.125 15.6875 342.125 C12.5 342.390625 12.5 342.390625 8.6875 342.375 C7.429375 342.38015625 6.17125 342.3853125 4.875 342.390625 C1.6875 342.125 1.6875 342.125 -0.3125 340.125 C-0.55744499 338.17198718 -0.55744499 338.17198718 -0.55021572 335.72696877 C-0.55234772 334.79683704 -0.55447972 333.86670532 -0.55667633 332.90838778 C-0.54880429 331.87962476 -0.54093224 330.85086173 -0.53282166 329.79092407 C-0.53241381 328.70328998 -0.53200596 327.61565589 -0.53158575 326.49506319 C-0.52783497 322.82556483 -0.50978169 319.15627137 -0.49194336 315.48681641 C-0.48647158 312.86563283 -0.48192058 310.24444718 -0.47822571 307.6232605 C-0.46902648 301.96475051 -0.45283188 296.30629523 -0.43226433 290.6478157 C-0.40275465 282.45348167 -0.38710864 274.25916471 -0.37545223 266.06478791 C-0.35642016 252.75362493 -0.33066482 239.44248544 -0.29858398 226.13134766 C-0.29570708 224.93553861 -0.29570708 224.93553861 -0.29277206 223.71557181 C-0.27125188 214.83271519 -0.24809565 205.94986407 -0.2230835 197.0670166 C-0.21405301 193.85213221 -0.20503623 190.63724778 -0.19604492 187.42236328 C-0.19382327 186.62915875 -0.19160161 185.83595422 -0.18931263 185.01871319 C-0.15252996 171.77033818 -0.12749004 158.52196955 -0.11157519 145.27355325 C-0.10126293 137.10620375 -0.08090521 128.9390006 -0.04745758 120.77171247 C-0.02524083 115.16596987 -0.01393006 109.56027168 -0.01102226 103.95448609 C-0.00898285 100.72461112 -0.00042117 97.49498719 0.01819992 94.26515961 C0.0377132 90.75293847 0.03847327 87.24117511 0.0348053 83.72891235 C0.04490806 82.72245655 0.05501083 81.71600074 0.06541973 80.67904627 C0.01609141 70.72742005 -2.06367038 61.22306815 -6.9375 52.5 C-7.28159912 51.87101807 -7.62569824 51.24203613 -7.98022461 50.59399414 C-11.32552246 44.71020999 -15.45325557 39.83322586 -20.3125 35.125 C-20.86292969 34.56554687 -21.41335937 34.00609375 -21.98046875 33.4296875 C-34.38127668 21.73312299 -51.22284918 17.44526291 -67.82055664 17.58398438 C-84.69356959 18.21710595 -99.53784024 25.69024404 -111.703125 37.2578125 C-119.01385702 45.29086236 -124.41554935 54.62555454 -127.3125 65.125 C-127.64701172 66.300625 -127.64701172 66.300625 -127.98828125 67.5 C-132.16871054 84.79048304 -128.56800546 102.46078077 -119.6328125 117.58203125 C-109.9354323 132.91189668 -95.11363151 142.44871079 -77.52319336 146.71044922 C-73.606589 147.44489364 -69.72597854 147.50735289 -65.75 147.5 C-64.88101074 147.49911377 -64.01202148 147.49822754 -63.11669922 147.49731445 C-52.65208842 147.30807925 -43.67707597 144.83427523 -34.3125 140.125 C-33.6525 140.125 -32.9925 140.125 -32.3125 140.125 C-32.3125 138.475 -32.3125 136.825 -32.3125 135.125 C-32.87195313 135.43953125 -33.43140625 135.7540625 -34.0078125 136.078125 C-49.97071571 144.59851707 -66.11224104 146.53769813 -83.45703125 141.44140625 C-99.47879886 136.23922255 -111.36282995 125.43588777 -119.42138672 110.88427734 C-121.6455393 106.49325173 -123.12024342 101.88692957 -124.3125 97.125 C-124.50199219 96.39410156 -124.69148438 95.66320312 -124.88671875 94.91015625 C-127.5770914 77.31166361 -124.8225761 61.2713726 -114.56640625 46.6328125 C-104.42200726 33.20219975 -90.36905577 24.550104 -73.7578125 21.55859375 C-64.04057969 20.3356767 -55.55756127 20.86358436 -46.3125 24.125 C-45.33410156 24.4653125 -44.35570312 24.805625 -43.34765625 25.15625 C-26.22920233 31.67756578 -14.89530721 43.9121208 -7.28125 60.3515625 C-3.31473915 70.30750473 -3.03461755 79.75121661 -3.10400391 90.31469727 C-3.10665253 91.84986945 -3.10842069 93.38504335 -3.10938644 94.92021751 C-3.11461322 99.1079202 -3.13245209 103.29548569 -3.15257978 107.48313975 C-3.17208924 111.97837132 -3.18021048 116.47362575 -3.18984985 120.96888733 C-3.21040904 129.68173674 -3.24202023 138.39451266 -3.27743542 147.10731298 C-3.30545667 154.08249819 -3.32845325 161.05768409 -3.34802246 168.03289795 C-3.35079468 169.01688249 -3.35356691 170.00086704 -3.35642314 171.0146693 C-3.35919867 172.00029358 -3.3619742 172.98591785 -3.36483383 174.00140953 C-3.42176881 194.21349691 -3.50090357 214.42541104 -3.60006332 234.63733482 C-3.65612962 246.0926221 -3.70521668 257.54789557 -3.74564302 269.00324911 C-3.77527813 277.24522262 -3.81241669 285.48714123 -3.85529006 293.72905642 C-3.88038551 298.59046034 -3.90223027 303.4518255 -3.91584396 308.31327629 C-3.92858123 312.80981907 -3.95054158 317.30621869 -3.97988319 321.80268288 C-3.98898303 323.44831687 -3.99465478 325.09397379 -3.99671364 326.73963165 C-4.00001462 328.9746517 -4.01542519 331.20926145 -4.0340271 333.44419861 C-4.03955786 334.69402999 -4.04508862 335.94386137 -4.05078697 337.23156643 C-4.3125 340.125 -4.3125 340.125 -6.3125 342.125 C-9.53515625 342.35546875 -9.53515625 342.35546875 -13.375 342.3125 C-14.64472656 342.30605469 -15.91445312 342.29960937 -17.22265625 342.29296875 C-20.3125 342.125 -20.3125 342.125 -21.3125 341.125 C-21.4063375 339.72866193 -21.43071222 338.32758654 -21.42716789 336.92810345 C-21.42730884 336.01737975 -21.4274498 335.10665605 -21.42759502 334.16833466 C-21.42263582 333.15611354 -21.41767662 332.14389242 -21.41256714 331.10099792 C-21.41067373 329.50145507 -21.41067373 329.50145507 -21.40874207 327.86959821 C-21.40332844 324.26614894 -21.39079884 320.66275776 -21.37841797 317.05932617 C-21.37322891 314.48754973 -21.36851995 311.91577228 -21.36425781 309.34399414 C-21.35452776 303.78916204 -21.34147886 298.23434574 -21.32653427 292.67952538 C-21.30318791 283.89266612 -21.29016655 275.10580574 -21.27883911 266.31892395 C-21.27483708 263.31307881 -21.2707684 260.30723376 -21.26667976 257.30138874 C-21.26566054 256.5500532 -21.26464131 255.79871767 -21.26359119 255.02461439 C-21.25183857 246.46407922 -21.23796468 237.90354795 -21.22314453 229.34301758 C-21.2217921 228.56019912 -21.22043967 227.77738066 -21.21904625 226.97084043 C-21.19690425 214.30783616 -21.16703956 201.64485873 -21.13517712 188.98187574 C-21.10273667 175.97761071 -21.08190184 162.97335963 -21.07090485 149.96905881 C-21.06369505 141.95149343 -21.04703996 133.93406009 -21.01810409 125.91654316 C-20.99677982 119.76020761 -20.99125577 113.60394879 -20.99147034 107.44757843 C-20.98905433 104.92895525 -20.98150299 102.41033075 -20.96834183 99.8917408 C-20.95107725 96.44295114 -20.95255255 92.99463914 -20.95846558 89.54582214 C-20.94904493 88.55813896 -20.93962429 87.57045577 -20.92991817 86.5528428 C-21.01000882 72.50661381 -25.4025977 60.26536515 -35.3125 50.125 C-46.28810945 41.09960214 -58.49442531 38.96393771 -72.3125 40.125 C-82.59585571 41.80646762 -93.07772961 47.6854279 -99.3125 56.125 C-106.32430132 68.29377743 -109.63989847 80.3125717 -106.62890625 94.30078125 C-102.83401648 105.43350767 -95.86368803 114.95061211 -85.46484375 120.69921875 C-75.02141852 125.6046769 -63.01108868 127.23074089 -51.7421875 124.1484375 C-46.54996888 122.02730558 -41.79666764 119.48812573 -37.3125 116.125 C-36.52875 115.67125 -35.745 115.2175 -34.9375 114.75 C-32.9656444 113.13003941 -32.9656444 113.13003941 -33.0625 109.9375 C-33.145 109.009375 -33.2275 108.08125 -33.3125 107.125 C-33.86550781 107.87523437 -34.41851562 108.62546875 -34.98828125 109.3984375 C-41.40484395 116.92576651 -51.06167343 121.56813349 -60.8203125 122.4375 C-72.79857341 122.82467611 -82.40030116 120.3196913 -91.3125 112.125 C-100.13448889 103.41147819 -104.22376494 94.07345183 -104.625 81.6875 C-104.34660192 69.9456514 -99.5362773 60.91010211 -91.125 52.875 C-82.06600745 45.20852151 -71.98564929 42.42461104 -60.3125 43.125 C-50.39919402 44.05886216 -41.51868944 49.34429237 -34.8125 56.5625 C-27.44070891 65.57076753 -25.00079336 74.62425957 -25.06526184 86.08865356 C-25.06284743 87.07620443 -25.06043301 88.0637553 -25.05794543 89.08123195 C-25.05232077 92.38251017 -25.06096277 95.68359382 -25.06958008 98.98486328 C-25.06850679 101.35573377 -25.06656742 103.726604 -25.06382751 106.09747314 C-25.05948335 111.86745281 -25.06441951 117.63736996 -25.07367782 123.40734269 C-25.08409627 130.14498038 -25.08399061 136.88260586 -25.08350524 143.62025009 C-25.08300476 155.66269831 -25.09215716 167.70511997 -25.10668945 179.74755859 C-25.12073248 191.39079269 -25.12786205 203.0340034 -25.12719727 214.67724609 C-25.12715731 215.39236048 -25.12711735 216.10747487 -25.12707619 216.8442594 C-25.12703583 217.55821874 -25.12699548 218.27217809 -25.1269539 219.00777256 C-25.12626004 232.3056169 -25.13218267 245.60345141 -25.14110712 258.90129254 C-25.14409988 263.57780239 -25.14517299 268.25430966 -25.14563942 272.93082047 C-25.14665391 279.25917103 -25.15283948 285.58749755 -25.16280556 291.91584015 C-25.16569466 294.22265602 -25.16696334 296.52947466 -25.16637802 298.83629227 C-25.16415258 312.96323924 -25.5038483 327.02036811 -26.3125 341.125 C-27.96864657 341.50718767 -29.63707024 341.83895102 -31.3125 342.125 C-32.3125 341.125 -32.3125 341.125 -32.43554783 338.51879025 C-32.43462604 337.34719136 -32.43370424 336.17559248 -32.43275452 334.9684906 C-32.43403615 333.99328173 -32.43403615 333.99328173 -32.43534368 332.99837166 C-32.43700026 330.8041442 -32.43147425 328.60999198 -32.42602539 326.41577148 C-32.42574353 324.84914146 -32.42590123 323.2825113 -32.4264679 321.71588135 C-32.42675592 317.44953623 -32.42085843 313.18321898 -32.41389394 308.91688037 C-32.40766118 304.46322949 -32.40705666 300.00957803 -32.40586853 295.55592346 C-32.40275498 287.11632557 -32.39454128 278.67674056 -32.38451904 270.23714834 C-32.37335863 260.63150556 -32.36784764 251.02586218 -32.36282361 241.42021453 C-32.35235868 221.65513582 -32.33475879 201.89006872 -32.3125 182.125 C-33.23570793 182.43713188 -33.23570793 182.43713188 -34.17756653 182.75556946 C-34.98626694 183.02741562 -35.79496735 183.29926178 -36.62817383 183.5793457 C-37.42927078 183.84930862 -38.23036774 184.11927155 -39.05574036 184.39741516 C-63.99047116 192.43643347 -92.31287028 186.43671034 -115 174.875 C-139.77125409 160.92584083 -157.67397087 138.16971471 -165.79101562 110.97827148 C-173.78997072 82.26974097 -168.74182764 53.83468304 -154.44238281 28.03710938 C-142.11634569 7.17766194 -120.44529837 -10.4302326 -97.125 -17.3125 C-94.86055307 -17.86043383 -92.58942793 -18.38149154 -90.3125 -18.875 C-89.1471875 -19.17019531 -87.981875 -19.46539062 -86.78125 -19.76953125 C-56.8936539 -26.76246239 -24.18803154 -18.58859747 0 0 Z " fill="#FFBF5F" transform="translate(271.3125,76.875)"/>
<path d="M0 0 C9.27010917 4.49040566 14.86697618 11.44187296 18.5 21 C21.00687306 31.46137412 18.80236713 39.86703248 13.75 49.25 C7.18056257 57.27931241 0.16407048 62.20665828 -10.2734375 63.44921875 C-20.68117371 64.08340884 -28.80484349 61.91769271 -36.875 54.94921875 C-43.72202149 47.86305497 -46.67346771 40.75950137 -46.9375 30.9375 C-46.61245465 21.25953688 -44.17202523 14.12283775 -37.5 7 C-26.83363542 -2.58238444 -13.4377186 -5.05408476 0 0 Z " fill="#FFFEFD" transform="translate(220.5,129)"/>
<path d="M0 0 C1.12019531 0.36222656 2.24039063 0.72445312 3.39453125 1.09765625 C27.54960057 9.55049783 45.51024074 27.44890388 57.3125 49.625 C57.73321777 50.41237549 58.15393555 51.19975098 58.58740234 52.01098633 C68.21086547 70.57439498 68.4260764 89.58465735 68.23604774 110.06027579 C68.20613638 113.66438284 68.19449001 117.26855913 68.18054199 120.87275696 C68.15317735 127.3405634 68.11460265 133.80823202 68.06982422 140.27593994 C67.99801211 150.73720119 67.95105325 161.19851141 67.907444 171.65992332 C67.80844612 195.33182454 67.68438475 219.00356162 67.55462074 242.67531121 C67.49270433 253.98000573 67.43291952 265.28471129 67.37324238 276.58941782 C67.25105947 299.72629075 67.12641953 322.86314986 67 346 C65.35 346 63.7 346 62 346 C62.00151888 345.44360732 62.00303776 344.88721463 62.00460267 344.31396157 C62.09427185 311.2785379 62.16282526 278.24314495 62.20426132 245.2076267 C62.20926366 241.23387658 62.214441 237.26012671 62.21972656 233.28637695 C62.22130043 232.09981058 62.22130043 232.09981058 62.22290608 230.88927316 C62.24027314 218.10992994 62.27179024 205.33065929 62.30861118 192.55135901 C62.34612393 179.42166736 62.3682576 166.29201351 62.37635398 153.16227049 C62.38182042 145.07182175 62.39903454 136.98157819 62.43166587 128.89119267 C62.45547029 122.66929513 62.45779395 116.44755139 62.45243073 110.22561455 C62.45352478 107.68651447 62.46139539 105.14740611 62.4768219 102.60835266 C62.57446055 85.69843886 62.06011104 69.52105583 54.25 54.125 C53.90638428 53.42431396 53.56276855 52.72362793 53.20874023 52.00170898 C50.09793074 45.84172526 46.39966902 40.32150444 42 35 C41.31292969 34.15050781 40.62585938 33.30101562 39.91796875 32.42578125 C28.46718523 18.95305758 11.40336716 7.87657942 -6 4 C-6.97066406 3.72542969 -7.94132812 3.45085937 -8.94140625 3.16796875 C-32.23297725 -2.85429105 -56.20845018 1.37215384 -77.1328125 12.6953125 C-99.78562438 26.5709665 -113.82672303 46.3583218 -121.02734375 71.6015625 C-126.72100074 95.68809301 -122.31547531 120.68120948 -110 142 C-107.55837683 145.88440049 -104.91807886 149.46259657 -102 153 C-101.00419922 154.25683594 -101.00419922 154.25683594 -99.98828125 155.5390625 C-87.8081504 170.08317438 -70.26983498 179.67832379 -52 184 C-51.34225586 184.17732666 -50.68451172 184.35465332 -50.00683594 184.53735352 C-43.58024717 186.16721186 -37.35909008 186.34499061 -30.75 186.3125 C-29.09218506 186.30947876 -29.09218506 186.30947876 -27.40087891 186.30639648 C-19.46989394 186.20885086 -12.61038528 185.25315344 -5 183 C-2.6660153 182.57635236 -0.35674416 182.27404002 2 182 C2 183.32 2 184.64 2 186 C-17.44327298 195.1011065 -42.2194132 193.81098595 -62.22583008 187.04785156 C-75.26373914 182.31136837 -86.66858718 175.27685075 -97 166 C-97.69480469 165.38769531 -98.38960937 164.77539062 -99.10546875 164.14453125 C-115.63475573 148.67100711 -127.02296774 124.8003844 -128.13867188 102.18969727 C-129.08334506 72.82842103 -121.70668231 47.0854111 -101.37036133 25.27001953 C-96.08607411 19.84972285 -90.18646809 15.33674522 -84 11 C-83.18015625 10.42507812 -82.3603125 9.85015625 -81.515625 9.2578125 C-58.43064593 -5.69319744 -25.76728698 -8.96125716 0 0 Z " fill="#FFFAF3" transform="translate(237,66)"/>
<path d="M0 0 C1.65792899 1.29718737 3.30530738 2.60807498 4.9375 3.9375 C5.56785156 4.40542969 6.19820313 4.87335938 6.84765625 5.35546875 C19.73260026 15.36404713 28.09772971 32.18769709 30.9375 47.9375 C31.19714539 49.37033829 31.19714539 49.37033829 31.46203613 50.8321228 C32.23213069 56.34116367 32.06954019 61.88907387 32.05273438 67.43994141 C32.05269661 69.3466971 32.05269661 69.3466971 32.05265808 71.29197311 C32.0521261 74.83138763 32.0448632 78.37076053 32.03621864 81.9101634 C32.02948163 84.96623813 32.02639328 88.02231305 32.02309561 91.0783931 C31.97613712 132.25324267 31.72495535 173.42785094 31.49211884 214.60197186 C31.43009676 225.58267294 31.37036129 236.56338618 31.31074238 247.54410052 C31.18872587 270.00858054 31.06407468 292.47304523 30.9375 314.9375 C29.6175 314.9375 28.2975 314.9375 26.9375 314.9375 C26.93901888 314.39130744 26.94053776 313.84511489 26.94210267 313.28237104 C27.03176098 280.85659244 27.10031979 248.43084685 27.14176132 216.00497273 C27.1467637 212.1050402 27.15194103 208.20510793 27.15722656 204.30517578 C27.15880043 203.14064555 27.15880043 203.14064555 27.16040608 201.95258945 C27.17777578 189.40859818 27.20929436 176.8646808 27.24611118 164.32073325 C27.28361654 151.43399918 27.30575605 138.54730361 27.31385398 125.66051722 C27.31932195 117.71900486 27.33654446 109.7777014 27.36916587 101.8362534 C27.39295911 95.7301299 27.39529579 89.62416317 27.38993073 83.51799965 C27.3910253 81.02524346 27.39890308 78.53247887 27.4143219 76.03977013 C27.50963235 59.82713685 27.0941759 44.39282534 19.375 29.6875 C19.04056885 29.03475098 18.7061377 28.38200195 18.36157227 27.70947266 C14.61939358 20.78665351 9.58686055 15.3486345 3.9375 9.9375 C3.3084375 9.32390625 2.679375 8.7103125 2.03125 8.078125 C-13.8869476 -6.48852752 -33.65946756 -8.91456961 -54.32080078 -8.23291016 C-70.82615117 -7.20702106 -86.53975713 2.40386004 -97.62402344 14.27832031 C-112.68530314 31.65042773 -116.36682854 51.61288736 -115.0625 73.9375 C-113.53916663 87.30060263 -105.98787393 101.04332105 -97.0625 110.9375 C-96.55589844 111.535625 -96.04929688 112.13375 -95.52734375 112.75 C-84.77132733 124.58954633 -67.59652915 132.23590317 -51.7265625 133.05859375 C-41.13362867 133.4562264 -31.19447227 133.40863865 -21.0625 129.9375 C-20.1653125 129.65132812 -19.268125 129.36515625 -18.34375 129.0703125 C-16.24029131 128.38863607 -14.14952027 127.6679571 -12.0625 126.9375 C-12.0625 128.5875 -12.0625 130.2375 -12.0625 131.9375 C-33.93209687 140.1937455 -54.32209237 142.11275514 -76.2578125 132.30859375 C-94.96960608 123.16118491 -109.89989083 107.47006686 -117.21875 87.81640625 C-123.63998156 65.90692633 -122.18175746 44.62403922 -111.203125 24.53515625 C-108.32644135 19.5557787 -104.94123134 15.17650876 -101.0625 10.9375 C-100.47210938 10.25558594 -99.88171875 9.57367188 -99.2734375 8.87109375 C-73.82595197 -18.79627881 -29.97181181 -21.37334121 0 0 Z " fill="#FFFBF6" transform="translate(251.0625,97.0625)"/>
<path d="M0 0 C1.41345703 0.47759766 1.41345703 0.47759766 2.85546875 0.96484375 C17.73390285 6.56547104 27.04645092 16.89499837 34.51953125 30.55859375 C37.74436606 38.05484563 38.2917982 45.35756097 38.24723816 53.44108582 C38.24965257 54.45570226 38.25206699 55.4703187 38.25455457 56.51568109 C38.26016456 59.8961815 38.25154866 63.27649067 38.24291992 66.65698242 C38.24399351 69.08876598 38.24593333 71.52054929 38.24867249 73.95233154 C38.25301071 79.86139225 38.24809139 85.77040193 38.23882218 91.67945292 C38.22840038 98.57324533 38.22850942 105.46702582 38.22899476 112.36082462 C38.22949483 124.67195804 38.22035088 136.98306543 38.20581055 149.29418945 C38.1917397 161.21411615 38.18463919 173.13401996 38.18530273 185.05395508 C38.18536267 186.15417769 38.18536267 186.15417769 38.18542381 187.27662703 C38.18546417 188.00889343 38.18550452 188.74115984 38.1855461 189.49561614 C38.18623813 203.09724093 38.18033139 216.69885606 38.17139288 230.30047771 C38.16839032 235.09401271 38.16731495 239.88754593 38.16686058 244.68108177 C38.16610235 251.14978792 38.15970638 257.61847496 38.14969444 264.08717346 C38.14678936 266.45337084 38.14554001 268.81957095 38.14612198 271.18577003 C38.14790166 282.83337544 38.12279799 294.39555214 37 306 C35.68 306 34.36 306 33 306 C33.00276538 304.68324217 33.00553076 303.36648434 33.00837994 302.00982475 C33.07343766 270.7105241 33.1228636 239.4112414 33.15319599 208.11188888 C33.15694784 204.25444273 33.16083083 200.39699672 33.16479492 196.53955078 C33.16558185 195.77164452 33.16636878 195.00373825 33.16717956 194.2125621 C33.18021215 181.79980044 33.20385409 169.38708071 33.23145839 156.97434388 C33.25957246 144.22547899 33.27618891 131.47663598 33.28226548 118.72774136 C33.28636951 110.86917814 33.29930341 103.01073349 33.3237494 95.15220679 C33.34157168 89.11314071 33.34335054 83.07417532 33.33932304 77.03507996 C33.34014504 74.56729022 33.34606773 72.09949579 33.35761642 69.63173294 C33.44468164 50.05921245 33.17209731 32.03520592 19.0390625 16.84375 C7.74708578 6.63338024 -5.30715405 2.58075805 -20.26953125 2.72265625 C-32.67400017 3.64487331 -44.06729541 9.47332743 -53 18 C-62.00947351 28.48086993 -66.83242396 41.08675695 -66.34375 55.0546875 C-65.06078104 66.04739883 -61.64220286 75.17286198 -55 84 C-54.360625 84.85335937 -53.72125 85.70671875 -53.0625 86.5859375 C-46.195146 94.6238632 -35.69755795 99.41694085 -25.5625 101.8125 C-23.7990625 101.9053125 -23.7990625 101.9053125 -22 102 C-20.58654297 102.0928125 -20.58654297 102.0928125 -19.14453125 102.1875 C-7.97740708 102.61443904 1.66840449 99.85680255 11.1953125 94.05078125 C13 93 13 93 16 92 C16.26953125 94.30859375 16.26953125 94.30859375 16 97 C13.09683658 99.67645218 9.52111365 101.25141975 6 103 C5.22785156 103.41894531 4.45570313 103.83789062 3.66015625 104.26953125 C-7.08251955 109.19688498 -22.58473203 108.82160672 -33.75 105.375 C-48.50314104 99.32134385 -59.40116288 89.84503978 -66.25 75.35546875 C-71.87613958 61.88996556 -73.09841526 47.7391794 -68.22265625 33.7734375 C-61.94250781 18.51779795 -51.8591952 8.10085434 -37 1 C-25.80305545 -3.29597056 -11.41867118 -3.87382983 0 0 Z " fill="#FFFAF3" transform="translate(223,107)"/>
</svg>
